{
.appVersion = "1352";
copyright = "Copyright 2019 The Odor Mean Chey Project Authors (https://github.com/danhhong/OdorMeanChey)";
customParameters = (
{
name = "Use Typo Metrics";
value = 1;
},
{
name = license;
value = "This Font Software is licensed under the SIL Open Font License, Version 1.1. This license is available with a FAQ at: https://scripts.sil.org/OFL";
},
{
name = licenseURL;
value = "https://scripts.sil.org/OFL";
},
{
name = fsType;
value = (
);
}
);
date = "2020-02-19 02:17:00 +0000";
designer = "Danh Hong";
designerURL = "http://www.nextspell.com";
disablesAutomaticAlignment = 1;
disablesNiceNames = 1;
familyName = "Odor Mean Chey";
featurePrefixes = (
{
code = "lookup lookup_0 {\012sub uni17B7 by uni17B7.r;\012sub uni17B8 by uni17B8.r;\012sub uni17B9 by uni17B9.r;\012sub uni17BA by uni17BA.r;\012sub uni17BE by uni17B8.r;\012sub uni17C6 by uni17C6.r;\012sub uni17C9 by uni17C9.r;\012sub uni17CD by uni17CD.r;\012sub uni17B7_17CD by iMark_17CDkhmer.r;\012} lookup_0;\012";
name = lookup_0;
},
{
code = "lookup lookup_1 {\012sub uni17B7 by uni17B7.a;\012sub uni17B8 by uni17B8.a;\012sub uni17B9 by uni17B9.a;\012sub uni17BA by uni17BA.a;\012sub uni17BE by uni17B8.a;\012sub uni17C6 by uni17C6.a;\012sub uni17CE by uni17CE.a;\012sub uni17D0 by uni17D0.a;\012} lookup_1;\012";
name = lookup_1;
},
{
code = "lookup lookup_10 {\012sub uni17BB by uni17BB.n;\012sub uni17BC by uni17BC.n;\012sub uni17BD by uni17BD.n;\012} lookup_10;\012";
name = lookup_10;
},
{
code = "lookup lookup_11 {\012sub uni17BB.b by uni17BB.n2;\012sub uni17BC.b by uni17BC.n2;\012sub uni17BD.b by uni17BD.n2;\012} lookup_11;\012";
name = lookup_11;
},
{

glyphs = (
{
glyphname = A;
lastChange = "2021-05-07 10:51:04 +0000";
layers = (
{
layerId = "5714BDDB-2CB7-459F-823B-ADD058C725FB";
paths = (
{
closed = 1;
nodes = (
"58 227 OFFCURVE",
"13 201 OFFCURVE",
"-12 170 CURVE",
"8 0 LINE",
"475 0 LINE",
"496 170 LINE",
"473 196 OFFCURVE",
"437 219 OFFCURVE",
"389 238 CURVE",
"441 403 LINE",
"850 403 LINE",
"906 231 LINE",
"857 212 OFFCURVE",
"824 192 OFFCURVE",
"807 170 CURVE",
"828 0 LINE",
"1307 0 LINE",
"1327 170 LINE",
"1304 197 OFFCURVE",
"1264 221 OFFCURVE",
"1207 242 CURVE",
"799 1423 LINE",
"518 1423 LINE",
"125 248 LINE"
);
},
{
closed = 1;
nodes = (
"664 1024 OFFCURVE",
"682 937 OFFCURVE",
"713 842 CURVE SMOOTH",
"791 592 LINE",
"498 592 LINE",
"578 846 LINE SMOOTH",
"612 957 OFFCURVE",
"629 1054 OFFCURVE",
"629 1137 CURVE",
"658 1137 LINE",
"660 1102 LINE SMOOTH"
);
}
);
width = 1320;
}
);
note = A;
unicode = 0041;
},
{
glyphname = B;
lastChange = "2021-05-07 10:51:04 +0000";
layers = (
{
layerId = "5714BDDB-2CB7-459F-823B-ADD058C725FB";
paths = (
{
closed = 1;
nodes = (
"84 1217 OFFCURVE",
"122 1194 OFFCURVE",
"178 1174 CURVE",
"178 238 LINE",
"121 216 OFFCURVE",
"83 193 OFFCURVE",
"65 170 CURVE",
"85 0 LINE",
"669 0 LINE",
"1024 13 OFFCURVE",
"1204 141 OFFCURVE",
"1204 414 CURVE SMOOTH",
"1204 589 OFFCURVE",
"1140 708 OFFCURVE",
"1013 772 CURVE",
"1113 855 OFFCURVE",
"1163 943 OFFCURVE",
"1163 1036 CURVE SMOOTH",
"1163 1161 OFFCURVE",
"1128 1253 OFFCURVE",
"1058 1313 CURVE SMOOTH",
"1027 1340 OFFCURVE",
"975 1364 OFFCURVE",
"902 1384 CURVE SMOOTH",
"829 1403 OFFCURVE",
"711 1413 OFFCURVE",
"550 1413 CURVE SMOOTH",
"85 1413 LINE",
"65 1243 LINE"
);
},
{
closed = 1;
nodes = (
"707 1190 OFFCURVE",
"765 1187 OFFCURVE",
"817 1135 CURVE SMOOTH",
"843 1109 OFFCURVE",
"856 1070 OFFCURVE",
"856 1019 CURVE SMOOTH",
"856 916 OFFCURVE",
"780 836 OFFCURVE",
"640 836 CURVE SMOOTH",
"473 836 LINE",
"473 1190 LINE",
"579 1190 LINE SMOOTH"
);
},
{
closed = 1;
nodes = (
"827 612 OFFCURVE",
"896 554 OFFCURVE",
"896 412 CURVE SMOOTH",
"896 270 OFFCURVE",
"799 223 OFFCURVE",
"614 223 CURVE SMOOTH",
"473 223 LINE",
"473 612 LINE",
"655 612 LINE SMOOTH"
);
}
);
width = 1263;
}
);
note = B;
unicode = 0042;
},
{
glyphname = C;
lastChange = "2021-05-07 10:51:04 +0000";
layers = (
{
layerId = "5714BDDB-2CB7-459F-823B-ADD058C725FB";
paths = (
{
closed = 1;
nodes = (
"835 1092 OFFCURVE",
"849 1034 OFFCURVE",
"868 997 CURVE",
"1062 997 LINE",
"1098 1069 OFFCURVE",
"1118 1208 OFFCURVE",
"1118 1254 CURVE SMOOTH",
"1118 1300 LINE",
"977 1387 OFFCURVE",
"829 1430 OFFCURVE",
"673 1430 CURVE SMOOTH",
"286 1430 OFFCURVE",
"61 1195 OFFCURVE",
"61 692 CURVE SMOOTH",
"61 441 OFFCURVE",
"104 260 OFFCURVE",
"191 150 CURVE SMOOTH",
"278 39 OFFCURVE",
"419 -16 OFFCURVE",
"614 -16 CURVE SMOOTH",
"809 -16 OFFCURVE",
"979 27 OFFCURVE",
"1124 113 CURVE",
"1050 295 LINE",
"934 251 OFFCURVE",
"803 229 OFFCURVE",
"657 229 CURVE SMOOTH",
"466 229 OFFCURVE",
"368 364 OFFCURVE",
"368 719 CURVE SMOOTH",
"368 896 OFFCURVE",
"393 1021 OFFCURVE",
"444 1092 CURVE SMOOTH",
"495 1163 OFFCURVE",
"561 1198 OFFCURVE",
"643 1198 CURVE SMOOTH",
"725 1198 OFFCURVE",
"786 1189 OFFCURVE",
"827 1171 CURVE"
);
}
);
width = 1167;
}
);
note = C;
unicode = 0043;
},
{
glyphname = D;
lastChange = "2021-05-07 10:51:04 +0000";
layers = (
{
layerId = "5714BDDB-2CB7-459F-823B-ADD058C725FB";
paths = (
{
closed = 1;
nodes = (
"1009 0 OFFCURVE",
"1259 211 OFFCURVE",
"1259 687 CURVE SMOOTH",
"1259 1163 OFFCURVE",
"982 1413 OFFCURVE",
"542 1413 CURVE SMOOTH",
"85 1413 LINE",
"65 1243 LINE",
"84 1217 OFFCURVE",
"122 1194 OFFCURVE",
"178 1174 CURVE",
"178 238 LINE",
"121 216 OFFCURVE",
"83 193 OFFCURVE",
"65 170 CURVE",
"85 0 LINE",
"608 0 LINE SMOOTH"
);
},
{
closed = 1;
nodes = (
"823 1190 OFFCURVE",
"952 1019 OFFCURVE",
"952 678 CURVE SMOOTH",
"952 321 OFFCURVE",
"825 223 OFFCURVE",
"620 223 CURVE SMOOTH",
"473 223 LINE",
"473 1190 LINE",
"565 1190 LINE SMOOTH"
);
}
);
width = 1316;
}
);
note = D;
unicode = 0044;
},
{
glyphname = E;
lastChange = "2021-05-07 10:51:04 +0000";
layers = (
{
layerId = "5714BDDB-2CB7-459F-823B-ADD058C725FB";
paths = (
{
closed = 1;
nodes = (
"851 345 OFFCURVE",
"826 294 OFFCURVE",
"808 223 CURVE",
"473 223 LINE",
"473 614 LINE",
"757 614 LINE",
"774 571 OFFCURVE",
"791 542 OFFCURVE",
"808 528 CURVE",
"937 545 LINE",
"937 909 LINE",
"808 924 LINE",
"791 907 OFFCURVE",
"774 879 OFFCURVE",
"757 838 CURVE",
"473 838 LINE",
"473 1190 LINE",
"792 1190 LINE",
"811 1116 OFFCURVE",
"837 1065 OFFCURVE",
"868 1038 CURVE",
"1019 1057 LINE",
"1019 1413 LINE",
"85 1413 LINE",
"65 1243 LINE",
"84 1217 OFFCURVE",
"122 1194 OFFCURVE",
"178 1174 CURVE",
"178 238 LINE",
"121 216 OFFCURVE",
"83 193 OFFCURVE",
"65 170 CURVE",
"85 0 LINE",
"1036 0 LINE",
"1036 356 LINE",
"884 375 LINE"
);
}
);
width = 1103;
}
);
note = E;
unicode = 0045;
},
{
glyphname = F;
lastChange = "2021-05-07 10:51:04 +0000";
layers = (
{
layerId = "5714BDDB-2CB7-459F-823B-ADD058C725FB";
paths = (
{
closed = 1;
nodes = (
"84 1217 OFFCURVE",
"122 1194 OFFCURVE",
"178 1174 CURVE",
"178 238 LINE",
"121 216 OFFCURVE",
"83 193 OFFCURVE",
"65 170 CURVE",
"85 0 LINE",
"651 0 LINE",
"671 170 LINE",
"630 205 OFFCURVE",
"564 233 OFFCURVE",
"473 254 CURVE",
"473 594 LINE",
"757 594 LINE",
"774 550 OFFCURVE",
"791 521 OFFCURVE",
"808 508 CURVE",
"937 524 LINE",
"937 889 LINE",
"808 903 LINE",
"791 887 OFFCURVE",
"774 858 OFFCURVE",
"757 817 CURVE",
"473 817 LINE",
"473 1190 LINE",
"792 1190 LINE",
"811 1116 OFFCURVE",
"837 1065 OFFCURVE",
"868 1038 CURVE",
"1019 1057 LINE",
"1019 1413 LINE",
"85 1413 LINE",
"65 1243 LINE"
);
}
);
width = 1071;
}
);
note = F;
unicode = 0046;
},
{
glyphname = G;
lastChange = "2021-05-07 10:51:04 +0000";
layers = (
{
layerId = "5714BDDB-2CB7-459F-823B-ADD058C725FB";
paths = (
{
closed = 1;
nodes = (
"728 1198 OFFCURVE",
"790 1188 OFFCURVE",
"849 1167 CURVE",
"856 1092 OFFCURVE",
"870 1036 OFFCURVE",
"890 997 CURVE",
"1079 997 LINE",
"1114 1069 OFFCURVE",
"1134 1208 OFFCURVE",
"1134 1254 CURVE SMOOTH",
"1134 1300 LINE",
"1014 1387 OFFCURVE",
"860 1430 OFFCURVE",
"671 1430 CURVE SMOOTH",
"293 1430 OFFCURVE",
"61 1194 OFFCURVE",
"61 693 CURVE SMOOTH",
"61 192 OFFCURVE",
"237 -16 OFFCURVE",
"628 -16 CURVE SMOOTH",
"863 -16 OFFCURVE",
"1007 19 OFFCURVE",
"1138 115 CURVE",
"1138 494 LINE",
"1185 514 OFFCURVE",
"1217 535 OFFCURVE",
"1235 557 CURVE",
"1214 719 LINE",
"735 719 LINE",
"714 557 LINE",
"737 527 OFFCURVE",
"780 502 OFFCURVE",
"843 481 CURVE",
"843 250 LINE",
"786 227 OFFCURVE",
"720 215 OFFCURVE",
"647 215 CURVE SMOOTH",
"461 215 OFFCURVE",
"368 384 OFFCURVE",
"368 721 CURVE SMOOTH",
"368 1073 OFFCURVE",
"476 1198 OFFCURVE",
"661 1198 CURVE SMOOTH"
);
}
);
width = 1269;
}
);
note = G;
unicode = 0047;
},
{
glyphname = H;
lastChange = "2021-05-07 10:51:04 +0000";
layers = (
{
layerId = "5714BDDB-2CB7-459F-823B-ADD058C725FB";
paths = (
{
closed = 1;
nodes = (
"866 216 OFFCURVE",
"828 193 OFFCURVE",
"810 170 CURVE",
"831 0 LINE",
"1310 0 LINE",
"1331 170 LINE",
"1310 193 OFFCURVE",
"1273 216 OFFCURVE",
"1218 238 CURVE",
"1218 1174 LINE",
"1271 1194 OFFCURVE",
"1309 1217 OFFCURVE",
"1331 1243 CURVE",
"1310 1413 LINE",
"831 1413 LINE",
"810 1243 LINE",
"829 1217 OFFCURVE",
"867 1194 OFFCURVE",
"923 1174 CURVE",
"923 852 LINE",
"473 852 LINE",
"473 1174 LINE",
"526 1194 OFFCURVE",
"563 1217 OFFCURVE",
"585 1243 CURVE",
"565 1413 LINE",
"85 1413 LINE",
"65 1243 LINE",
"84 1217 OFFCURVE",
"122 1194 OFFCURVE",
"178 1174 CURVE",
"178 238 LINE",
"121 216 OFFCURVE",
"83 193 OFFCURVE",
"65 170 CURVE",
"85 0 LINE",
"565 0 LINE",
"585 170 LINE",
"564 193 OFFCURVE",
"527 216 OFFCURVE",
"473 238 CURVE",
"473 647 LINE",
"923 647 LINE",
"923 238 LINE"
);
}
);
width = 1396;
}
);
note = H;
unicode = 0048;
},
{
glyphname = I;
lastChange = "2021-05-07 10:51:04 +0000";
layers = (
{
layerId = "5714BDDB-2CB7-459F-823B-ADD058C725FB";
paths = (
{
closed = 1;
nodes = (
"84 1217 OFFCURVE",
"122 1194 OFFCURVE",
"178 1174 CURVE",
"178 238 LINE",
"121 216 OFFCURVE",
"83 193 OFFCURVE",
"65 170 CURVE",
"85 0 LINE",
"565 0 LINE",
"585 170 LINE",
"564 193 OFFCURVE",
"527 216 OFFCURVE",
"473 238 CURVE",
"473 1174 LINE",
"526 1194 OFFCURVE",
"563 1217 OFFCURVE",
"585 1243 CURVE",
"565 1413 LINE",
"85 1413 LINE",
"65 1243 LINE"
);
}
);
width = 651;
}
);
note = I;
unicode = 0049;
},
{
glyphname = J;
lastChange = "2021-05-07 10:51:04 +0000";
layers = (
{
layerId = "5714BDDB-2CB7-459F-823B-ADD058C725FB";
paths = (
{
closed = 1;
nodes = (
"12 -205 OFFCURVE",
"1 -204 OFFCURVE",
"-6 -203 CURVE",
"-14 -130 OFFCURVE",
"-27 -79 OFFCURVE",
"-46 -49 CURVE",
"-231 -49 LINE",
"-263 -114 OFFCURVE",
"-282 -234 OFFCURVE",
"-282 -276 CURVE SMOOTH",
"-282 -319 LINE",
"-98 -455 OFFCURVE",
"234 -465 OFFCURVE",
"362 -331 CURVE SMOOTH",
"423 -268 OFFCURVE",
"453 -157 OFFCURVE",
"453 0 CURVE SMOOTH",
"455 1174 LINE",
"508 1194 OFFCURVE",
"546 1217 OFFCURVE",
"568 1243 CURVE",
"547 1413 LINE",
"68 1413 LINE",
"48 1243 LINE",
"67 1217 OFFCURVE",
"104 1194 OFFCURVE",
"160 1174 CURVE",
"160 -18 LINE SMOOTH",
"160 -166 OFFCURVE",
"124 -205 OFFCURVE",
"25 -205 CURVE SMOOTH"
);
}
);
width = 614;
}
);
note = J;
unicode = 004A;
},
{
glyphname = K;
lastChange = "2021-05-07 10:51:04 +0000";
layers = (
{
layerId = "5714BDDB-2CB7-459F-823B-ADD058C725FB";
paths = (
{
closed = 1;
nodes = (
"84 1217 OFFCURVE",
"122 1194 OFFCURVE",
"178 1174 CURVE",
"178 238 LINE",
"121 216 OFFCURVE",
"83 193 OFFCURVE",
"65 170 CURVE",
"85 0 LINE",
"565 0 LINE",
"585 170 LINE",
"564 193 OFFCURVE",
"527 216 OFFCURVE",
"473 238 CURVE",
"473 1174 LINE",
"526 1194 OFFCURVE",
"563 1217 OFFCURVE",
"585 1243 CURVE",
"565 1413 LINE",
"85 1413 LINE",
"65 1243 LINE"
);
},
{
closed = 1;
nodes = (
"1267 209 OFFCURVE",
"1207 239 OFFCURVE",
"1118 258 CURVE",
"794 745 LINE",
"1148 1182 LINE",
"1200 1203 OFFCURVE",
"1236 1225 OFFCURVE",
"1255 1247 CURVE",
"1234 1413 LINE",
"767 1413 LINE",
"747 1247 LINE",
"762 1228 OFFCURVE",
"789 1210 OFFCURVE",
"827 1192 CURVE",
"485 737 LINE",
"939 0 LINE",
"1279 0 LINE",
"1300 170 LINE"
);
}
);
width = 1284;
}
);
note = K;
unicode = 004B;
},
{
glyphname = L;
lastChange = "2021-05-07 10:51:04 +0000";
layers = (
{
layerId = "5714BDDB-2CB7-459F-823B-ADD058C725FB";
paths = (
{
closed = 1;
nodes = (
"839 345 OFFCURVE",
"814 294 OFFCURVE",
"796 223 CURVE",
"473 223 LINE",
"473 1174 LINE",
"526 1194 OFFCURVE",
"563 1217 OFFCURVE",
"585 1243 CURVE",
"565 1413 LINE",
"85 1413 LINE",
"65 1243 LINE",
"84 1217 OFFCURVE",
"122 1194 OFFCURVE",
"178 1174 CURVE",
"178 238 LINE",
"121 216 OFFCURVE",
"83 193 OFFCURVE",
"65 170 CURVE",
"85 0 LINE",
"1023 0 LINE",
"1023 356 LINE",
"872 375 LINE"
);
}
);
width = 1028;
}
);
note = L;
unicode = 004C;
},
{
glyphname = M;
lastChange = "2021-05-07 10:51:04 +0000";
layers = (
{
layerId = "5714BDDB-2CB7-459F-823B-ADD058C725FB";
paths = (
{
closed = 1;
nodes = (
"1341 219 OFFCURVE",
"1303 195 OFFCURVE",
"1282 168 CURVE",
"1302 0 LINE",
"1769 0 LINE",
"1790 170 LINE",
"1768 197 OFFCURVE",
"1730 221 OFFCURVE",
"1677 242 CURVE",
"1677 1180 LINE",
"1733 1200 OFFCURVE",
"1772 1225 OFFCURVE",
"1794 1255 CURVE",
"1773 1413 LINE",
"1314 1413 LINE",
"1030 588 LINE",
"986 483 OFFCURVE",
"961 388 OFFCURVE",
"956 305 CURVE",
"927 305 LINE",
"921 340 LINE SMOOTH",
"910 415 OFFCURVE",
"886 498 OFFCURVE",
"847 588 CURVE",
"548 1413 LINE",
"81 1413 LINE",
"61 1255 LINE",
"83 1225 OFFCURVE",
"122 1200 OFFCURVE",
"178 1180 CURVE",
"178 233 LINE",
"127 214 OFFCURVE",
"90 189 OFFCURVE",
"65 158 CURVE",
"86 0 LINE",
"487 0 LINE",
"507 158 LINE",
"483 189 OFFCURVE",
"446 214 OFFCURVE",
"395 233 CURVE",
"395 772 LINE SMOOTH",
"395 853 OFFCURVE",
"389 954 OFFCURVE",
"376 1075 CURVE",
"397 1077 LINE",
"409 1030 LINE SMOOTH",
"430 939 OFFCURVE",
"453 862 OFFCURVE",
"479 801 CURVE",
"766 0 LINE",
"1038 0 LINE",
"1310 801 LINE SMOOTH",
"1333 869 OFFCURVE",
"1361 961 OFFCURVE",
"1392 1077 CURVE",
"1413 1075 LINE",
"1409 1026 LINE SMOOTH",
"1399 911 OFFCURVE",
"1394 827 OFFCURVE",
"1394 772 CURVE SMOOTH",
"1394 240 LINE"
);
}
);
width = 1857;
}
);
note = M;
unicode = 004D;
},
{
glyphname = N;
lastChange = "2021-05-07 10:51:04 +0000";
layers = (
{
layerId = "5714BDDB-2CB7-459F-823B-ADD058C725FB";
paths = (
{
closed = 1;
nodes = (
"395 853 OFFCURVE",
"385 952 OFFCURVE",
"366 1071 CURVE",
"389 1079 LINE",
"403 1032 LINE SMOOTH",
"432 935 OFFCURVE",
"461 858 OFFCURVE",
"491 801 CURVE SMOOTH",
"903 0 LINE",
"1224 0 LINE",
"1224 1178 LINE",
"1273 1197 OFFCURVE",
"1311 1222 OFFCURVE",
"1337 1255 CURVE",
"1316 1413 LINE",
"915 1413 LINE",
"895 1255 LINE",
"920 1222 OFFCURVE",
"958 1197 OFFCURVE",
"1007 1178 CURVE",
"1007 647 LINE SMOOTH",
"1007 566 OFFCURVE",
"1017 467 OFFCURVE",
"1036 348 CURVE",
"1013 340 LINE",
"999 389 LINE SMOOTH",
"970 484 OFFCURVE",
"941 561 OFFCURVE",
"911 618 CURVE SMOOTH",
"503 1413 LINE",
"81 1413 LINE",
"61 1255 LINE",
"83 1225 OFFCURVE",
"122 1200 OFFCURVE",
"178 1180 CURVE",
"178 233 LINE",
"127 214 OFFCURVE",
"90 189 OFFCURVE",
"65 158 CURVE",
"86 0 LINE",
"487 0 LINE",
"507 158 LINE",
"483 189 OFFCURVE",
"446 214 OFFCURVE",
"395 233 CURVE",
"395 772 LINE SMOOTH"
);
}
);
width = 1384;
}
);
note = N;
unicode = 004E;
},
{
glyphname = O;
lastChange = "2021-05-07 10:52:11 +0000";
layers = (
{
background = {
paths = (
{
closed = 1;
nodes = (
"1255 360 OFFCURVE",
"1255 1110 OFFCURVE",
"966 1430 OFFCURVE",
"378 1430 OFFCURVE",
"61 1071 OFFCURVE",
"61 319 OFFCURVE",
"350 -16 OFFCURVE",
"931 -16 OFFCURVE"
);
},
{
closed = 1;
nodes = (
"653 1198 QCURVE SMOOTH",
"948 1198 OFFCURVE",
"948 707 QCURVE SMOOTH",
"948 442 OFFCURVE",
"796 215 OFFCURVE",
"524 215 OFFCURVE",
"368 457 OFFCURVE",
"368 985 OFFCURVE",
"516 1198 OFFCURVE"
);
}
);
};
layerId = "5714BDDB-2CB7-459F-823B-ADD058C725FB";
paths = (
{
closed = 1;
nodes = (
"1254 1231 OFFCURVE",
"1058 1432 OFFCURVE",
"672 1432 CURVE SMOOTH",
"294 1432 OFFCURVE",
"60 1198 OFFCURVE",
"60 713 CURVE SMOOTH",
"60 187 OFFCURVE",
"264 -15 OFFCURVE",
"631 -15 CURVE SMOOTH",
"985 -15 OFFCURVE",
"1254 175 OFFCURVE",
"1254 742 CURVE SMOOTH"
);
},
{
closed = 1;
nodes = (
"948 354 OFFCURVE",
"841 215 OFFCURVE",
"660 215 CURVE SMOOTH",
"569 215 OFFCURVE",
"498 255 OFFCURVE",
"446 336 CURVE SMOOTH",
"343 495 OFFCURVE",
"341 946 OFFCURVE",
"442 1092 CURVE SMOOTH",
"491 1163 OFFCURVE",
"562 1198 OFFCURVE",
"653 1198 CURVE SMOOTH",
"850 1198 OFFCURVE",
"948 1034 OFFCURVE",
"948 707 CURVE SMOOTH"
);
}
);
width = 1316;
}
);
note = O;
unicode = 004F;
},
{
glyphname = P;
lastChange = "2021-05-07 10:51:04 +0000";
layers = (
{
layerId = "5714BDDB-2CB7-459F-823B-ADD058C725FB";
paths = (
{
closed = 1;
nodes = (
"984 492 OFFCURVE",
"1193 647 OFFCURVE",
"1193 956 CURVE SMOOTH",
"1193 1295 OFFCURVE",
"1008 1408 OFFCURVE",
"628 1413 CURVE SMOOTH",
"85 1413 LINE",
"65 1243 LINE",
"84 1217 OFFCURVE",
"122 1194 OFFCURVE",
"178 1174 CURVE",
"178 238 LINE",
"121 216 OFFCURVE",
"83 193 OFFCURVE",
"65 170 CURVE",
"85 0 LINE",
"638 0 LINE",
"659 170 LINE",
"634 201 OFFCURVE",
"572 228 OFFCURVE",
"473 250 CURVE",
"473 492 LINE",
"565 492 LINE SMOOTH"
);
},
{
closed = 1;
nodes = (
"784 1190 OFFCURVE",
"886 1144 OFFCURVE",
"886 962 CURVE SMOOTH",
"886 780 OFFCURVE",
"795 715 OFFCURVE",
"610 715 CURVE SMOOTH",
"473 715 LINE",
"473 1190 LINE",
"595 1190 LINE SMOOTH"
);
}
);
width = 1241;
}
);
note = P;
unicode = 0050;
},
{
glyphname = Q;
lastChange = "2021-05-07 10:51:04 +0000";
layers = (
{
layerId = "5714BDDB-2CB7-459F-823B-ADD058C725FB";
paths = (
{
closed = 1;
nodes = (
"548 -231 OFFCURVE",
"811 -360 OFFCURVE",
"1095 -360 CURVE SMOOTH",
"1114 -360 LINE",
"1134 -174 LINE",
"975 -148 OFFCURVE",
"861 -91 OFFCURVE",
"792 -2 CURVE",
"1087 58 OFFCURVE",
"1255 306 OFFCURVE",
"1255 729 CURVE SMOOTH",
"1255 1237 OFFCURVE",
"1064 1430 OFFCURVE",
"672 1430 CURVE SMOOTH",
"476 1430 OFFCURVE",
"325 1370 OFFCURVE",
"220 1251 CURVE SMOOTH",
"114 1131 OFFCURVE",
"61 955 OFFCURVE",
"61 722 CURVE SMOOTH",
"61 257 OFFCURVE",
"204 45 OFFCURVE",
"491 -4 CURVE"
);
},
{
closed = 1;
nodes = (
"948 354 OFFCURVE",
"841 215 OFFCURVE",
"660 215 CURVE SMOOTH",
"569 215 OFFCURVE",
"498 255 OFFCURVE",
"446 336 CURVE SMOOTH",
"343 495 OFFCURVE",
"341 946 OFFCURVE",
"442 1092 CURVE SMOOTH",
"491 1163 OFFCURVE",
"562 1198 OFFCURVE",
"653 1198 CURVE SMOOTH",
"850 1198 OFFCURVE",
"948 1034 OFFCURVE",
"948 707 CURVE SMOOTH"
);
}
);
width = 1316;
}
);
note = Q;
unicode = 0051;
},
{
glyphname = R;
lastChange = "2021-05-07 10:51:04 +0000";
layers = (
{
layerId = "5714BDDB-2CB7-459F-823B-ADD058C725FB";
paths = (
{
closed = 1;
nodes = (
"1173 1311 OFFCURVE",
"989 1408 OFFCURVE",
"608 1413 CURVE SMOOTH",
"85 1413 LINE",
"65 1243 LINE",
"84 1217 OFFCURVE",
"122 1194 OFFCURVE",
"178 1174 CURVE",
"178 238 LINE",
"121 216 OFFCURVE",
"83 193 OFFCURVE",
"65 170 CURVE",
"85 0 LINE",
"638 0 LINE",
"659 170 LINE",
"634 201 OFFCURVE",
"572 228 OFFCURVE",
"473 250 CURVE",
"473 578 LINE",
"606 578 LINE SMOOTH",
"635 578 OFFCURVE",
"660 553 OFFCURVE",
"681 502 CURVE",
"917 0 LINE",
"1263 0 LINE",
"1284 158 LINE",
"1261 187 OFFCURVE",
"1217 212 OFFCURVE",
"1152 233 CURVE",
"1003 518 LINE SMOOTH",
"981 559 OFFCURVE",
"936 594 OFFCURVE",
"868 623 CURVE",
"1043 688 OFFCURVE",
"1173 814 OFFCURVE",
"1173 999 CURVE SMOOTH"
);
},
{
closed = 1;
nodes = (
"772 1190 OFFCURVE",
"866 1138 OFFCURVE",
"866 994 CURVE SMOOTH",
"866 849 OFFCURVE",
"776 801 OFFCURVE",
"589 801 CURVE SMOOTH",
"473 801 LINE",
"473 1190 LINE",
"593 1190 LINE SMOOTH"
);
}
);
width = 1286;
}
);
note = R;
unicode = 0052;
},
{
glyphname = S;
lastChange = "2021-05-07 10:51:04 +0000";
layers = (
{
layerId = "5714BDDB-2CB7-459F-823B-ADD058C725FB";
paths = (
{
closed = 1;
nodes = (
"698 1115 OFFCURVE",
"712 1061 OFFCURVE",
"735 1028 CURVE",
"929 1028 LINE",
"965 1099 OFFCURVE",
"985 1237 OFFCURVE",
"985 1284 CURVE SMOOTH",
"985 1331 LINE",
"846 1397 OFFCURVE",
"703 1430 OFFCURVE",
"558 1430 CURVE SMOOTH",
"266 1430 OFFCURVE",
"69 1268 OFFCURVE",
"69 1020 CURVE SMOOTH",
"69 808 OFFCURVE",
"176 671 OFFCURVE",
"391 610 CURVE SMOOTH",
"602 549 LINE SMOOTH",
"681 524 OFFCURVE",
"723 480 OFFCURVE",
"731 446 CURVE SMOOTH",
"735 429 OFFCURVE",
"737 407 OFFCURVE",
"737 381 CURVE SMOOTH",
"737 269 OFFCURVE",
"646 207 OFFCURVE",
"519 207 CURVE SMOOTH",
"455 207 OFFCURVE",
"399 217 OFFCURVE",
"352 238 CURVE",
"348 309 OFFCURVE",
"335 365 OFFCURVE",
"313 408 CURVE",
"118 408 LINE",
"83 336 OFFCURVE",
"63 198 OFFCURVE",
"63 152 CURVE SMOOTH",
"63 104 LINE",
"178 28 OFFCURVE",
"368 -16 OFFCURVE",
"532 -16 CURVE SMOOTH",
"829 -16 OFFCURVE",
"1056 155 OFFCURVE",
"1056 434 CURVE SMOOTH",
"1056 669 OFFCURVE",
"931 779 OFFCURVE",
"735 836 CURVE SMOOTH",
"552 889 LINE SMOOTH",
"416 928 OFFCURVE",
"380 972 OFFCURVE",
"380 1064 CURVE SMOOTH",
"380 1110 OFFCURVE",
"396 1146 OFFCURVE",
"427 1171 CURVE SMOOTH",
"458 1196 OFFCURVE",
"498 1208 OFFCURVE",
"549 1208 CURVE SMOOTH",
"599 1208 OFFCURVE",
"647 1202 OFFCURVE",
"694 1190 CURVE"
);
}
);
width = 1101;
}
);
note = S;
unicode = 0053;
},
{
glyphname = T;
lastChange = "2021-05-07 10:51:04 +0000";
layers = (
{
layerId = "5714BDDB-2CB7-459F-823B-ADD058C725FB";
paths = (
{
closed = 1;
nodes = (
"163 1115 OFFCURVE",
"180 1144 OFFCURVE",
"196 1188 CURVE",
"442 1188 LINE",
"442 238 LINE",
"385 216 OFFCURVE",
"347 193 OFFCURVE",
"329 170 CURVE",
"350 0 LINE",
"829 0 LINE",
"850 170 LINE",
"829 193 OFFCURVE",
"792 216 OFFCURVE",
"737 238 CURVE",
"737 1188 LINE",
"983 1188 LINE",
"999 1144 OFFCURVE",
"1016 1115 OFFCURVE",
"1034 1102 CURVE",
"1163 1118 LINE",
"1163 1411 LINE",
"16 1411 LINE",
"16 1118 LINE",
"145 1102 LINE"
);
}
);
width = 1179;
}
);
note = T;
unicode = 0054;
},
{
glyphname = U;
lastChange = "2021-05-07 10:51:04 +0000";
layers = (
{
layerId = "5714BDDB-2CB7-459F-823B-ADD058C725FB";
paths = (
{
closed = 1;
nodes = (
"1152 1174 LINE",
"1205 1194 OFFCURVE",
"1243 1217 OFFCURVE",
"1265 1243 CURVE",
"1244 1413 LINE",
"796 1413 LINE",
"775 1243 LINE",
"794 1217 OFFCURVE",
"832 1194 OFFCURVE",
"888 1174 CURVE",
"888 504 LINE SMOOTH",
"888 312 OFFCURVE",
"828 215 OFFCURVE",
"661 215 CURVE SMOOTH",
"494 215 OFFCURVE",
"440 307 OFFCURVE",
"440 504 CURVE SMOOTH",
"440 1174 LINE",
"493 1194 OFFCURVE",
"530 1217 OFFCURVE",
"552 1243 CURVE",
"532 1413 LINE",
"52 1413 LINE",
"32 1243 LINE",
"55 1216 OFFCURVE",
"93 1193 OFFCURVE",
"145 1174 CURVE",
"145 512 LINE SMOOTH",
"145 149 OFFCURVE",
"273 -16 OFFCURVE",
"637 -16 CURVE SMOOTH",
"1000 -16 OFFCURVE",
"1152 155 OFFCURVE",
"1152 512 CURVE SMOOTH"
);
}
);
width = 1298;
}
);
note = U;
unicode = 0055;
},
{
glyphname = V;
lastChange = "2021-05-07 10:51:04 +0000";
layers = (
{
layerId = "5714BDDB-2CB7-459F-823B-ADD058C725FB";
paths = (
{
closed = 1;
nodes = (
"1236 1187 OFFCURVE",
"1282 1213 OFFCURVE",
"1307 1243 CURVE",
"1286 1413 LINE",
"819 1413 LINE",
"799 1243 LINE",
"819 1216 OFFCURVE",
"855 1193 OFFCURVE",
"907 1176 CURVE",
"725 567 LINE SMOOTH",
"692 456 OFFCURVE",
"675 359 OFFCURVE",
"674 276 CURVE",
"645 276 LINE",
"643 311 LINE SMOOTH",
"636 390 OFFCURVE",
"619 477 OFFCURVE",
"590 571 CURVE SMOOTH",
"416 1178 LINE",
"467 1195 OFFCURVE",
"501 1217 OFFCURVE",
"520 1243 CURVE",
"500 1413 LINE",
"20 1413 LINE",
"0 1243 LINE",
"18 1218 OFFCURVE",
"56 1195 OFFCURVE",
"115 1174 CURVE",
"504 -10 LINE",
"784 -10 LINE",
"1169 1165 LINE"
);
}
);
width = 1290;
}
);
note = V;
unicode = 0056;
},
{
glyphname = W;
lastChange = "2021-05-07 10:51:04 +0000";
layers = (
{
layerId = "5714BDDB-2CB7-459F-823B-ADD058C725FB";
paths = (
{
closed = 1;
nodes = (
"959 879 OFFCURVE",
"974 983 OFFCURVE",
"979 1077 CURVE",
"1007 1077 LINE",
"1012 1036 LINE SMOOTH",
"1021 947 OFFCURVE",
"1036 857 OFFCURVE",
"1055 764 CURVE SMOOTH",
"1220 -10 LINE",
"1542 -10 LINE",
"1886 1163 LINE",
"1951 1184 OFFCURVE",
"1997 1210 OFFCURVE",
"2023 1243 CURVE",
"2003 1413 LINE",
"1550 1413 LINE",
"1530 1243 LINE",
"1551 1213 OFFCURVE",
"1591 1188 OFFCURVE",
"1648 1167 CURVE",
"1487 567 LINE SMOOTH",
"1457 455 OFFCURVE",
"1441 357 OFFCURVE",
"1438 274 CURVE",
"1409 274 LINE",
"1405 311 LINE SMOOTH",
"1396 385 OFFCURVE",
"1381 472 OFFCURVE",
"1360 571 CURVE SMOOTH",
"1175 1399 LINE",
"862 1399 LINE",
"678 567 LINE SMOOTH",
"653 454 OFFCURVE",
"640 357 OFFCURVE",
"639 276 CURVE",
"610 276 LINE",
"606 311 LINE SMOOTH",
"594 397 OFFCURVE",
"577 484 OFFCURVE",
"555 571 CURVE SMOOTH",
"409 1176 LINE",
"460 1193 OFFCURVE",
"497 1216 OFFCURVE",
"520 1243 CURVE",
"500 1413 LINE",
"26 1413 LINE",
"6 1243 LINE",
"25 1217 OFFCURVE",
"63 1194 OFFCURVE",
"119 1174 CURVE",
"446 -10 LINE",
"762 -10 LINE",
"934 766 LINE SMOOTH"
);
}
);
width = 2004;
}
);
note = W;
unicode = 0057;
},
{
glyphname = X;
lastChange = "2021-05-07 10:51:04 +0000";
layers = (
{
layerId = "5714BDDB-2CB7-459F-823B-ADD058C725FB";
paths = (
{
closed = 1;
nodes = (
"605 910 OFFCURVE",
"580 966 OFFCURVE",
"545 1034 CURVE SMOOTH",
"463 1188 LINE",
"500 1203 OFFCURVE",
"527 1221 OFFCURVE",
"545 1243 CURVE",
"524 1413 LINE",
"45 1413 LINE",
"25 1243 LINE",
"45 1216 OFFCURVE",
"87 1191 OFFCURVE",
"152 1169 CURVE",
"418 737 LINE",
"139 248 LINE",
"72 226 OFFCURVE",
"27 200 OFFCURVE",
"2 170 CURVE",
"22 0 LINE",
"489 0 LINE",
"510 170 LINE",
"491 192 OFFCURVE",
"457 214 OFFCURVE",
"408 236 CURVE",
"500 432 LINE SMOOTH",
"537 510 OFFCURVE",
"561 572 OFFCURVE",
"573 618 CURVE",
"604 618 LINE",
"610 596 LINE SMOOTH",
"621 553 OFFCURVE",
"644 497 OFFCURVE",
"678 428 CURVE SMOOTH",
"772 227 LINE",
"731 208 OFFCURVE",
"703 189 OFFCURVE",
"686 170 CURVE",
"707 0 LINE",
"1186 0 LINE",
"1206 170 LINE",
"1183 197 OFFCURVE",
"1141 221 OFFCURVE",
"1081 242 CURVE",
"805 735 LINE",
"1071 1165 LINE",
"1138 1187 OFFCURVE",
"1183 1213 OFFCURVE",
"1208 1243 CURVE",
"1188 1413 LINE",
"721 1413 LINE",
"700 1243 LINE",
"719 1220 OFFCURVE",
"753 1198 OFFCURVE",
"801 1178 CURVE",
"723 1030 LINE SMOOTH",
"682 953 OFFCURVE",
"657 899 OFFCURVE",
"649 866 CURVE",
"618 866 LINE"
);
}
);
width = 1220;
}
);
note = X;
unicode = 0058;
},
{
glyphname = Y;
lastChange = "2021-05-07 10:51:04 +0000";
layers = (
{
layerId = "5714BDDB-2CB7-459F-823B-ADD058C725FB";
paths = (
{
closed = 1;
nodes = (
"844 193 OFFCURVE",
"807 216 OFFCURVE",
"752 238 CURVE",
"752 473 LINE",
"1075 1165 LINE",
"1138 1186 OFFCURVE",
"1184 1212 OFFCURVE",
"1211 1243 CURVE",
"1190 1413 LINE",
"723 1413 LINE",
"703 1243 LINE",
"722 1218 OFFCURVE",
"758 1195 OFFCURVE",
"813 1174 CURVE",
"748 1024 LINE SMOOTH",
"701 917 OFFCURVE",
"664 814 OFFCURVE",
"635 715 CURVE",
"604 715 LINE",
"590 756 LINE SMOOTH",
"561 845 OFFCURVE",
"527 934 OFFCURVE",
"488 1024 CURVE SMOOTH",
"418 1182 LINE",
"465 1199 OFFCURVE",
"496 1220 OFFCURVE",
"512 1243 CURVE",
"492 1413 LINE",
"12 1413 LINE",
"10 1405 LINE",
"10 1403 LINE",
"-8 1243 LINE",
"15 1214 OFFCURVE",
"59 1189 OFFCURVE",
"123 1167 CURVE",
"457 473 LINE",
"457 238 LINE",
"400 216 OFFCURVE",
"362 193 OFFCURVE",
"344 170 CURVE",
"365 0 LINE",
"844 0 LINE",
"864 170 LINE"
);
}
);
width = 1204;
}
);
note = Y;
unicode = 0059;
},
{
glyphname = Z;
lastChange = "2021-05-07 10:51:04 +0000";
layers = (
{
layerId = "5714BDDB-2CB7-459F-823B-ADD058C725FB";
paths = (
{
closed = 1;
nodes = (
"621 1208 OFFCURVE",
"688 1214 OFFCURVE",
"751 1227 CURVE",
"761 1204 LINE",
"741 1188 LINE SMOOTH",
"700 1155 OFFCURVE",
"661 1110 OFFCURVE",
"624 1053 CURVE SMOOTH",
"30 162 LINE",
"50 0 LINE",
"1107 0 LINE",
"1117 38 OFFCURVE",
"1122 80 OFFCURVE",
"1122 127 CURVE SMOOTH",
"1122 236 OFFCURVE",
"1107 317 OFFCURVE",
"1077 369 CURVE",
"882 381 LINE",
"857 338 OFFCURVE",
"840 280 OFFCURVE",
"831 205 CURVE",
"581 205 LINE SMOOTH",
"510 205 OFFCURVE",
"443 199 OFFCURVE",
"380 186 CURVE",
"370 209 LINE",
"392 225 LINE SMOOTH",
"432 258 OFFCURVE",
"470 303 OFFCURVE",
"507 360 CURVE SMOOTH",
"1101 1251 LINE",
"1081 1413 LINE",
"83 1413 LINE",
"74 1375 OFFCURVE",
"69 1333 OFFCURVE",
"69 1286 CURVE SMOOTH",
"69 1177 OFFCURVE",
"84 1096 OFFCURVE",
"114 1044 CURVE",
"309 1032 LINE",
"333 1075 OFFCURVE",
"350 1133 OFFCURVE",
"360 1208 CURVE",
"550 1208 LINE SMOOTH"
);
}
);
width = 1167;
}
);
note = Z;
unicode = 005A;
},
{
glyphname = a;
lastChange = "2021-05-07 10:51:04 +0000";
layers = (
{
layerId = "5714BDDB-2CB7-459F-823B-ADD058C725FB";
paths = (
{
closed = 1;
nodes = (
"94 797 OFFCURVE",
"106 736 OFFCURVE",
"129 688 CURVE",
"330 688 LINE",
"343 719 OFFCURVE",
"351 764 OFFCURVE",
"354 821 CURVE",
"381 830 OFFCURVE",
"416 834 OFFCURVE",
"459 834 CURVE SMOOTH",
"572 834 OFFCURVE",
"629 781 OFFCURVE",
"629 674 CURVE SMOOTH",
"629 575 LINE",
"405 575 LINE SMOOTH",
"165 575 OFFCURVE",
"43 464 OFFCURVE",
"43 281 CURVE SMOOTH",
"43 97 OFFCURVE",
"192 -16 OFFCURVE",
"375 -16 CURVE SMOOTH",
"529 -16 OFFCURVE",
"635 27 OFFCURVE",
"694 113 CURVE",
"704 62 OFFCURVE",
"716 19 OFFCURVE",
"729 -16 CURVE",
"859 -16 OFFCURVE",
"959 0 OFFCURVE",
"1028 33 CURVE",
"1028 211 LINE",
"1001 224 OFFCURVE",
"963 236 OFFCURVE",
"915 246 CURVE",
"915 682 LINE SMOOTH",
"915 938 OFFCURVE",
"798 1040 OFFCURVE",
"506 1040 CURVE SMOOTH",
"360 1040 OFFCURVE",
"223 1006 OFFCURVE",
"96 938 CURVE",
"95 915 OFFCURVE",
"94 893 OFFCURVE",
"94 872 CURVE SMOOTH"
);
},
{
closed = 1;
nodes = (
"380 193 OFFCURVE",
"338 241 OFFCURVE",
"338 309 CURVE SMOOTH",
"338 384 OFFCURVE",
"387 422 OFFCURVE",
"485 422 CURVE SMOOTH",
"629 422 LINE",
"629 254 LINE",
"588 213 OFFCURVE",
"532 193 OFFCURVE",
"463 193 CURVE SMOOTH"
);
}
);
width = 1048;
}
);
note = a;
unicode = 0061;
},
{
glyphname = b;
lastChange = "2021-05-07 10:51:04 +0000";
layers = (
{
layerId = "5714BDDB-2CB7-459F-823B-ADD058C725FB";
paths = (
{
closed = 1;
nodes = (
"17 1266 OFFCURVE",
"55 1243 OFFCURVE",
"103 1227 CURVE",
"103 0 LINE",
"205 0 LINE SMOOTH",
"239 0 OFFCURVE",
"269 18 OFFCURVE",
"295 53 CURVE",
"385 7 OFFCURVE",
"477 -16 OFFCURVE",
"570 -16 CURVE SMOOTH",
"693 -16 OFFCURVE",
"799 22 OFFCURVE",
"889 98 CURVE SMOOTH",
"985 178 OFFCURVE",
"1045 330 OFFCURVE",
"1045 535 CURVE SMOOTH",
"1045 903 OFFCURVE",
"938 1040 OFFCURVE",
"641 1040 CURVE SMOOTH",
"554 1040 OFFCURVE",
"446 1003 OFFCURVE",
"389 963 CURVE",
"389 1475 LINE",
"344 1479 OFFCURVE",
"289 1481 OFFCURVE",
"224 1481 CURVE SMOOTH",
"158 1481 OFFCURVE",
"87 1472 OFFCURVE",
"10 1454 CURVE",
"-10 1296 LINE"
);
},
{
closed = 1;
nodes = (
"502 193 OFFCURVE",
"448 204 OFFCURVE",
"389 227 CURVE",
"389 754 LINE",
"444 799 OFFCURVE",
"513 821 OFFCURVE",
"598 821 CURVE SMOOTH",
"654 821 OFFCURVE",
"693 800 OFFCURVE",
"716 759 CURVE SMOOTH",
"739 717 OFFCURVE",
"750 638 OFFCURVE",
"750 522 CURVE SMOOTH",
"750 303 OFFCURVE",
"684 193 OFFCURVE",
"553 193 CURVE SMOOTH"
);
}
);
width = 1099;
}
);
note = b;
unicode = 0062;
},
{
glyphname = c;
lastChange = "2021-05-07 10:51:04 +0000";
layers = (
{
layerId = "5714BDDB-2CB7-459F-823B-ADD058C725FB";
paths = (
{
closed = 1;
nodes = (
"561 831 OFFCURVE",
"583 830 OFFCURVE",
"600 829 CURVE",
"604 782 OFFCURVE",
"616 741 OFFCURVE",
"635 707 CURVE",
"815 707 LINE",
"850 776 OFFCURVE",
"868 850 OFFCURVE",
"868 928 CURVE SMOOTH",
"868 940 OFFCURVE",
"867 953 OFFCURVE",
"866 967 CURVE",
"779 1016 OFFCURVE",
"670 1040 OFFCURVE",
"539 1040 CURVE SMOOTH",
"408 1040 OFFCURVE",
"296 1002 OFFCURVE",
"205 926 CURVE SMOOTH",
"102 839 OFFCURVE",
"51 695 OFFCURVE",
"51 496 CURVE SMOOTH",
"51 155 OFFCURVE",
"198 -16 OFFCURVE",
"493 -16 CURVE SMOOTH",
"633 -16 OFFCURVE",
"797 29 OFFCURVE",
"885 86 CURVE",
"823 244 LINE",
"744 225 OFFCURVE",
"652 215 OFFCURVE",
"549 215 CURVE SMOOTH",
"417 215 OFFCURVE",
"346 289 OFFCURVE",
"346 508 CURVE SMOOTH",
"346 723 OFFCURVE",
"409 831 OFFCURVE",
"534 831 CURVE SMOOTH"
);
}
);
width = 921;
}
);
note = c;
unicode = 0063;
},
{
glyphname = d;
lastChange = "2021-05-07 10:51:04 +0000";
layers = (
{
layerId = "5714BDDB-2CB7-459F-823B-ADD058C725FB";
paths = (
{
closed = 1;
nodes = (
"595 1265 OFFCURVE",
"641 1240 OFFCURVE",
"704 1223 CURVE",
"704 1020 LINE",
"647 1033 OFFCURVE",
"589 1040 OFFCURVE",
"532 1040 CURVE SMOOTH",
"403 1040 OFFCURVE",
"294 1003 OFFCURVE",
"205 930 CURVE SMOOTH",
"104 847 OFFCURVE",
"53 702 OFFCURVE",
"53 496 CURVE SMOOTH",
"53 132 OFFCURVE",
"178 -16 OFFCURVE",
"473 -16 CURVE SMOOTH",
"565 -16 OFFCURVE",
"671 23 OFFCURVE",
"731 72 CURVE",
"734 39 OFFCURVE",
"765 -3 OFFCURVE",
"792 -16 CURVE",
"918 -16 OFFCURVE",
"1022 6 OFFCURVE",
"1104 49 CURVE",
"1104 211 LINE",
"1069 228 OFFCURVE",
"1032 239 OFFCURVE",
"991 246 CURVE",
"991 1475 LINE",
"940 1479 OFFCURVE",
"880 1481 OFFCURVE",
"809 1481 CURVE SMOOTH",
"738 1481 OFFCURVE",
"663 1472 OFFCURVE",
"585 1454 CURVE",
"565 1296 LINE"
);
},
{
closed = 1;
nodes = (
"401 193 OFFCURVE",
"348 281 OFFCURVE",
"348 501 CURVE SMOOTH",
"348 611 OFFCURVE",
"362 694 OFFCURVE",
"390 749 CURVE SMOOTH",
"418 804 OFFCURVE",
"463 831 OFFCURVE",
"526 831 CURVE SMOOTH",
"589 831 OFFCURVE",
"648 824 OFFCURVE",
"704 811 CURVE",
"704 262 LINE",
"657 216 OFFCURVE",
"594 193 OFFCURVE",
"516 193 CURVE SMOOTH"
);
}
);
width = 1136;
}
);
note = d;
unicode = 0064;
},
{
glyphname = e;
lastChange = "2021-05-07 10:51:04 +0000";
layers = (
{
layerId = "5714BDDB-2CB7-459F-823B-ADD058C725FB";
paths = (
{
closed = 1;
nodes = (
"705 -16 OFFCURVE",
"848 48 OFFCURVE",
"880 77 CURVE SMOOTH",
"895 91 OFFCURVE",
"907 103 OFFCURVE",
"915 113 CURVE",
"854 276 LINE",
"825 260 LINE SMOOTH",
"786 239 OFFCURVE",
"692 211 OFFCURVE",
"600 211 CURVE SMOOTH",
"431 211 OFFCURVE",
"359 274 OFFCURVE",
"348 446 CURVE",
"792 446 LINE SMOOTH",
"889 446 OFFCURVE",
"938 495 OFFCURVE",
"938 594 CURVE SMOOTH",
"938 930 OFFCURVE",
"799 1040 OFFCURVE",
"545 1040 CURVE SMOOTH",
"418 1040 OFFCURVE",
"306 1002 OFFCURVE",
"211 926 CURVE SMOOTH",
"112 846 OFFCURVE",
"51 697 OFFCURVE",
"51 496 CURVE SMOOTH",
"51 163 OFFCURVE",
"217 -16 OFFCURVE",
"545 -16 CURVE SMOOTH"
);
},
{
closed = 1;
nodes = (
"369 772 OFFCURVE",
"423 831 OFFCURVE",
"531 831 CURVE SMOOTH",
"585 831 OFFCURVE",
"623 816 OFFCURVE",
"645 785 CURVE SMOOTH",
"667 754 OFFCURVE",
"678 725 OFFCURVE",
"678 698 CURVE SMOOTH",
"678 671 OFFCURVE",
"677 648 OFFCURVE",
"674 629 CURVE",
"350 616 LINE"
);
}
);
width = 989;
}
);
note = e;
unicode = 0065;
},
{
glyphname = f;
lastChange = "2021-05-07 10:51:04 +0000";
layers = (
{
layerId = "5714BDDB-2CB7-459F-823B-ADD058C725FB";
paths = (
{
closed = 1;
nodes = (
"121 1001 OFFCURVE",
"83 985 OFFCURVE",
"53 958 CURVE",
"76 817 LINE",
"166 817 LINE",
"166 227 LINE",
"110 207 OFFCURVE",
"72 184 OFFCURVE",
"53 158 CURVE",
"73 0 LINE",
"641 0 LINE",
"661 158 LINE",
"624 191 OFFCURVE",
"555 217 OFFCURVE",
"452 238 CURVE",
"452 817 LINE",
"766 817 LINE",
"766 1006 LINE",
"452 1006 LINE",
"452 1083 LINE SMOOTH",
"452 1234 OFFCURVE",
"492 1282 OFFCURVE",
"596 1282 CURVE SMOOTH",
"607 1282 OFFCURVE",
"620 1281 OFFCURVE",
"637 1278 CURVE",
"638 1237 OFFCURVE",
"651 1194 OFFCURVE",
"676 1147 CURVE",
"848 1147 LINE",
"880 1199 OFFCURVE",
"901 1304 OFFCURVE",
"901 1341 CURVE SMOOTH",
"901 1359 OFFCURVE",
"900 1373 OFFCURVE",
"899 1382 CURVE",
"709 1522 OFFCURVE",
"385 1531 OFFCURVE",
"258 1384 CURVE SMOOTH",
"197 1312 OFFCURVE",
"166 1205 OFFCURVE",
"166 1063 CURVE SMOOTH",
"166 1006 LINE"
);
}
);
width = 782;
}
);
note = f;
unicode = 0066;
},
{
glyphname = g;
lastChange = "2021-05-07 10:51:04 +0000";
layers = (
{
layerId = "5714BDDB-2CB7-459F-823B-ADD058C725FB";
paths = (
{
closed = 1;
nodes = (
"459 -217 OFFCURVE",
"400 -207 OFFCURVE",
"348 -186 CURVE",
"341 -139 OFFCURVE",
"330 -101 OFFCURVE",
"315 -72 CURVE",
"135 -72 LINE",
"100 -141 OFFCURVE",
"82 -214 OFFCURVE",
"82 -289 CURVE SMOOTH",
"82 -301 OFFCURVE",
"83 -313 OFFCURVE",
"84 -326 CURVE",
"173 -383 OFFCURVE",
"372 -426 OFFCURVE",
"536 -426 CURVE SMOOTH",
"848 -426 OFFCURVE",
"993 -284 OFFCURVE",
"993 16 CURVE SMOOTH",
"993 1024 LINE",
"825 1024 LINE SMOOTH",
"798 1024 OFFCURVE",
"777 1012 OFFCURVE",
"764 987 CURVE",
"693 1022 OFFCURVE",
"616 1040 OFFCURVE",
"534 1040 CURVE SMOOTH",
"215 1040 OFFCURVE",
"55 866 OFFCURVE",
"55 518 CURVE SMOOTH",
"55 169 OFFCURVE",
"198 31 OFFCURVE",
"454 31 CURVE SMOOTH",
"555 31 OFFCURVE",
"639 51 OFFCURVE",
"706 92 CURVE",
"706 2 LINE SMOOTH",
"706 -144 OFFCURVE",
"645 -217 OFFCURVE",
"524 -217 CURVE SMOOTH"
);
},
{
closed = 1;
nodes = (
"338 731 OFFCURVE",
"401 831 OFFCURVE",
"528 831 CURVE SMOOTH",
"592 831 OFFCURVE",
"651 820 OFFCURVE",
"706 797 CURVE",
"706 311 LINE",
"601 238 OFFCURVE",
"437 231 OFFCURVE",
"380 316 CURVE SMOOTH",
"352 357 OFFCURVE",
"338 428 OFFCURVE",
"338 530 CURVE SMOOTH"
);
}
);
width = 1095;
}
);
note = g;
unicode = 0067;
},
{
glyphname = h;
lastChange = "2021-05-07 10:51:04 +0000";
layers = (
{
layerId = "5714BDDB-2CB7-459F-823B-ADD058C725FB";
paths = (
{
closed = 1;
nodes = (
"55 1266 OFFCURVE",
"93 1243 OFFCURVE",
"141 1227 CURVE",
"141 227 LINE",
"85 207 OFFCURVE",
"47 184 OFFCURVE",
"28 158 CURVE",
"48 0 LINE",
"520 0 LINE",
"540 158 LINE",
"518 184 OFFCURVE",
"480 207 OFFCURVE",
"427 227 CURVE",
"427 754 LINE",
"530 830 OFFCURVE",
"684 840 OFFCURVE",
"740 781 CURVE SMOOTH",
"764 756 OFFCURVE",
"776 706 OFFCURVE",
"776 633 CURVE SMOOTH",
"776 227 LINE",
"720 207 OFFCURVE",
"682 184 OFFCURVE",
"663 158 CURVE",
"683 0 LINE",
"1154 0 LINE",
"1175 158 LINE",
"1153 184 OFFCURVE",
"1115 207 OFFCURVE",
"1062 227 CURVE",
"1062 643 LINE SMOOTH",
"1062 911 OFFCURVE",
"975 1040 OFFCURVE",
"704 1040 CURVE SMOOTH",
"619 1040 OFFCURVE",
"494 1006 OFFCURVE",
"427 963 CURVE",
"427 1475 LINE",
"382 1479 OFFCURVE",
"327 1481 OFFCURVE",
"262 1481 CURVE SMOOTH",
"196 1481 OFFCURVE",
"125 1472 OFFCURVE",
"48 1454 CURVE",
"28 1296 LINE"
);
}
);
width = 1193;
}
);
note = h;
unicode = 0068;
},
{
glyphname = i;
lastChange = "2021-05-07 10:51:04 +0000";
layers = (
{
layerId = "5714BDDB-2CB7-459F-823B-ADD058C725FB";
paths = (
{
closed = 1;
nodes = (
"84 836 OFFCURVE",
"122 813 OFFCURVE",
"170 797 CURVE",
"170 227 LINE",
"114 207 OFFCURVE",
"76 184 OFFCURVE",
"57 158 CURVE",
"77 0 LINE",
"549 0 LINE",
"569 158 LINE",
"547 184 OFFCURVE",
"509 207 OFFCURVE",
"456 227 CURVE",
"456 1044 LINE",
"411 1049 OFFCURVE",
"356 1051 OFFCURVE",
"291 1051 CURVE SMOOTH",
"225 1051 OFFCURVE",
"154 1042 OFFCURVE",
"77 1024 CURVE",
"57 866 LINE"
);
}
);
width = 598;
}
);
note = i;
unicode = 0069;
},
{
glyphname = j;
lastChange = "2021-05-07 10:51:04 +0000";
layers = (
{
layerId = "5714BDDB-2CB7-459F-823B-ADD058C725FB";
paths = (
{
closed = 1;
nodes = (
"58 836 OFFCURVE",
"96 813 OFFCURVE",
"144 797 CURVE",
"144 -18 LINE SMOOTH",
"144 -169 OFFCURVE",
"100 -217 OFFCURVE",
"24 -217 CURVE SMOOTH",
"-15 -217 OFFCURVE",
"-39 -216 OFFCURVE",
"-48 -215 CURVE",
"-73 -416 LINE",
"-36 -423 OFFCURVE",
"3 -426 OFFCURVE",
"44 -426 CURVE SMOOTH",
"323 -426 OFFCURVE",
"431 -317 OFFCURVE",
"431 0 CURVE SMOOTH",
"431 1044 LINE",
"386 1049 OFFCURVE",
"330 1051 OFFCURVE",
"265 1051 CURVE SMOOTH",
"200 1051 OFFCURVE",
"129 1042 OFFCURVE",
"52 1024 CURVE",
"31 866 LINE"
);
}
);
width = 532;
}
);
note = j;
unicode = 006A;
},
{
glyphname = k;
lastChange = "2021-05-07 10:51:04 +0000";
layers = (
{
layerId = "5714BDDB-2CB7-459F-823B-ADD058C725FB";
paths = (
{
closed = 1;
nodes = (
"55 1266 OFFCURVE",
"93 1243 OFFCURVE",
"141 1227 CURVE",
"141 227 LINE",
"85 207 OFFCURVE",
"47 184 OFFCURVE",
"28 158 CURVE",
"48 0 LINE",
"520 0 LINE",
"540 158 LINE",
"518 184 OFFCURVE",
"480 207 OFFCURVE",
"427 227 CURVE",
"427 1475 LINE",
"382 1479 OFFCURVE",
"327 1481 OFFCURVE",
"262 1481 CURVE SMOOTH",
"196 1481 OFFCURVE",
"125 1472 OFFCURVE",
"48 1454 CURVE",
"28 1296 LINE"
);
},
{
closed = 1;
nodes = (
"1122 197 OFFCURVE",
"1063 227 OFFCURVE",
"978 246 CURVE",
"747 551 LINE",
"943 776 LINE",
"1026 798 OFFCURVE",
"1083 828 OFFCURVE",
"1113 866 CURVE",
"1093 1024 LINE",
"642 1024 LINE",
"622 866 LINE",
"631 851 OFFCURVE",
"648 837 OFFCURVE",
"671 823 CURVE",
"446 530 LINE",
"808 0 LINE",
"1136 0 LINE",
"1156 158 LINE"
);
}
);
width = 1161;
}
);
note = k;
unicode = 006B;
},
{
glyphname = l;
lastChange = "2021-05-07 10:51:04 +0000";
layers = (
{
layerId = "5714BDDB-2CB7-459F-823B-ADD058C725FB";
paths = (
{
closed = 1;
nodes = (
"55 1266 OFFCURVE",
"93 1243 OFFCURVE",
"141 1227 CURVE",
"141 227 LINE",
"85 207 OFFCURVE",
"47 184 OFFCURVE",
"28 158 CURVE",
"48 0 LINE",
"520 0 LINE",
"540 158 LINE",
"518 184 OFFCURVE",
"480 207 OFFCURVE",
"427 227 CURVE",
"427 1475 LINE",
"382 1479 OFFCURVE",
"327 1481 OFFCURVE",
"262 1481 CURVE SMOOTH",
"196 1481 OFFCURVE",
"125 1472 OFFCURVE",
"48 1454 CURVE",
"28 1296 LINE"
);
}
);
width = 571;
}
);
note = l;
unicode = 006C;
},
{
glyphname = m;
lastChange = "2021-05-07 10:51:04 +0000";
layers = (
{
layerId = "5714BDDB-2CB7-459F-823B-ADD058C725FB";
paths = (
{
closed = 1;
nodes = (
"80 836 OFFCURVE",
"118 813 OFFCURVE",
"166 797 CURVE",
"166 227 LINE",
"110 207 OFFCURVE",
"72 184 OFFCURVE",
"53 158 CURVE",
"73 0 LINE",
"545 0 LINE",
"565 158 LINE",
"543 184 OFFCURVE",
"505 207 OFFCURVE",
"452 227 CURVE",
"452 754 LINE",
"548 830 OFFCURVE",
"698 840 OFFCURVE",
"746 782 CURVE SMOOTH",
"766 757 OFFCURVE",
"776 708 OFFCURVE",
"776 633 CURVE SMOOTH",
"776 227 LINE",
"720 207 OFFCURVE",
"682 184 OFFCURVE",
"663 158 CURVE",
"684 0 LINE",
"1155 0 LINE",
"1175 158 LINE",
"1154 184 OFFCURVE",
"1116 207 OFFCURVE",
"1063 227 CURVE",
"1063 559 LINE SMOOTH",
"1063 641 OFFCURVE",
"1059 705 OFFCURVE",
"1052 752 CURVE",
"1148 830 OFFCURVE",
"1299 841 OFFCURVE",
"1348 782 CURVE SMOOTH",
"1368 757 OFFCURVE",
"1378 708 OFFCURVE",
"1378 633 CURVE SMOOTH",
"1378 227 LINE",
"1322 207 OFFCURVE",
"1284 184 OFFCURVE",
"1265 158 CURVE",
"1286 0 LINE",
"1757 0 LINE",
"1777 158 LINE",
"1756 184 OFFCURVE",
"1718 207 OFFCURVE",
"1665 227 CURVE",
"1665 559 LINE SMOOTH",
"1665 931 OFFCURVE",
"1584 1040 OFFCURVE",
"1284 1040 CURVE SMOOTH",
"1188 1040 OFFCURVE",
"1061 989 OFFCURVE",
"993 924 CURVE",
"941 1001 OFFCURVE",
"837 1040 OFFCURVE",
"682 1040 CURVE SMOOTH",
"602 1040 OFFCURVE",
"491 997 OFFCURVE",
"426 942 CURVE",
"426 1044 LINE",
"386 1047 OFFCURVE",
"336 1049 OFFCURVE",
"276 1049 CURVE SMOOTH",
"216 1049 OFFCURVE",
"148 1041 OFFCURVE",
"73 1024 CURVE",
"53 866 LINE"
);
}
);
width = 1794;
}
);
note = m;
unicode = 006D;
},
{
glyphname = n;
lastChange = "2021-05-07 10:51:04 +0000";
layers = (
{
layerId = "5714BDDB-2CB7-459F-823B-ADD058C725FB";
paths = (
{
closed = 1;
nodes = (
"80 836 OFFCURVE",
"118 813 OFFCURVE",
"166 797 CURVE",
"166 227 LINE",
"110 207 OFFCURVE",
"72 184 OFFCURVE",
"53 158 CURVE",
"73 0 LINE",
"545 0 LINE",
"565 158 LINE",
"543 184 OFFCURVE",
"505 207 OFFCURVE",
"452 227 CURVE",
"452 754 LINE",
"561 830 OFFCURVE",
"709 840 OFFCURVE",
"765 781 CURVE SMOOTH",
"789 756 OFFCURVE",
"801 706 OFFCURVE",
"801 633 CURVE SMOOTH",
"801 227 LINE",
"745 207 OFFCURVE",
"707 184 OFFCURVE",
"688 158 CURVE",
"708 0 LINE",
"1179 0 LINE",
"1200 158 LINE",
"1178 184 OFFCURVE",
"1140 207 OFFCURVE",
"1087 227 CURVE",
"1087 621 LINE SMOOTH",
"1087 929 OFFCURVE",
"992 1040 OFFCURVE",
"725 1040 CURVE SMOOTH",
"621 1040 OFFCURVE",
"494 999 OFFCURVE",
"426 942 CURVE",
"426 1044 LINE",
"386 1047 OFFCURVE",
"336 1049 OFFCURVE",
"276 1049 CURVE SMOOTH",
"216 1049 OFFCURVE",
"148 1041 OFFCURVE",
"73 1024 CURVE",
"53 866 LINE"
);
}
);
width = 1218;
}
);
note = n;
unicode = 006E;
},
{
glyphname = o;
lastChange = "2021-05-07 10:52:36 +0000";
layers = (
{
background = {
paths = (
{
closed = 1;
nodes = (
"1034 272 OFFCURVE",
"1034 795 OFFCURVE",
"799 1040 OFFCURVE",
"311 1040 OFFCURVE",
"51 764 OFFCURVE",
"51 242 OFFCURVE",
"284 -16 OFFCURVE",
"770 -16 OFFCURVE"
);
},
{
closed = 1;
nodes = (
"440 831 OFFCURVE",
"538 831 QCURVE SMOOTH",
"739 831 OFFCURVE",
"739 512 QCURVE SMOOTH",
"739 342 OFFCURVE",
"643 193 OFFCURVE",
"543 193 QCURVE SMOOTH",
"346 193 OFFCURVE",
"346 520 QCURVE SMOOTH",
"346 690 OFFCURVE"
);
},
{
closed = 0;
nodes = (
"528 -15 LINE"
);
}
);
};
layerId = "5714BDDB-2CB7-459F-823B-ADD058C725FB";
paths = (
{
closed = 1;
nodes = (
"346 747 OFFCURVE",
"407 831 OFFCURVE",
"538 831 CURVE SMOOTH",
"672 831 OFFCURVE",
"739 725 OFFCURVE",
"739 512 CURVE SMOOTH",
"739 285 OFFCURVE",
"676 193 OFFCURVE",
"543 193 CURVE SMOOTH",
"412 193 OFFCURVE",
"346 302 OFFCURVE",
"346 520 CURVE SMOOTH"
);
},
{
closed = 1;
nodes = (
"1036 893 OFFCURVE",
"874 1040 OFFCURVE",
"554 1040 CURVE SMOOTH",
"241 1040 OFFCURVE",
"48 859 OFFCURVE",
"48 515 CURVE SMOOTH",
"48 132 OFFCURVE",
"217 -15 OFFCURVE",
"521 -15 CURVE SMOOTH",
"813 -15 OFFCURVE",
"1036 136 OFFCURVE",
"1036 537 CURVE SMOOTH"
);
}
);
width = 1085;
}
);
note = o;
unicode = 006F;
},
{
glyphname = p;
lastChange = "2021-05-07 10:51:04 +0000";
layers = (
{
layerId = "5714BDDB-2CB7-459F-823B-ADD058C725FB";
paths = (
{
closed = 1;
nodes = (
"57 836 OFFCURVE",
"95 813 OFFCURVE",
"143 797 CURVE",
"143 -182 LINE",
"86 -204 OFFCURVE",
"48 -227 OFFCURVE",
"30 -252 CURVE",
"50 -410 LINE",
"565 -410 LINE",
"585 -252 LINE",
"562 -223 OFFCURVE",
"510 -198 OFFCURVE",
"429 -176 CURVE",
"429 0 LINE",
"480 -11 OFFCURVE",
"533 -16 OFFCURVE",
"589 -16 CURVE SMOOTH",
"719 -16 OFFCURVE",
"831 25 OFFCURVE",
"925 106 CURVE SMOOTH",
"1024 189 OFFCURVE",
"1085 340 OFFCURVE",
"1085 535 CURVE SMOOTH",
"1085 898 OFFCURVE",
"968 1040 OFFCURVE",
"696 1040 CURVE SMOOTH",
"592 1040 OFFCURVE",
"494 1008 OFFCURVE",
"403 944 CURVE",
"403 1044 LINE",
"363 1047 OFFCURVE",
"313 1049 OFFCURVE",
"253 1049 CURVE SMOOTH",
"193 1049 OFFCURVE",
"125 1041 OFFCURVE",
"50 1024 CURVE",
"30 866 LINE"
);
},
{
closed = 1;
nodes = (
"518 193 OFFCURVE",
"472 198 OFFCURVE",
"429 209 CURVE",
"429 754 LINE",
"481 795 OFFCURVE",
"551 815 OFFCURVE",
"638 815 CURVE SMOOTH",
"753 815 OFFCURVE",
"790 750 OFFCURVE",
"790 536 CURVE SMOOTH",
"790 322 OFFCURVE",
"705 193 OFFCURVE",
"569 193 CURVE SMOOTH"
);
}
);
width = 1138;
}
);
note = p;
unicode = 0070;
},
{
glyphname = q;
lastChange = "2021-05-07 10:51:04 +0000";
layers = (
{
layerId = "5714BDDB-2CB7-459F-823B-ADD058C725FB";
paths = (
{
closed = 1;
nodes = (
"808 1024 OFFCURVE",
"779 1014 OFFCURVE",
"749 993 CURVE",
"680 1024 OFFCURVE",
"607 1040 OFFCURVE",
"532 1040 CURVE SMOOTH",
"403 1040 OFFCURVE",
"294 1003 OFFCURVE",
"205 930 CURVE SMOOTH",
"104 847 OFFCURVE",
"53 702 OFFCURVE",
"53 496 CURVE SMOOTH",
"53 129 OFFCURVE",
"178 -16 OFFCURVE",
"481 -16 CURVE SMOOTH",
"554 -16 OFFCURVE",
"628 9 OFFCURVE",
"704 59 CURVE",
"704 -172 LINE",
"635 -193 OFFCURVE",
"587 -219 OFFCURVE",
"561 -252 CURVE",
"581 -410 LINE",
"1057 -410 LINE",
"1077 -252 LINE",
"1059 -230 OFFCURVE",
"1030 -210 OFFCURVE",
"991 -193 CURVE",
"991 1024 LINE",
"835 1024 LINE SMOOTH"
);
},
{
closed = 1;
nodes = (
"600 172 OFFCURVE",
"446 165 OFFCURVE",
"389 265 CURVE SMOOTH",
"362 312 OFFCURVE",
"348 391 OFFCURVE",
"348 501 CURVE SMOOTH",
"348 721 OFFCURVE",
"400 831 OFFCURVE",
"527 831 CURVE SMOOTH",
"590 831 OFFCURVE",
"649 820 OFFCURVE",
"704 797 CURVE",
"704 270 LINE"
);
}
);
width = 1093;
}
);
note = q;
unicode = 0071;
},
{
glyphname = r;
lastChange = "2021-05-07 10:51:04 +0000";
layers = (
{
layerId = "5714BDDB-2CB7-459F-823B-ADD058C725FB";
paths = (
{
closed = 1;
nodes = (
"700 772 OFFCURVE",
"731 770 OFFCURVE",
"758 766 CURVE",
"764 1032 LINE",
"723 1050 OFFCURVE",
"629 1046 OFFCURVE",
"547 1007 CURVE SMOOTH",
"498 983 OFFCURVE",
"457 952 OFFCURVE",
"426 915 CURVE",
"426 1044 LINE",
"386 1047 OFFCURVE",
"336 1049 OFFCURVE",
"276 1049 CURVE SMOOTH",
"216 1049 OFFCURVE",
"148 1041 OFFCURVE",
"73 1024 CURVE",
"53 866 LINE",
"80 836 OFFCURVE",
"118 813 OFFCURVE",
"166 797 CURVE",
"166 227 LINE",
"110 207 OFFCURVE",
"72 184 OFFCURVE",
"53 158 CURVE",
"73 0 LINE",
"659 0 LINE",
"680 158 LINE",
"639 195 OFFCURVE",
"563 223 OFFCURVE",
"452 244 CURVE",
"452 713 LINE",
"492 752 OFFCURVE",
"564 772 OFFCURVE",
"667 772 CURVE SMOOTH"
);
}
);
width = 794;
}
);
note = r;
unicode = 0072;
},
{
glyphname = s;
lastChange = "2021-05-07 10:51:04 +0000";
layers = (
{
layerId = "5714BDDB-2CB7-459F-823B-ADD058C725FB";
paths = (
{
closed = 1;
nodes = (
"501 856 OFFCURVE",
"539 851 OFFCURVE",
"577 842 CURVE",
"582 808 OFFCURVE",
"594 775 OFFCURVE",
"612 743 CURVE",
"780 743 LINE",
"810 804 OFFCURVE",
"825 869 OFFCURVE",
"825 940 CURVE SMOOTH",
"825 954 OFFCURVE",
"824 968 OFFCURVE",
"823 981 CURVE",
"637 1060 OFFCURVE",
"317 1069 OFFCURVE",
"172 954 CURVE SMOOTH",
"99 897 OFFCURVE",
"63 823 OFFCURVE",
"63 734 CURVE SMOOTH",
"63 555 OFFCURVE",
"160 475 OFFCURVE",
"327 428 CURVE SMOOTH",
"489 381 LINE SMOOTH",
"537 367 OFFCURVE",
"569 353 OFFCURVE",
"586 339 CURVE SMOOTH",
"602 324 OFFCURVE",
"610 306 OFFCURVE",
"610 285 CURVE SMOOTH",
"610 216 OFFCURVE",
"550 182 OFFCURVE",
"430 182 CURVE SMOOTH",
"379 182 OFFCURVE",
"340 186 OFFCURVE",
"313 195 CURVE",
"308 230 OFFCURVE",
"296 264 OFFCURVE",
"278 297 CURVE",
"108 297 LINE",
"78 237 OFFCURVE",
"63 169 OFFCURVE",
"63 94 CURVE SMOOTH",
"63 79 OFFCURVE",
"64 64 OFFCURVE",
"65 49 CURVE",
"244 -40 OFFCURVE",
"630 -47 OFFCURVE",
"773 81 CURVE SMOOTH",
"844 146 OFFCURVE",
"880 229 OFFCURVE",
"880 332 CURVE SMOOTH",
"880 481 OFFCURVE",
"797 577 OFFCURVE",
"630 621 CURVE SMOOTH",
"469 664 LINE SMOOTH",
"374 688 OFFCURVE",
"327 725 OFFCURVE",
"327 776 CURVE SMOOTH",
"327 829 OFFCURVE",
"372 856 OFFCURVE",
"462 856 CURVE SMOOTH"
);
}
);
width = 923;
}
);
note = s;
unicode = 0073;
},
{
glyphname = t;
lastChange = "2021-05-07 10:51:04 +0000";
layers = (
{
layerId = "5714BDDB-2CB7-459F-823B-ADD058C725FB";
paths = (
{
closed = 1;
nodes = (
"215 1243 OFFCURVE",
"176 1167 OFFCURVE",
"159 1055 CURVE",
"91 1029 OFFCURVE",
"46 1003 OFFCURVE",
"24 977 CURVE",
"47 852 LINE",
"139 852 LINE",
"139 276 LINE SMOOTH",
"139 96 OFFCURVE",
"200 0 OFFCURVE",
"420 0 CURVE SMOOTH",
"530 0 OFFCURVE",
"638 27 OFFCURVE",
"743 80 CURVE",
"681 240 LINE",
"589 204 OFFCURVE",
"471 195 OFFCURVE",
"444 239 CURVE SMOOTH",
"431 258 OFFCURVE",
"425 290 OFFCURVE",
"425 334 CURVE SMOOTH",
"425 852 LINE",
"718 852 LINE",
"718 1024 LINE",
"425 1024 LINE",
"425 1282 LINE",
"276 1282 LINE"
);
}
);
width = 761;
}
);
note = t;
unicode = 0074;
},
{
glyphname = u;
lastChange = "2021-05-07 10:51:04 +0000";
layers = (
{
layerId = "5714BDDB-2CB7-459F-823B-ADD058C725FB";
paths = (
{
closed = 1;
nodes = (
"811 42 OFFCURVE",
"830 8 OFFCURVE",
"864 -16 CURVE",
"988 -16 OFFCURVE",
"1091 6 OFFCURVE",
"1173 49 CURVE",
"1173 211 LINE",
"1146 224 OFFCURVE",
"1108 236 OFFCURVE",
"1060 246 CURVE",
"1060 1044 LINE",
"1015 1049 OFFCURVE",
"960 1051 OFFCURVE",
"895 1051 CURVE SMOOTH",
"829 1051 OFFCURVE",
"758 1042 OFFCURVE",
"682 1024 CURVE",
"661 866 LINE",
"688 836 OFFCURVE",
"726 813 OFFCURVE",
"774 797 CURVE",
"774 274 LINE",
"672 197 OFFCURVE",
"507 188 OFFCURVE",
"453 245 CURVE SMOOTH",
"430 269 OFFCURVE",
"419 318 OFFCURVE",
"419 391 CURVE SMOOTH",
"419 1044 LINE",
"374 1049 OFFCURVE",
"319 1051 OFFCURVE",
"254 1051 CURVE SMOOTH",
"188 1051 OFFCURVE",
"117 1042 OFFCURVE",
"40 1024 CURVE",
"20 866 LINE",
"47 836 OFFCURVE",
"85 813 OFFCURVE",
"133 797 CURVE",
"133 324 LINE SMOOTH",
"133 83 OFFCURVE",
"220 -16 OFFCURVE",
"476 -16 CURVE SMOOTH",
"603 -16 OFFCURVE",
"714 18 OFFCURVE",
"808 86 CURVE"
);
}
);
width = 1204;
}
);
note = u;
unicode = 0075;
},
{
glyphname = v;
lastChange = "2021-05-07 10:51:04 +0000";
layers = (
{
layerId = "5714BDDB-2CB7-459F-823B-ADD058C725FB";
paths = (
{
closed = 1;
nodes = (
"1116 808 OFFCURVE",
"1161 835 OFFCURVE",
"1185 866 CURVE",
"1165 1024 LINE",
"714 1024 LINE",
"694 866 LINE",
"715 839 OFFCURVE",
"750 816 OFFCURVE",
"800 797 CURVE",
"692 494 LINE SMOOTH",
"665 419 OFFCURVE",
"646 347 OFFCURVE",
"635 279 CURVE",
"606 279 LINE",
"602 307 LINE SMOOTH",
"591 370 OFFCURVE",
"573 433 OFFCURVE",
"549 498 CURVE SMOOTH",
"438 807 LINE",
"479 825 OFFCURVE",
"508 845 OFFCURVE",
"526 866 CURVE",
"506 1024 LINE",
"34 1024 LINE",
"14 866 LINE",
"37 835 OFFCURVE",
"83 808 OFFCURVE",
"151 786 CURVE",
"487 -12 LINE",
"712 -12 LINE",
"1050 786 LINE"
);
}
);
width = 1200;
}
);
note = v;
unicode = 0076;
},
{
glyphname = w;
lastChange = "2021-05-07 10:51:04 +0000";
layers = (
{
layerId = "5714BDDB-2CB7-459F-823B-ADD058C725FB";
paths = (
{
closed = 1;
nodes = (
"1605 809 OFFCURVE",
"1648 835 OFFCURVE",
"1671 866 CURVE",
"1651 1024 LINE",
"1196 1024 LINE",
"1176 866 LINE",
"1196 839 OFFCURVE",
"1237 814 OFFCURVE",
"1298 793 CURVE",
"1286 735 LINE SMOOTH",
"1268 656 OFFCURVE",
"1234 501 OFFCURVE",
"1184 270 CURVE",
"1155 270 LINE",
"1104 498 LINE",
"967 1020 LINE",
"737 1020 LINE",
"598 494 LINE SMOOTH",
"577 417 OFFCURVE",
"560 343 OFFCURVE",
"545 270 CURVE",
"516 270 LINE",
"397 793 LINE",
"456 813 OFFCURVE",
"497 837 OFFCURVE",
"522 866 CURVE",
"502 1024 LINE",
"22 1024 LINE",
"2 866 LINE",
"24 837 OFFCURVE",
"64 813 OFFCURVE",
"123 793 CURVE",
"381 -12 LINE",
"672 -12 LINE",
"768 313 LINE SMOOTH",
"795 402 OFFCURVE",
"816 499 OFFCURVE",
"829 606 CURVE",
"858 606 LINE",
"864 557 LINE SMOOTH",
"877 459 OFFCURVE",
"894 377 OFFCURVE",
"915 311 CURVE SMOOTH",
"1020 -12 LINE",
"1286 -12 LINE",
"1542 788 LINE"
);
}
);
width = 1667;
}
);
note = w;
unicode = 0077;
},
{
glyphname = x;
lastChange = "2021-05-07 10:51:04 +0000";
layers = (
{
layerId = "5714BDDB-2CB7-459F-823B-ADD058C725FB";
paths = (
{
closed = 1;
nodes = (
"560 669 OFFCURVE",
"540 713 OFFCURVE",
"513 754 CURVE SMOOTH",
"470 815 LINE",
"497 828 OFFCURVE",
"521 845 OFFCURVE",
"540 866 CURVE",
"520 1024 LINE",
"49 1024 LINE",
"28 866 LINE",
"57 829 OFFCURVE",
"112 800 OFFCURVE",
"194 778 CURVE",
"374 526 LINE",
"180 242 LINE",
"103 220 OFFCURVE",
"52 192 OFFCURVE",
"26 158 CURVE",
"46 0 LINE",
"497 0 LINE",
"518 158 LINE",
"501 179 OFFCURVE",
"470 200 OFFCURVE",
"423 221 CURVE",
"472 299 LINE SMOOTH",
"499 343 OFFCURVE",
"519 389 OFFCURVE",
"532 436 CURVE",
"561 436 LINE",
"567 416 LINE SMOOTH",
"579 373 OFFCURVE",
"597 333 OFFCURVE",
"620 295 CURVE SMOOTH",
"671 211 LINE",
"634 193 OFFCURVE",
"609 175 OFFCURVE",
"595 158 CURVE",
"616 0 LINE",
"1087 0 LINE",
"1107 158 LINE",
"1078 193 OFFCURVE",
"1027 221 OFFCURVE",
"952 242 CURVE",
"759 526 LINE",
"939 778 LINE",
"1022 800 OFFCURVE",
"1078 829 OFFCURVE",
"1105 866 CURVE",
"1085 1024 LINE",
"634 1024 LINE",
"614 866 LINE",
"630 845 OFFCURVE",
"658 825 OFFCURVE",
"698 807 CURVE",
"661 750 LINE SMOOTH",
"631 702 OFFCURVE",
"611 660 OFFCURVE",
"601 623 CURVE",
"573 623 LINE"
);
}
);
width = 1134;
}
);
note = x;
unicode = 0078;
},
{
glyphname = y;
lastChange = "2021-05-07 10:51:04 +0000";
layers = (
{
layerId = "5714BDDB-2CB7-459F-823B-ADD058C725FB";
paths = (
{
closed = 1;
nodes = (
"298 -175 OFFCURVE",
"287 -125 OFFCURVE",
"266 -88 CURVE",
"96 -88 LINE",
"65 -155 OFFCURVE",
"49 -226 OFFCURVE",
"49 -301 CURVE SMOOTH",
"49 -315 OFFCURVE",
"50 -329 OFFCURVE",
"51 -342 CURVE",
"107 -398 OFFCURVE",
"189 -426 OFFCURVE",
"296 -426 CURVE SMOOTH",
"403 -426 OFFCURVE",
"487 -386 OFFCURVE",
"547 -305 CURVE SMOOTH",
"581 -262 OFFCURVE",
"630 -164 OFFCURVE",
"694 -12 CURVE SMOOTH",
"1032 786 LINE",
"1098 808 OFFCURVE",
"1143 835 OFFCURVE",
"1167 866 CURVE",
"1147 1024 LINE",
"696 1024 LINE",
"676 866 LINE",
"697 839 OFFCURVE",
"732 816 OFFCURVE",
"782 797 CURVE",
"674 494 LINE SMOOTH",
"647 419 OFFCURVE",
"628 347 OFFCURVE",
"617 279 CURVE",
"588 279 LINE",
"582 307 LINE SMOOTH",
"572 370 OFFCURVE",
"555 433 OFFCURVE",
"531 498 CURVE SMOOTH",
"418 807 LINE",
"460 825 OFFCURVE",
"490 845 OFFCURVE",
"508 866 CURVE",
"488 1024 LINE",
"16 1024 LINE",
"-4 866 LINE",
"19 836 OFFCURVE",
"64 810 OFFCURVE",
"131 788 CURVE",
"467 -6 LINE",
"446 -131 OFFCURVE",
"379 -238 OFFCURVE",
"330 -238 CURVE SMOOTH",
"301 -238 LINE"
);
}
);
width = 1163;
}
);
note = y;
unicode = 0079;
},
{
glyphname = z;
lastChange = "2021-05-07 10:51:04 +0000";
layers = (
{
layerId = "5714BDDB-2CB7-459F-823B-ADD058C725FB";
paths = (
{
closed = 1;
nodes = (
"267 734 OFFCURVE",
"289 768 OFFCURVE",
"309 815 CURVE",
"389 815 LINE SMOOTH",
"460 815 OFFCURVE",
"516 821 OFFCURVE",
"555 834 CURVE",
"565 811 LINE",
"522 776 OFFCURVE",
"481 733 OFFCURVE",
"444 684 CURVE SMOOTH",
"43 168 LINE",
"63 0 LINE",
"930 0 LINE",
"931 27 OFFCURVE",
"932 67 OFFCURVE",
"932 119 CURVE SMOOTH",
"932 171 OFFCURVE",
"924 231 OFFCURVE",
"909 299 CURVE",
"752 319 LINE",
"727 296 OFFCURVE",
"705 260 OFFCURVE",
"684 211 CURVE",
"571 211 LINE SMOOTH",
"500 211 OFFCURVE",
"445 205 OFFCURVE",
"405 193 CURVE",
"395 215 LINE",
"439 250 OFFCURVE",
"479 293 OFFCURVE",
"516 342 CURVE SMOOTH",
"915 852 LINE",
"895 1024 LINE",
"66 1024 LINE",
"64 998 OFFCURVE",
"63 960 OFFCURVE",
"63 911 CURVE SMOOTH",
"63 861 OFFCURVE",
"71 802 OFFCURVE",
"86 733 CURVE",
"244 713 LINE"
);
}
);
width = 980;
}
);
note = z;
unicode = 007A;
},
{
glyphname = uni1780;
lastChange = "2021-05-07 10:51:04 +0000";
layers = (
{
layerId = "5714BDDB-2CB7-459F-823B-ADD058C725FB";
paths = (
{
closed = 1;
nodes = (
"304 1142 OFFCURVE",
"257 1188 OFFCURVE",
"257 1223 CURVE SMOOTH",
"257 1266 OFFCURVE",
"287 1298 OFFCURVE",
"347 1298 CURVE SMOOTH",
"377 1298 OFFCURVE",
"419 1278 OFFCURVE",
"472 1239 CURVE SMOOTH",
"525 1199 OFFCURVE",
"584 1179 OFFCURVE",
"648 1179 CURVE SMOOTH",
"685 1179 OFFCURVE",
"721 1199 OFFCURVE",
"756 1239 CURVE SMOOTH",
"790 1278 OFFCURVE",
"819 1298 OFFCURVE",
"842 1298 CURVE SMOOTH",
"865 1298 OFFCURVE",
"901 1278 OFFCURVE",
"948 1239 CURVE SMOOTH",
"995 1199 OFFCURVE",
"1053 1179 OFFCURVE",
"1122 1179 CURVE SMOOTH",
"1191 1179 OFFCURVE",
"1251 1227 OFFCURVE",
"1300 1323 CURVE",
"1287 1318 OFFCURVE",
"1274 1316 OFFCURVE",
"1259 1316 CURVE SMOOTH",
"1195 1316 OFFCURVE",
"1115 1360 OFFCURVE",
"1018 1447 CURVE SMOOTH",
"979 1482 OFFCURVE",
"947 1500 OFFCURVE",
"922 1500 CURVE SMOOTH",
"897 1500 OFFCURVE",
"857 1477 OFFCURVE",
"802 1431 CURVE SMOOTH",
"747 1384 OFFCURVE",
"711 1361 OFFCURVE",
"694 1361 CURVE SMOOTH",
"675 1361 OFFCURVE",
"628 1384 OFFCURVE",
"553 1431 CURVE SMOOTH",
"479 1477 OFFCURVE",
"430 1500 OFFCURVE",
"407 1500 CURVE SMOOTH",
"384 1500 OFFCURVE",
"328 1464 OFFCURVE",
"237 1393 CURVE SMOOTH",
"168 1341 LINE SMOOTH",
"123 1306 OFFCURVE",
"100 1274 OFFCURVE",
"100 1244 CURVE SMOOTH",
"100 1209 LINE SMOOTH",
"100 1136 OFFCURVE",
"160 1083 OFFCURVE",
"281 1049 CURVE",
"397 1086 LINE"
);
},
{
closed = 1;
nodes = (
"450 964 OFFCURVE",
"567 1000 OFFCURVE",
"700 1000 CURVE SMOOTH",
"833 1000 OFFCURVE",
"950 964 OFFCURVE",
"950 857 CURVE SMOOTH",
"950 0 LINE",
"1200 0 LINE",
"1200 857 LINE SMOOTH",
"1200 1034 OFFCURVE",
"967 1100 OFFCURVE",
"700 1100 CURVE SMOOTH",
"433 1100 OFFCURVE",
"200 1034 OFFCURVE",
"200 857 CURVE SMOOTH",
"200 0 LINE",
"450 0 LINE",
"450 857 LINE SMOOTH"
);
}
);
width = 1400;
}
);
note = uni1780;
unicode = 1780;
},
{
glyphname = uni1781;
lastChange = "2021-05-07 10:51:04 +0000";
layers = (
{
layerId = "5714BDDB-2CB7-459F-823B-ADD058C725FB";
paths = (
{
closed = 1;
nodes = (
"200 977 OFFCURVE",
"307 890 OFFCURVE",
"520 890 CURVE SMOOTH",
"587 890 OFFCURVE",
"639 908 OFFCURVE",
"676 944 CURVE SMOOTH",
"702 969 OFFCURVE",
"715 998 OFFCURVE",
"715 1031 CURVE SMOOTH",
"715 1044 OFFCURVE",
"713 1058 OFFCURVE",
"708 1073 CURVE SMOOTH",
"695 1116 OFFCURVE",
"667 1137 OFFCURVE",
"624 1137 CURVE SMOOTH",
"617 1137 OFFCURVE",
"609 1136 OFFCURVE",
"600 1135 CURVE SMOOTH",
"547 1126 OFFCURVE",
"520 1095 OFFCURVE",
"520 1042 CURVE SMOOTH",
"520 1030 LINE",
"473 1030 OFFCURVE",
"450 1070 OFFCURVE",
"450 1150 CURVE SMOOTH",
"450 1317 OFFCURVE",
"533 1400 OFFCURVE",
"700 1400 CURVE SMOOTH",
"867 1400 OFFCURVE",
"950 1317 OFFCURVE",
"950 1150 CURVE SMOOTH",
"950 972 OFFCURVE",
"871 842 OFFCURVE",
"714 760 CURVE SMOOTH",
"427 616 LINE SMOOTH",
"276 541 OFFCURVE",
"200 453 OFFCURVE",
"200 350 CURVE SMOOTH",
"200 239 OFFCURVE",
"447 0 OFFCURVE",
"650 0 CURVE SMOOTH",
"723 0 OFFCURVE",
"817 33 OFFCURVE",
"933 98 CURVE SMOOTH",
"1124 205 OFFCURVE",
"1200 338 OFFCURVE",
"1200 510 CURVE SMOOTH",
"1200 685 LINE",
"950 531 LINE",
"950 242 OFFCURVE",
"773 130 OFFCURVE",
"680 130 CURVE SMOOTH",
"548 130 OFFCURVE",
"450 251 OFFCURVE",
"450 350 CURVE SMOOTH",
"450 418 OFFCURVE",
"468 462 OFFCURVE",
"503 483 CURVE",
"786 627 LINE SMOOTH",
"1062 764 OFFCURVE",
"1200 939 OFFCURVE",
"1200 1150 CURVE SMOOTH",
"1200 1383 OFFCURVE",
"1033 1500 OFFCURVE",
"700 1500 CURVE SMOOTH",
"367 1500 OFFCURVE",
"200 1383 OFFCURVE",
"200 1150 CURVE SMOOTH"
);
}
);
width = 1400;
}
);
note = uni1781;
unicode = 1781;
},
{
glyphname = uni1782;
lastChange = "2021-05-07 10:51:04 +0000";
layers = (
{
layerId = "5714BDDB-2CB7-459F-823B-ADD058C725FB";
paths = (
{
closed = 1;
nodes = (
"304 1142 OFFCURVE",
"257 1188 OFFCURVE",
"257 1223 CURVE SMOOTH",
"257 1266 OFFCURVE",
"287 1298 OFFCURVE",
"347 1298 CURVE SMOOTH",
"377 1298 OFFCURVE",
"419 1278 OFFCURVE",
"472 1239 CURVE SMOOTH",
"525 1199 OFFCURVE",
"584 1179 OFFCURVE",
"648 1179 CURVE SMOOTH",
"685 1179 OFFCURVE",
"721 1199 OFFCURVE",
"756 1239 CURVE SMOOTH",
"790 1278 OFFCURVE",
"819 1298 OFFCURVE",
"842 1298 CURVE SMOOTH",
"865 1298 OFFCURVE",
"901 1278 OFFCURVE",
"948 1239 CURVE SMOOTH",
"995 1199 OFFCURVE",
"1053 1179 OFFCURVE",
"1122 1179 CURVE SMOOTH",
"1191 1179 OFFCURVE",
"1251 1227 OFFCURVE",
"1300 1323 CURVE",
"1287 1318 OFFCURVE",
"1274 1316 OFFCURVE",
"1259 1316 CURVE SMOOTH",
"1195 1316 OFFCURVE",
"1115 1360 OFFCURVE",
"1018 1447 CURVE SMOOTH",
"979 1482 OFFCURVE",
"947 1500 OFFCURVE",
"922 1500 CURVE SMOOTH",
"897 1500 OFFCURVE",
"857 1477 OFFCURVE",
"802 1431 CURVE SMOOTH",
"747 1384 OFFCURVE",
"711 1361 OFFCURVE",
"694 1361 CURVE SMOOTH",
"675 1361 OFFCURVE",
"628 1384 OFFCURVE",
"553 1431 CURVE SMOOTH",
"479 1477 OFFCURVE",
"430 1500 OFFCURVE",
"407 1500 CURVE SMOOTH",
"384 1500 OFFCURVE",
"328 1464 OFFCURVE",
"237 1393 CURVE SMOOTH",
"168 1341 LINE SMOOTH",
"123 1306 OFFCURVE",
"100 1274 OFFCURVE",
"100 1244 CURVE SMOOTH",
"100 1209 LINE SMOOTH",
"100 1136 OFFCURVE",
"160 1083 OFFCURVE",
"281 1049 CURVE",
"397 1086 LINE"
);
},
{
closed = 1;
nodes = (
"450 964 OFFCURVE",
"567 1000 OFFCURVE",
"700 1000 CURVE SMOOTH",
"833 1000 OFFCURVE",
"950 964 OFFCURVE",
"950 857 CURVE SMOOTH",
"950 0 LINE",
"1200 0 LINE",
"1200 857 LINE SMOOTH",
"1200 1034 OFFCURVE",
"967 1100 OFFCURVE",
"700 1100 CURVE SMOOTH",
"433 1100 OFFCURVE",
"200 1034 OFFCURVE",
"200 857 CURVE SMOOTH",
"200 0 LINE",
"450 0 LINE",
"450 67 OFFCURVE",
"467 142 OFFCURVE",
"500 225 CURVE SMOOTH",
"533 308 OFFCURVE",
"573 350 OFFCURVE",
"620 350 CURVE SMOOTH",
"667 350 OFFCURVE",
"690 317 OFFCURVE",
"690 250 CURVE",
"763 250 OFFCURVE",
"800 292 OFFCURVE",
"800 375 CURVE SMOOTH",
"800 458 OFFCURVE",
"757 500 OFFCURVE",
"670 500 CURVE SMOOTH",
"587 500 OFFCURVE",
"514 459 OFFCURVE",
"450 378 CURVE",
"450 857 LINE SMOOTH"
);
}
);
width = 1400;
}
);
note = uni1782;
unicode = 1782;
},
{
glyphname = uni1783;
lastChange = "2021-05-07 10:51:04 +0000";
layers = (
{
layerId = "5714BDDB-2CB7-459F-823B-ADD058C725FB";
paths = (
{
closed = 1;
nodes = (
"1650 148 OFFCURVE",
"1575 100 OFFCURVE",
"1425 100 CURVE SMOOTH",
"1275 100 OFFCURVE",
"1200 148 OFFCURVE",
"1200 243 CURVE SMOOTH",
"1200 980 LINE SMOOTH",
"1200 1021 OFFCURVE",
"1152 1063 OFFCURVE",
"1055 1106 CURVE SMOOTH",
"909 1170 LINE",
"964 1253 LINE",
"1051 1206 OFFCURVE",
"1116 1182 OFFCURVE",
"1158 1182 CURVE SMOOTH",
"1162 1182 OFFCURVE",
"1166 1182 OFFCURVE",
"1170 1183 CURVE SMOOTH",
"1211 1188 OFFCURVE",
"1254 1256 OFFCURVE",
"1300 1386 CURVE",
"1295 1383 OFFCURVE",
"1288 1382 OFFCURVE",
"1279 1382 CURVE SMOOTH",
"1231 1382 OFFCURVE",
"1127 1421 OFFCURVE",
"967 1500 CURVE",
"783 1206 LINE",
"783 1073 LINE",
"894 1038 OFFCURVE",
"950 1001 OFFCURVE",
"950 963 CURVE SMOOTH",
"950 243 LINE SMOOTH",
"950 148 OFFCURVE",
"875 100 OFFCURVE",
"725 100 CURVE SMOOTH",
"575 100 OFFCURVE",
"500 148 OFFCURVE",
"500 243 CURVE SMOOTH",
"500 1300 LINE SMOOTH",
"500 1433 OFFCURVE",
"433 1500 OFFCURVE",
"300 1500 CURVE SMOOTH",
"167 1500 OFFCURVE",
"100 1417 OFFCURVE",
"100 1250 CURVE SMOOTH",
"100 1083 OFFCURVE",
"150 1000 OFFCURVE",
"250 1000 CURVE",
"250 243 LINE SMOOTH",
"250 81 OFFCURVE",
"408 0 OFFCURVE",
"725 0 CURVE SMOOTH",
"879 0 OFFCURVE",
"996 19 OFFCURVE",
"1075 58 CURVE",
"1154 19 OFFCURVE",
"1271 0 OFFCURVE",
"1425 0 CURVE SMOOTH",
"1742 0 OFFCURVE",
"1900 81 OFFCURVE",
"1900 243 CURVE SMOOTH",
"1900 980 LINE SMOOTH",
"1900 1021 OFFCURVE",
"1852 1063 OFFCURVE",
"1755 1106 CURVE SMOOTH",
"1609 1170 LINE",
"1664 1253 LINE",
"1751 1206 OFFCURVE",
"1816 1182 OFFCURVE",
"1858 1182 CURVE SMOOTH",
"1862 1182 OFFCURVE",
"1866 1182 OFFCURVE",
"1870 1183 CURVE SMOOTH",
"1911 1188 OFFCURVE",
"1954 1256 OFFCURVE",
"2000 1386 CURVE",
"1995 1383 OFFCURVE",
"1988 1382 OFFCURVE",
"1979 1382 CURVE SMOOTH",
"1931 1382 OFFCURVE",
"1827 1421 OFFCURVE",
"1667 1500 CURVE",
"1483 1206 LINE",
"1483 1073 LINE",
"1594 1038 OFFCURVE",
"1650 1001 OFFCURVE",
"1650 963 CURVE SMOOTH",
"1650 243 LINE SMOOTH"
);
},
{
closed = 1;
nodes = (
"200 1317 OFFCURVE",
"217 1350 OFFCURVE",
"250 1350 CURVE SMOOTH",
"283 1350 OFFCURVE",
"300 1317 OFFCURVE",
"300 1250 CURVE SMOOTH",
"300 1183 OFFCURVE",
"283 1150 OFFCURVE",
"250 1150 CURVE SMOOTH",
"217 1150 OFFCURVE",
"200 1183 OFFCURVE",
"200 1250 CURVE SMOOTH"
);
}
);
width = 2100;
}
);
note = uni1783;
unicode = 1783;
},
{
glyphname = uni1784;
lastChange = "2021-05-07 10:51:04 +0000";
layers = (
{
layerId = "5714BDDB-2CB7-459F-823B-ADD058C725FB";
paths = (
{
closed = 1;
nodes = (
"748 394 OFFCURVE",
"724 406 OFFCURVE",
"700 406 CURVE SMOOTH",
"677 406 OFFCURVE",
"653 394 OFFCURVE",
"630 371 CURVE SMOOTH",
"450 191 LINE",
"450 730 LINE SMOOTH",
"450 843 OFFCURVE",
"392 900 OFFCURVE",
"275 900 CURVE SMOOTH",
"158 900 OFFCURVE",
"100 850 OFFCURVE",
"100 750 CURVE SMOOTH",
"100 670 OFFCURVE",
"133 620 OFFCURVE",
"200 600 CURVE",
"200 100 LINE SMOOTH",
"200 33 OFFCURVE",
"242 0 OFFCURVE",
"325 0 CURVE SMOOTH",
"375 0 OFFCURVE",
"425 25 OFFCURVE",
"475 75 CURVE SMOOTH",
"700 300 LINE",
"925 75 LINE SMOOTH",
"975 25 OFFCURVE",
"1025 0 OFFCURVE",
"1075 0 CURVE SMOOTH",
"1158 0 OFFCURVE",
"1200 33 OFFCURVE",
"1200 100 CURVE SMOOTH",
"1200 900 LINE SMOOTH",
"1200 1009 OFFCURVE",
"1142 1092 OFFCURVE",
"1025 1150 CURVE SMOOTH",
"1010 1157 OFFCURVE",
"996 1165 OFFCURVE",
"982 1172 CURVE",
"1054 1219 OFFCURVE",
"1090 1269 OFFCURVE",
"1090 1320 CURVE SMOOTH",
"1090 1440 OFFCURVE",
"1017 1500 OFFCURVE",
"870 1500 CURVE SMOOTH",
"717 1500 OFFCURVE",
"640 1440 OFFCURVE",
"640 1320 CURVE SMOOTH",
"640 1269 OFFCURVE",
"688 1215 OFFCURVE",
"785 1156 CURVE",
"718 1119 OFFCURVE",
"663 1100 OFFCURVE",
"620 1100 CURVE SMOOTH",
"567 1100 OFFCURVE",
"525 1117 OFFCURVE",
"495 1151 CURVE SMOOTH",
"465 1184 OFFCURVE",
"450 1234 OFFCURVE",
"450 1300 CURVE SMOOTH",
"450 1353 OFFCURVE",
"458 1401 OFFCURVE",
"475 1443 CURVE SMOOTH",
"492 1484 OFFCURVE",
"500 1537 OFFCURVE",
"500 1600 CURVE SMOOTH",
"500 1733 OFFCURVE",
"427 1800 OFFCURVE",
"280 1800 CURVE SMOOTH",
"193 1800 OFFCURVE",
"150 1767 OFFCURVE",
"150 1700 CURVE",
"217 1700 OFFCURVE",
"250 1667 OFFCURVE",
"250 1600 CURVE SMOOTH",
"250 1547 OFFCURVE",
"242 1496 OFFCURVE",
"225 1448 CURVE SMOOTH",
"208 1399 OFFCURVE",
"200 1350 OFFCURVE",
"200 1300 CURVE SMOOTH",
"200 1092 OFFCURVE",
"356 1000 OFFCURVE",
"620 1000 CURVE SMOOTH",
"697 1000 OFFCURVE",
"783 1030 OFFCURVE",
"878 1089 CURVE",
"902 1073 OFFCURVE",
"920 1056 OFFCURVE",
"932 1037 CURVE SMOOTH",
"944 1018 OFFCURVE",
"950 972 OFFCURVE",
"950 900 CURVE SMOOTH",
"950 192 LINE",
"771 371 LINE SMOOTH"
);
},
{
closed = 1;
nodes = (
"910 1289 OFFCURVE",
"901 1259 OFFCURVE",
"883 1231 CURVE",
"848 1261 OFFCURVE",
"830 1291 OFFCURVE",
"830 1320 CURVE SMOOTH",
"830 1360 OFFCURVE",
"843 1380 OFFCURVE",
"870 1380 CURVE SMOOTH",
"897 1380 OFFCURVE",
"910 1360 OFFCURVE",
"910 1320 CURVE SMOOTH"
);
},
{
closed = 1;
nodes = (
"263 780 OFFCURVE",
"273 767 OFFCURVE",
"273 740 CURVE SMOOTH",
"273 713 OFFCURVE",
"263 700 OFFCURVE",
"242 700 CURVE SMOOTH",
"221 700 OFFCURVE",
"211 713 OFFCURVE",
"211 740 CURVE SMOOTH",
"211 767 OFFCURVE",
"221 780 OFFCURVE",
"242 780 CURVE SMOOTH"
);
}
);
width = 1400;
}
);
note = uni1784;
unicode = 1784;
},
{
glyphname = uni1785;
lastChange = "2021-05-07 10:51:04 +0000";
layers = (
{
layerId = "5714BDDB-2CB7-459F-823B-ADD058C725FB";
paths = (
{
closed = 1;
nodes = (
"950 136 OFFCURVE",
"833 100 OFFCURVE",
"700 100 CURVE SMOOTH",
"567 100 OFFCURVE",
"450 136 OFFCURVE",
"450 243 CURVE SMOOTH",
"450 1050 LINE",
"387 1086 LINE",
"300 1142 OFFCURVE",
"257 1188 OFFCURVE",
"257 1223 CURVE SMOOTH",
"257 1266 OFFCURVE",
"287 1298 OFFCURVE",
"347 1298 CURVE SMOOTH",
"377 1298 OFFCURVE",
"419 1278 OFFCURVE",
"472 1239 CURVE SMOOTH",
"525 1199 OFFCURVE",
"584 1179 OFFCURVE",
"648 1179 CURVE SMOOTH",
"685 1179 OFFCURVE",
"721 1199 OFFCURVE",
"756 1239 CURVE SMOOTH",
"790 1278 OFFCURVE",
"819 1298 OFFCURVE",
"842 1298 CURVE SMOOTH",
"865 1298 OFFCURVE",
"901 1278 OFFCURVE",
"948 1239 CURVE SMOOTH",
"995 1199 OFFCURVE",
"1053 1179 OFFCURVE",
"1122 1179 CURVE SMOOTH",
"1191 1179 OFFCURVE",
"1251 1227 OFFCURVE",
"1300 1323 CURVE",
"1287 1318 OFFCURVE",
"1274 1316 OFFCURVE",
"1259 1316 CURVE SMOOTH",
"1195 1316 OFFCURVE",
"1115 1360 OFFCURVE",
"1018 1447 CURVE SMOOTH",
"979 1482 OFFCURVE",
"947 1500 OFFCURVE",
"922 1500 CURVE SMOOTH",
"897 1500 OFFCURVE",
"857 1477 OFFCURVE",
"802 1431 CURVE SMOOTH",
"747 1384 OFFCURVE",
"711 1361 OFFCURVE",
"694 1361 CURVE SMOOTH",
"675 1361 OFFCURVE",
"628 1384 OFFCURVE",
"553 1431 CURVE SMOOTH",
"479 1477 OFFCURVE",
"430 1500 OFFCURVE",
"407 1500 CURVE SMOOTH",
"384 1500 OFFCURVE",
"328 1464 OFFCURVE",
"237 1393 CURVE SMOOTH",
"168 1341 LINE SMOOTH",
"123 1306 OFFCURVE",
"100 1274 OFFCURVE",
"100 1244 CURVE SMOOTH",
"100 1209 LINE SMOOTH",
"100 1155 OFFCURVE",
"133 1112 OFFCURVE",
"200 1079 CURVE",
"200 243 LINE SMOOTH",
"200 66 OFFCURVE",
"433 0 OFFCURVE",
"700 0 CURVE SMOOTH",
"967 0 OFFCURVE",
"1200 66 OFFCURVE",
"1200 243 CURVE SMOOTH",
"1200 900 LINE SMOOTH",
"1200 1027 OFFCURVE",
"1133 1090 OFFCURVE",
"1000 1090 CURVE SMOOTH",
"867 1090 OFFCURVE",
"800 1023 OFFCURVE",
"800 890 CURVE SMOOTH",
"800 777 OFFCURVE",
"850 720 OFFCURVE",
"950 720 CURVE",
"950 243 LINE SMOOTH"
);
},
{
closed = 1;
nodes = (
"917 820 OFFCURVE",
"900 843 OFFCURVE",
"900 890 CURVE SMOOTH",
"900 937 OFFCURVE",
"917 960 OFFCURVE",
"950 960 CURVE SMOOTH",
"983 960 OFFCURVE",
"1000 940 OFFCURVE",
"1000 900 CURVE SMOOTH",
"1000 847 OFFCURVE",
"983 820 OFFCURVE",
"950 820 CURVE SMOOTH"
);
}
);
width = 1400;
}
);
note = uni1785;
unicode = 1785;
},
{
glyphname = uni1786;
lastChange = "2021-05-07 10:51:04 +0000";
layers = (
{
layerId = "5714BDDB-2CB7-459F-823B-ADD058C725FB";
paths = (
{
closed = 1;
nodes = (
"150 500 OFFCURVE",
"100 417 OFFCURVE",
"100 250 CURVE SMOOTH",
"100 83 OFFCURVE",
"153 0 OFFCURVE",
"260 0 CURVE SMOOTH",
"420 0 OFFCURVE",
"500 67 OFFCURVE",
"500 200 CURVE SMOOTH",
"500 400 LINE",
"587 400 OFFCURVE",
"630 350 OFFCURVE",
"630 250 CURVE SMOOTH",
"630 83 OFFCURVE",
"720 0 OFFCURVE",
"900 0 CURVE SMOOTH",
"1133 0 OFFCURVE",
"1250 83 OFFCURVE",
"1250 250 CURVE SMOOTH",
"1250 900 LINE SMOOTH",
"1250 1027 OFFCURVE",
"1183 1090 OFFCURVE",
"1050 1090 CURVE SMOOTH",
"917 1090 OFFCURVE",
"850 1023 OFFCURVE",
"850 890 CURVE SMOOTH",
"850 777 OFFCURVE",
"900 720 OFFCURVE",
"1000 720 CURVE",
"1000 250 LINE SMOOTH",
"1000 150 OFFCURVE",
"967 100 OFFCURVE",
"900 100 CURVE SMOOTH",
"820 100 OFFCURVE",
"780 150 OFFCURVE",
"780 250 CURVE SMOOTH",
"780 417 OFFCURVE",
"687 500 OFFCURVE",
"500 500 CURVE",
"500 1050 LINE",
"437 1086 LINE",
"350 1142 OFFCURVE",
"307 1188 OFFCURVE",
"307 1223 CURVE SMOOTH",
"307 1266 OFFCURVE",
"337 1298 OFFCURVE",
"397 1298 CURVE SMOOTH",
"427 1298 OFFCURVE",
"469 1278 OFFCURVE",
"522 1239 CURVE SMOOTH",
"575 1199 OFFCURVE",
"634 1179 OFFCURVE",
"698 1179 CURVE SMOOTH",
"735 1179 OFFCURVE",
"771 1199 OFFCURVE",
"806 1239 CURVE SMOOTH",
"840 1278 OFFCURVE",
"869 1298 OFFCURVE",
"892 1298 CURVE SMOOTH",
"915 1298 OFFCURVE",
"951 1278 OFFCURVE",
"998 1239 CURVE SMOOTH",
"1045 1199 OFFCURVE",
"1103 1179 OFFCURVE",
"1172 1179 CURVE SMOOTH",
"1241 1179 OFFCURVE",
"1301 1227 OFFCURVE",
"1350 1323 CURVE",
"1337 1318 OFFCURVE",
"1324 1316 OFFCURVE",
"1309 1316 CURVE SMOOTH",
"1245 1316 OFFCURVE",
"1165 1360 OFFCURVE",
"1068 1447 CURVE SMOOTH",
"1029 1482 OFFCURVE",
"997 1500 OFFCURVE",
"972 1500 CURVE SMOOTH",
"947 1500 OFFCURVE",
"907 1477 OFFCURVE",
"852 1431 CURVE SMOOTH",
"797 1384 OFFCURVE",
"761 1361 OFFCURVE",
"744 1361 CURVE SMOOTH",
"725 1361 OFFCURVE",
"678 1384 OFFCURVE",
"603 1431 CURVE SMOOTH",
"529 1477 OFFCURVE",
"480 1500 OFFCURVE",
"457 1500 CURVE SMOOTH",
"434 1500 OFFCURVE",
"378 1464 OFFCURVE",
"287 1393 CURVE SMOOTH",
"218 1341 LINE SMOOTH",
"173 1306 OFFCURVE",
"150 1274 OFFCURVE",
"150 1244 CURVE SMOOTH",
"150 1209 LINE SMOOTH",
"150 1155 OFFCURVE",
"183 1112 OFFCURVE",
"250 1079 CURVE",
"250 500 LINE"
);
},
{
closed = 1;
nodes = (
"967 820 OFFCURVE",
"950 843 OFFCURVE",
"950 890 CURVE SMOOTH",
"950 937 OFFCURVE",
"967 960 OFFCURVE",
"1000 960 CURVE SMOOTH",
"1033 960 OFFCURVE",
"1050 940 OFFCURVE",
"1050 900 CURVE SMOOTH",
"1050 847 OFFCURVE",
"1033 820 OFFCURVE",
"1000 820 CURVE SMOOTH"
);
},
{
closed = 1;
nodes = (
"200 350 OFFCURVE",
"217 400 OFFCURVE",
"250 400 CURVE",
"250 240 LINE SMOOTH",
"250 193 OFFCURVE",
"242 170 OFFCURVE",
"225 170 CURVE SMOOTH",
"208 170 OFFCURVE",
"200 197 OFFCURVE",
"200 250 CURVE SMOOTH"
);
}
);
width = 1450;
}
);
note = uni1786;
unicode = 1786;
},
{
glyphname = uni1787;
lastChange = "2021-05-07 10:51:04 +0000";
layers = (
{
layerId = "5714BDDB-2CB7-459F-823B-ADD058C725FB";
paths = (
{
closed = 1;
nodes = (
"1158 1280 OFFCURVE",
"1200 1364 OFFCURVE",
"1200 1476 CURVE SMOOTH",
"1200 1639 OFFCURVE",
"1110 1720 OFFCURVE",
"930 1720 CURVE SMOOTH",
"843 1720 OFFCURVE",
"800 1695 OFFCURVE",
"800 1645 CURVE",
"900 1635 OFFCURVE",
"950 1579 OFFCURVE",
"950 1476 CURVE SMOOTH",
"950 1335 OFFCURVE",
"913 1280 OFFCURVE",
"830 1280 CURVE SMOOTH",
"792 1280 OFFCURVE",
"700 1330 OFFCURVE",
"553 1431 CURVE",
"479 1477 OFFCURVE",
"430 1500 OFFCURVE",
"407 1500 CURVE SMOOTH",
"384 1500 OFFCURVE",
"328 1464 OFFCURVE",
"237 1393 CURVE SMOOTH",
"168 1341 LINE SMOOTH",
"123 1306 OFFCURVE",
"100 1274 OFFCURVE",
"100 1244 CURVE SMOOTH",
"100 1209 LINE SMOOTH",
"100 1155 OFFCURVE",
"133 1112 OFFCURVE",
"200 1079 CURVE",
"200 100 LINE SMOOTH",
"200 33 OFFCURVE",
"242 0 OFFCURVE",
"325 0 CURVE SMOOTH",
"375 0 OFFCURVE",
"425 25 OFFCURVE",
"475 75 CURVE SMOOTH",
"700 300 LINE",
"925 75 LINE SMOOTH",
"975 25 OFFCURVE",
"1025 0 OFFCURVE",
"1075 0 CURVE SMOOTH",
"1158 0 OFFCURVE",
"1200 33 OFFCURVE",
"1200 100 CURVE SMOOTH",
"1200 1060 LINE",
"950 1060 LINE",
"950 192 LINE",
"771 371 LINE SMOOTH",
"748 394 OFFCURVE",
"724 406 OFFCURVE",
"700 406 CURVE SMOOTH",
"677 406 OFFCURVE",
"653 394 OFFCURVE",
"630 371 CURVE SMOOTH",
"450 191 LINE",
"450 1050 LINE",
"387 1086 LINE",
"300 1142 OFFCURVE",
"257 1188 OFFCURVE",
"257 1223 CURVE SMOOTH",
"257 1266 OFFCURVE",
"287 1298 OFFCURVE",
"347 1298 CURVE SMOOTH",
"377 1298 OFFCURVE",
"419 1278 OFFCURVE",
"472 1239 CURVE SMOOTH",
"525 1199 OFFCURVE",
"618 1173 OFFCURVE",
"751 1161 CURVE SMOOTH",
"775 1158 OFFCURVE",
"798 1157 OFFCURVE",
"820 1157 CURVE SMOOTH",
"921 1157 OFFCURVE",
"1006 1180 OFFCURVE",
"1075 1225 CURVE SMOOTH"
);
}
);
width = 1400;
}
);
note = uni1787;
unicode = 1787;
},
{
glyphname = uni1788;
lastChange = "2021-05-07 10:51:04 +0000";
layers = (
{
layerId = "5714BDDB-2CB7-459F-823B-ADD058C725FB";
paths = (
{
closed = 1;
nodes = (
"1550 148 OFFCURVE",
"1483 100 OFFCURVE",
"1350 100 CURVE SMOOTH",
"1217 100 OFFCURVE",
"1150 148 OFFCURVE",
"1150 243 CURVE SMOOTH",
"1150 1257 LINE SMOOTH",
"1150 1434 OFFCURVE",
"908 1500 OFFCURVE",
"675 1500 CURVE SMOOTH",
"442 1500 OFFCURVE",
"200 1434 OFFCURVE",
"200 1257 CURVE SMOOTH",
"200 200 LINE SMOOTH",
"200 67 OFFCURVE",
"283 0 OFFCURVE",
"450 0 CURVE SMOOTH",
"517 0 OFFCURVE",
"567 25 OFFCURVE",
"600 75 CURVE SMOOTH",
"633 125 OFFCURVE",
"650 200 OFFCURVE",
"650 300 CURVE SMOOTH",
"650 367 OFFCURVE",
"635 417 OFFCURVE",
"606 450 CURVE SMOOTH",
"577 483 OFFCURVE",
"534 500 OFFCURVE",
"475 500 CURVE SMOOTH",
"450 500 LINE",
"450 1257 LINE SMOOTH",
"450 1364 OFFCURVE",
"575 1400 OFFCURVE",
"675 1400 CURVE SMOOTH",
"775 1400 OFFCURVE",
"900 1364 OFFCURVE",
"900 1257 CURVE SMOOTH",
"900 243 LINE SMOOTH",
"900 81 OFFCURVE",
"1050 0 OFFCURVE",
"1350 0 CURVE SMOOTH",
"1492 0 OFFCURVE",
"1600 18 OFFCURVE",
"1675 54 CURVE",
"1750 18 OFFCURVE",
"1858 0 OFFCURVE",
"2000 0 CURVE SMOOTH",
"2300 0 OFFCURVE",
"2450 81 OFFCURVE",
"2450 243 CURVE SMOOTH",
"2450 980 LINE SMOOTH",
"2450 1021 OFFCURVE",
"2402 1063 OFFCURVE",
"2305 1106 CURVE SMOOTH",
"2159 1170 LINE",
"2214 1253 LINE",
"2301 1206 OFFCURVE",
"2366 1182 OFFCURVE",
"2408 1182 CURVE SMOOTH",
"2412 1182 OFFCURVE",
"2416 1182 OFFCURVE",
"2420 1183 CURVE SMOOTH",
"2461 1188 OFFCURVE",
"2504 1256 OFFCURVE",
"2550 1386 CURVE",
"2545 1383 OFFCURVE",
"2538 1382 OFFCURVE",
"2529 1382 CURVE SMOOTH",
"2481 1382 OFFCURVE",
"2377 1421 OFFCURVE",
"2217 1500 CURVE",
"2033 1206 LINE",
"2033 1073 LINE",
"2144 1038 OFFCURVE",
"2200 1001 OFFCURVE",
"2200 963 CURVE SMOOTH",
"2200 243 LINE SMOOTH",
"2200 148 OFFCURVE",
"2133 100 OFFCURVE",
"2000 100 CURVE SMOOTH",
"1867 100 OFFCURVE",
"1800 148 OFFCURVE",
"1800 243 CURVE SMOOTH",
"1800 980 LINE SMOOTH",
"1800 1021 OFFCURVE",
"1752 1063 OFFCURVE",
"1655 1106 CURVE SMOOTH",
"1509 1170 LINE",
"1564 1253 LINE",
"1651 1206 OFFCURVE",
"1716 1182 OFFCURVE",
"1758 1182 CURVE SMOOTH",
"1762 1182 OFFCURVE",
"1766 1182 OFFCURVE",
"1770 1183 CURVE SMOOTH",
"1811 1188 OFFCURVE",
"1854 1256 OFFCURVE",
"1900 1386 CURVE",
"1895 1383 OFFCURVE",
"1888 1382 OFFCURVE",
"1879 1382 CURVE SMOOTH",
"1831 1382 OFFCURVE",
"1727 1421 OFFCURVE",
"1567 1500 CURVE",
"1383 1206 LINE",
"1383 1073 LINE",
"1494 1038 OFFCURVE",
"1550 1001 OFFCURVE",
"1550 963 CURVE SMOOTH",
"1550 243 LINE SMOOTH"
);
},
{
closed = 1;
nodes = (
"544 358 OFFCURVE",
"550 333 OFFCURVE",
"550 300 CURVE SMOOTH",
"550 260 OFFCURVE",
"542 223 OFFCURVE",
"525 190 CURVE SMOOTH",
"508 157 OFFCURVE",
"492 140 OFFCURVE",
"475 140 CURVE SMOOTH",
"458 140 OFFCURVE",
"450 160 OFFCURVE",
"450 200 CURVE SMOOTH",
"450 400 LINE",
"475 400 LINE SMOOTH",
"500 400 OFFCURVE",
"519 392 OFFCURVE",
"531 375 CURVE SMOOTH"
);
}
);
width = 2650;
}
);
note = uni1788;
unicode = 1788;
},
{
glyphname = uni1789;
lastChange = "2021-05-07 10:51:04 +0000";
layers = (
{
layerId = "5714BDDB-2CB7-459F-823B-ADD058C725FB";
paths = (
{
closed = 1;
nodes = (
"1150 1340 OFFCURVE",
"1217 1400 OFFCURVE",
"1350 1400 CURVE SMOOTH",
"1483 1400 OFFCURVE",
"1550 1340 OFFCURVE",
"1550 1207 CURVE SMOOTH",
"1550 0 LINE",
"1800 0 LINE",
"1800 1207 LINE SMOOTH",
"1800 1411 OFFCURVE",
"1617 1500 OFFCURVE",
"1350 1500 CURVE SMOOTH",
"1250 1500 OFFCURVE",
"1167 1477 OFFCURVE",
"1100 1430 CURVE SMOOTH",
"1083 1418 OFFCURVE",
"1069 1404 OFFCURVE",
"1056 1389 CURVE",
"1047 1396 OFFCURVE",
"1038 1404 OFFCURVE",
"1028 1411 CURVE SMOOTH",
"947 1470 OFFCURVE",
"886 1500 OFFCURVE",
"847 1500 CURVE SMOOTH",
"814 1500 OFFCURVE",
"756 1455 OFFCURVE",
"675 1366 CURVE",
"594 1455 OFFCURVE",
"537 1500 OFFCURVE",
"504 1500 CURVE SMOOTH",
"425 1500 OFFCURVE",
"200 1363 OFFCURVE",
"200 1200 CURVE SMOOTH",
"200 200 LINE SMOOTH",
"200 67 OFFCURVE",
"283 0 OFFCURVE",
"450 0 CURVE SMOOTH",
"517 0 OFFCURVE",
"567 25 OFFCURVE",
"600 75 CURVE SMOOTH",
"633 125 OFFCURVE",
"650 200 OFFCURVE",
"650 300 CURVE SMOOTH",
"650 367 OFFCURVE",
"635 417 OFFCURVE",
"606 450 CURVE SMOOTH",
"577 483 OFFCURVE",
"534 500 OFFCURVE",
"475 500 CURVE SMOOTH",
"450 500 LINE",
"450 1200 LINE SMOOTH",
"450 1269 OFFCURVE",
"466 1317 OFFCURVE",
"498 1342 CURVE SMOOTH",
"503 1346 OFFCURVE",
"510 1348 OFFCURVE",
"517 1348 CURVE SMOOTH",
"551 1348 OFFCURVE",
"604 1299 OFFCURVE",
"675 1200 CURVE",
"747 1299 OFFCURVE",
"800 1348 OFFCURVE",
"834 1348 CURVE SMOOTH",
"841 1348 OFFCURVE",
"848 1346 OFFCURVE",
"853 1342 CURVE SMOOTH",
"884 1317 OFFCURVE",
"900 1269 OFFCURVE",
"900 1200 CURVE SMOOTH",
"900 0 LINE",
"1150 0 LINE",
"1150 1207 LINE SMOOTH"
);
},
{
closed = 1;
nodes = (
"544 358 OFFCURVE",
"550 333 OFFCURVE",
"550 300 CURVE SMOOTH",
"550 260 OFFCURVE",
"542 223 OFFCURVE",
"525 190 CURVE SMOOTH",
"508 157 OFFCURVE",
"492 140 OFFCURVE",
"475 140 CURVE SMOOTH",
"458 140 OFFCURVE",
"450 160 OFFCURVE",
"450 200 CURVE SMOOTH",
"450 400 LINE",
"475 400 LINE SMOOTH",
"500 400 OFFCURVE",
"519 392 OFFCURVE",
"531 375 CURVE SMOOTH"
);
},
{
closed = 1;
nodes = (
"1505 -228 OFFCURVE",
"1519 -255 OFFCURVE",
"1544 -270 CURVE SMOOTH",
"1551 -274 OFFCURVE",
"1560 -276 OFFCURVE",
"1571 -276 CURVE SMOOTH",
"1580 -276 OFFCURVE",
"1589 -275 OFFCURVE",
"1600 -273 CURVE",
"1600 -300 LINE SMOOTH",
"1600 -433 OFFCURVE",
"1528 -466 OFFCURVE",
"1435 -466 CURVE SMOOTH",
"1380 -466 OFFCURVE",
"1269 -408 OFFCURVE",
"1101 -291 CURVE SMOOTH",
"924 -162 OFFCURVE",
"765 -100 OFFCURVE",
"553 -100 CURVE SMOOTH",
"405 -100 OFFCURVE",
"286 -169 OFFCURVE",
"237 -233 CURVE SMOOTH",
"212 -264 OFFCURVE",
"200 -300 OFFCURVE",
"200 -340 CURVE",
"299 -253 OFFCURVE",
"382 -220 OFFCURVE",
"503 -220 CURVE SMOOTH",
"581 -220 OFFCURVE",
"694 -266 OFFCURVE",
"843 -357 CURVE SMOOTH",
"992 -449 OFFCURVE",
"1102 -507 OFFCURVE",
"1173 -532 CURVE SMOOTH",
"1244 -557 OFFCURVE",
"1325 -570 OFFCURVE",
"1415 -570 CURVE SMOOTH",
"1646 -570 OFFCURVE",
"1800 -447 OFFCURVE",
"1800 -300 CURVE SMOOTH",
"1800 -233 OFFCURVE",
"1785 -183 OFFCURVE",
"1756 -150 CURVE SMOOTH",
"1727 -117 OFFCURVE",
"1685 -100 OFFCURVE",
"1629 -100 CURVE SMOOTH",
"1587 -100 OFFCURVE",
"1556 -108 OFFCURVE",
"1535 -125 CURVE SMOOTH",
"1515 -142 OFFCURVE",
"1505 -167 OFFCURVE",
"1505 -200 CURVE SMOOTH"
);
}
);
width = 2050;
}
);
note = uni1789;
unicode = 1789;
},
{
glyphname = uni178A;
lastChange = "2021-05-07 10:51:04 +0000";
layers = (
{
layerId = "5714BDDB-2CB7-459F-823B-ADD058C725FB";
paths = (
{
closed = 1;
nodes = (
"641 1236 OFFCURVE",
"655 1275 OFFCURVE",
"655 1325 CURVE SMOOTH",
"655 1378 OFFCURVE",
"639 1418 OFFCURVE",
"608 1447 CURVE SMOOTH",
"571 1482 OFFCURVE",
"511 1500 OFFCURVE",
"428 1500 CURVE SMOOTH",
"354 1500 OFFCURVE",
"298 1484 OFFCURVE",
"261 1453 CURVE SMOOTH",
"220 1420 OFFCURVE",
"200 1369 OFFCURVE",
"200 1300 CURVE SMOOTH",
"200 1167 OFFCURVE",
"367 1100 OFFCURVE",
"700 1100 CURVE SMOOTH",
"1072 1107 OFFCURVE",
"1200 1195 OFFCURVE",
"1200 1419 CURVE SMOOTH",
"1200 1582 OFFCURVE",
"1110 1663 OFFCURVE",
"930 1663 CURVE SMOOTH",
"843 1663 OFFCURVE",
"800 1638 OFFCURVE",
"800 1588 CURVE",
"900 1578 OFFCURVE",
"950 1522 OFFCURVE",
"950 1419 CURVE SMOOTH",
"950 1348 OFFCURVE",
"932 1294 OFFCURVE",
"896 1257 CURVE SMOOTH",
"861 1220 OFFCURVE",
"799 1202 OFFCURVE",
"710 1202 CURVE SMOOTH",
"700 1202 LINE SMOOTH",
"666 1203 OFFCURVE",
"637 1205 OFFCURVE",
"613 1207 CURVE"
);
},
{
closed = 1;
nodes = (
"424 1317 OFFCURVE",
"428 1329 OFFCURVE",
"436 1337 CURVE SMOOTH",
"445 1346 OFFCURVE",
"458 1350 OFFCURVE",
"475 1350 CURVE SMOOTH",
"492 1350 OFFCURVE",
"505 1345 OFFCURVE",
"514 1336 CURVE SMOOTH",
"521 1328 OFFCURVE",
"525 1316 OFFCURVE",
"525 1300 CURVE SMOOTH",
"525 1267 OFFCURVE",
"508 1250 OFFCURVE",
"475 1250 CURVE SMOOTH",
"451 1250 LINE",
"433 1264 OFFCURVE",
"424 1281 OFFCURVE",
"424 1300 CURVE SMOOTH"
);
},
{
closed = 1;
nodes = (
"200 33 OFFCURVE",
"242 0 OFFCURVE",
"325 0 CURVE SMOOTH",
"375 0 OFFCURVE",
"425 25 OFFCURVE",
"475 75 CURVE SMOOTH",
"700 300 LINE",
"925 75 LINE SMOOTH",
"975 25 OFFCURVE",
"1025 0 OFFCURVE",
"1075 0 CURVE SMOOTH",
"1158 0 OFFCURVE",
"1200 33 OFFCURVE",
"1200 100 CURVE SMOOTH",
"1200 1000 LINE",
"950 1000 LINE",
"950 192 LINE",
"771 371 LINE SMOOTH",
"748 394 OFFCURVE",
"724 406 OFFCURVE",
"700 406 CURVE SMOOTH",
"677 406 OFFCURVE",
"653 394 OFFCURVE",
"630 371 CURVE SMOOTH",
"450 191 LINE",
"450 1000 LINE",
"200 1000 LINE",
"200 100 LINE SMOOTH"
);
}
);
width = 1400;
}
);
note = uni178A;
unicode = 178A;
},
{
glyphname = uni178B;
lastChange = "2021-05-07 10:51:04 +0000";
layers = (
{
layerId = "5714BDDB-2CB7-459F-823B-ADD058C725FB";
paths = (
{
closed = 1;
nodes = (
"1250 1041 OFFCURVE",
"1202 1083 OFFCURVE",
"1105 1126 CURVE SMOOTH",
"959 1190 LINE",
"1024 1273 LINE",
"1105 1226 OFFCURVE",
"1167 1202 OFFCURVE",
"1208 1202 CURVE SMOOTH",
"1212 1202 OFFCURVE",
"1216 1202 OFFCURVE",
"1220 1203 CURVE SMOOTH",
"1301 1214 OFFCURVE",
"1350 1348 OFFCURVE",
"1350 1500 CURVE SMOOTH",
"1350 1700 OFFCURVE",
"1283 1800 OFFCURVE",
"1150 1800 CURVE SMOOTH",
"1083 1800 OFFCURVE",
"1050 1770 OFFCURVE",
"1050 1710 CURVE SMOOTH",
"1050 1650 OFFCURVE",
"1083 1613 OFFCURVE",
"1150 1600 CURVE SMOOTH",
"1217 1587 OFFCURVE",
"1250 1553 OFFCURVE",
"1250 1500 CURVE SMOOTH",
"1250 1455 OFFCURVE",
"1243 1431 OFFCURVE",
"1228 1428 CURVE",
"1226 1427 OFFCURVE",
"1224 1427 OFFCURVE",
"1222 1427 CURVE SMOOTH",
"1205 1427 OFFCURVE",
"1173 1439 OFFCURVE",
"1126 1462 CURVE SMOOTH",
"1073 1487 OFFCURVE",
"1044 1500 OFFCURVE",
"1037 1500 CURVE SMOOTH",
"1030 1500 OFFCURVE",
"962 1402 OFFCURVE",
"833 1206 CURVE",
"833 1053 LINE",
"944 1018 OFFCURVE",
"1000 981 OFFCURVE",
"1000 943 CURVE SMOOTH",
"1000 243 LINE SMOOTH",
"1000 136 OFFCURVE",
"883 100 OFFCURVE",
"750 100 CURVE SMOOTH",
"617 100 OFFCURVE",
"500 136 OFFCURVE",
"500 243 CURVE SMOOTH",
"500 1300 LINE SMOOTH",
"500 1433 OFFCURVE",
"433 1500 OFFCURVE",
"300 1500 CURVE SMOOTH",
"167 1500 OFFCURVE",
"100 1417 OFFCURVE",
"100 1250 CURVE SMOOTH",
"100 1083 OFFCURVE",
"150 1000 OFFCURVE",
"250 1000 CURVE",
"250 243 LINE SMOOTH",
"250 66 OFFCURVE",
"483 0 OFFCURVE",
"750 0 CURVE SMOOTH",
"1017 0 OFFCURVE",
"1250 66 OFFCURVE",
"1250 243 CURVE SMOOTH",
"1250 1000 LINE SMOOTH"
);
},
{
closed = 1;
nodes = (
"200 1317 OFFCURVE",
"217 1350 OFFCURVE",
"250 1350 CURVE SMOOTH",
"283 1350 OFFCURVE",
"300 1317 OFFCURVE",
"300 1250 CURVE SMOOTH",
"300 1183 OFFCURVE",
"283 1150 OFFCURVE",
"250 1150 CURVE SMOOTH",
"217 1150 OFFCURVE",
"200 1183 OFFCURVE",
"200 1250 CURVE SMOOTH"
);
}
);
width = 1450;
}
);
note = uni178B;
unicode = 178B;
},
{
glyphname = uni178C;
lastChange = "2021-05-07 10:51:04 +0000";
layers = (
{
layerId = "5714BDDB-2CB7-459F-823B-ADD058C725FB";
paths = (
{
closed = 1;
nodes = (
"950 242 OFFCURVE",
"773 130 OFFCURVE",
"680 130 CURVE SMOOTH",
"548 130 OFFCURVE",
"450 251 OFFCURVE",
"450 350 CURVE SMOOTH",
"450 418 OFFCURVE",
"468 462 OFFCURVE",
"503 483 CURVE",
"786 627 LINE SMOOTH",
"1062 764 OFFCURVE",
"1200 939 OFFCURVE",
"1200 1150 CURVE SMOOTH",
"1200 1200 LINE SMOOTH",
"1200 1363 OFFCURVE",
"964 1500 OFFCURVE",
"881 1500 CURVE SMOOTH",
"846 1500 OFFCURVE",
"785 1455 OFFCURVE",
"700 1366 CURVE",
"615 1455 OFFCURVE",
"555 1500 OFFCURVE",
"520 1500 CURVE SMOOTH",
"437 1500 OFFCURVE",
"200 1363 OFFCURVE",
"200 1200 CURVE SMOOTH",
"200 1150 LINE SMOOTH",
"200 977 OFFCURVE",
"307 890 OFFCURVE",
"520 890 CURVE SMOOTH",
"587 890 OFFCURVE",
"639 908 OFFCURVE",
"676 944 CURVE SMOOTH",
"702 969 OFFCURVE",
"715 998 OFFCURVE",
"715 1031 CURVE SMOOTH",
"715 1044 OFFCURVE",
"713 1058 OFFCURVE",
"708 1073 CURVE SMOOTH",
"695 1116 OFFCURVE",
"667 1137 OFFCURVE",
"624 1137 CURVE SMOOTH",
"617 1137 OFFCURVE",
"609 1136 OFFCURVE",
"600 1135 CURVE SMOOTH",
"547 1126 OFFCURVE",
"520 1095 OFFCURVE",
"520 1042 CURVE SMOOTH",
"520 1030 LINE",
"473 1030 OFFCURVE",
"450 1070 OFFCURVE",
"450 1150 CURVE SMOOTH",
"450 1200 LINE SMOOTH",
"450 1269 OFFCURVE",
"469 1317 OFFCURVE",
"507 1342 CURVE SMOOTH",
"513 1346 OFFCURVE",
"520 1348 OFFCURVE",
"528 1348 CURVE SMOOTH",
"567 1348 OFFCURVE",
"625 1299 OFFCURVE",
"700 1200 CURVE",
"776 1299 OFFCURVE",
"833 1348 OFFCURVE",
"872 1348 CURVE SMOOTH",
"880 1348 OFFCURVE",
"887 1346 OFFCURVE",
"894 1342 CURVE SMOOTH",
"931 1317 OFFCURVE",
"950 1269 OFFCURVE",
"950 1200 CURVE SMOOTH",
"950 1150 LINE SMOOTH",
"950 972 OFFCURVE",
"871 842 OFFCURVE",
"714 760 CURVE SMOOTH",
"427 616 LINE SMOOTH",
"276 541 OFFCURVE",
"200 453 OFFCURVE",
"200 350 CURVE SMOOTH",
"200 239 OFFCURVE",
"447 0 OFFCURVE",
"650 0 CURVE SMOOTH",
"723 0 OFFCURVE",
"817 33 OFFCURVE",
"933 98 CURVE SMOOTH",
"939 101 OFFCURVE",
"945 105 OFFCURVE",
"950 108 CURVE",
"950 -100 LINE",
"1200 -100 LINE",
"1200 685 LINE",
"950 531 LINE"
);
}
);
width = 1400;
}
);
note = uni178C;
unicode = 178C;
},
{
glyphname = uni178D;
lastChange = "2021-05-07 10:51:04 +0000";
layers = (
{
layerId = "5714BDDB-2CB7-459F-823B-ADD058C725FB";
paths = (
{
closed = 1;
nodes = (
"1950 1021 OFFCURVE",
"1902 1063 OFFCURVE",
"1805 1106 CURVE SMOOTH",
"1659 1170 LINE",
"1714 1253 LINE",
"1801 1206 OFFCURVE",
"1866 1182 OFFCURVE",
"1908 1182 CURVE SMOOTH",
"1912 1182 OFFCURVE",
"1916 1182 OFFCURVE",
"1920 1183 CURVE SMOOTH",
"1961 1188 OFFCURVE",
"2004 1256 OFFCURVE",
"2050 1386 CURVE",
"2045 1383 OFFCURVE",
"2038 1382 OFFCURVE",
"2029 1382 CURVE SMOOTH",
"1981 1382 OFFCURVE",
"1877 1421 OFFCURVE",
"1717 1500 CURVE",
"1533 1206 LINE",
"1533 1073 LINE",
"1644 1038 OFFCURVE",
"1700 1001 OFFCURVE",
"1700 963 CURVE SMOOTH",
"1700 250 LINE SMOOTH",
"1700 150 OFFCURVE",
"1667 100 OFFCURVE",
"1600 100 CURVE SMOOTH",
"1520 100 OFFCURVE",
"1480 150 OFFCURVE",
"1480 250 CURVE SMOOTH",
"1480 417 OFFCURVE",
"1387 500 OFFCURVE",
"1200 500 CURVE",
"1200 1200 LINE SMOOTH",
"1200 1363 OFFCURVE",
"964 1500 OFFCURVE",
"881 1500 CURVE SMOOTH",
"846 1500 OFFCURVE",
"785 1455 OFFCURVE",
"700 1366 CURVE",
"615 1455 OFFCURVE",
"555 1500 OFFCURVE",
"520 1500 CURVE SMOOTH",
"437 1500 OFFCURVE",
"200 1363 OFFCURVE",
"200 1200 CURVE SMOOTH",
"200 200 LINE SMOOTH",
"200 67 OFFCURVE",
"283 0 OFFCURVE",
"450 0 CURVE SMOOTH",
"517 0 OFFCURVE",
"567 25 OFFCURVE",
"600 75 CURVE SMOOTH",
"633 125 OFFCURVE",
"650 200 OFFCURVE",
"650 300 CURVE SMOOTH",
"650 367 OFFCURVE",
"635 417 OFFCURVE",
"606 450 CURVE SMOOTH",
"577 483 OFFCURVE",
"534 500 OFFCURVE",
"475 500 CURVE SMOOTH",
"450 500 LINE",
"450 1200 LINE SMOOTH",
"450 1269 OFFCURVE",
"469 1317 OFFCURVE",
"507 1342 CURVE SMOOTH",
"513 1346 OFFCURVE",
"520 1348 OFFCURVE",
"528 1348 CURVE SMOOTH",
"567 1348 OFFCURVE",
"625 1299 OFFCURVE",
"700 1200 CURVE",
"776 1299 OFFCURVE",
"833 1348 OFFCURVE",
"872 1348 CURVE SMOOTH",
"880 1348 OFFCURVE",
"887 1346 OFFCURVE",
"894 1342 CURVE SMOOTH",
"931 1317 OFFCURVE",
"950 1269 OFFCURVE",
"950 1200 CURVE SMOOTH",
"950 500 LINE",
"850 500 OFFCURVE",
"800 417 OFFCURVE",
"800 250 CURVE SMOOTH",
"800 83 OFFCURVE",
"853 0 OFFCURVE",
"960 0 CURVE SMOOTH",
"1120 0 OFFCURVE",
"1200 67 OFFCURVE",
"1200 200 CURVE SMOOTH",
"1200 400 LINE",
"1287 400 OFFCURVE",
"1330 350 OFFCURVE",
"1330 250 CURVE SMOOTH",
"1330 83 OFFCURVE",
"1420 0 OFFCURVE",
"1600 0 CURVE SMOOTH",
"1833 0 OFFCURVE",
"1950 83 OFFCURVE",
"1950 250 CURVE SMOOTH",
"1950 980 LINE SMOOTH"
);
},
{
closed = 1;
nodes = (
"544 358 OFFCURVE",
"550 333 OFFCURVE",
"550 300 CURVE SMOOTH",
"550 260 OFFCURVE",
"542 223 OFFCURVE",
"525 190 CURVE SMOOTH",
"508 157 OFFCURVE",
"492 140 OFFCURVE",
"475 140 CURVE SMOOTH",
"458 140 OFFCURVE",
"450 160 OFFCURVE",
"450 200 CURVE SMOOTH",
"450 400 LINE",
"475 400 LINE SMOOTH",
"500 400 OFFCURVE",
"519 392 OFFCURVE",
"531 375 CURVE SMOOTH"
);
},
{
closed = 1;
nodes = (
"900 350 OFFCURVE",
"917 400 OFFCURVE",
"950 400 CURVE",
"950 240 LINE SMOOTH",
"950 193 OFFCURVE",
"942 170 OFFCURVE",
"925 170 CURVE SMOOTH",
"908 170 OFFCURVE",
"900 197 OFFCURVE",
"900 250 CURVE SMOOTH"
);
}
);
width = 2150;
}
);
note = uni178D;
unicode = 178D;
},
{
glyphname = uni178E;
lastChange = "2021-05-07 10:51:04 +0000";
layers = (
{
layerId = "5714BDDB-2CB7-459F-823B-ADD058C725FB";
paths = (
{
closed = 1;
nodes = (
"900 33 OFFCURVE",
"942 0 OFFCURVE",
"1025 0 CURVE SMOOTH",
"1075 0 OFFCURVE",
"1125 25 OFFCURVE",
"1175 75 CURVE SMOOTH",
"1375 275 LINE",
"1575 75 LINE SMOOTH",
"1625 25 OFFCURVE",
"1675 0 OFFCURVE",
"1725 0 CURVE SMOOTH",
"1808 0 OFFCURVE",
"1850 33 OFFCURVE",
"1850 100 CURVE SMOOTH",
"1850 1257 LINE SMOOTH",
"1850 1364 OFFCURVE",
"1975 1400 OFFCURVE",
"2075 1400 CURVE SMOOTH",
"2175 1400 OFFCURVE",
"2300 1364 OFFCURVE",
"2300 1257 CURVE SMOOTH",
"2300 0 LINE",
"2550 0 LINE",
"2550 1257 LINE SMOOTH",
"2550 1434 OFFCURVE",
"2308 1500 OFFCURVE",
"2075 1500 CURVE SMOOTH",
"1842 1500 OFFCURVE",
"1600 1434 OFFCURVE",
"1600 1257 CURVE SMOOTH",
"1600 192 LINE",
"1431 360 LINE SMOOTH",
"1412 379 OFFCURVE",
"1394 388 OFFCURVE",
"1375 388 CURVE SMOOTH",
"1356 388 OFFCURVE",
"1338 379 OFFCURVE",
"1319 360 CURVE SMOOTH",
"1150 191 LINE",
"1150 1257 LINE SMOOTH",
"1150 1434 OFFCURVE",
"908 1500 OFFCURVE",
"675 1500 CURVE SMOOTH",
"442 1500 OFFCURVE",
"200 1434 OFFCURVE",
"200 1257 CURVE SMOOTH",
"200 200 LINE SMOOTH",
"200 67 OFFCURVE",
"283 0 OFFCURVE",
"450 0 CURVE SMOOTH",
"517 0 OFFCURVE",
"567 25 OFFCURVE",
"600 75 CURVE SMOOTH",
"633 125 OFFCURVE",
"650 200 OFFCURVE",
"650 300 CURVE SMOOTH",
"650 367 OFFCURVE",
"635 417 OFFCURVE",
"606 450 CURVE SMOOTH",
"577 483 OFFCURVE",
"534 500 OFFCURVE",
"475 500 CURVE SMOOTH",
"450 500 LINE",
"450 1257 LINE SMOOTH",
"450 1364 OFFCURVE",
"575 1400 OFFCURVE",
"675 1400 CURVE SMOOTH",
"775 1400 OFFCURVE",
"900 1364 OFFCURVE",
"900 1257 CURVE SMOOTH",
"900 100 LINE SMOOTH"
);
},
{
closed = 1;
nodes = (
"544 358 OFFCURVE",
"550 333 OFFCURVE",
"550 300 CURVE SMOOTH",
"550 260 OFFCURVE",
"542 223 OFFCURVE",
"525 190 CURVE SMOOTH",
"508 157 OFFCURVE",
"492 140 OFFCURVE",
"475 140 CURVE SMOOTH",
"458 140 OFFCURVE",
"450 160 OFFCURVE",
"450 200 CURVE SMOOTH",
"450 400 LINE",
"475 400 LINE SMOOTH",
"500 400 OFFCURVE",
"519 392 OFFCURVE",
"531 375 CURVE SMOOTH"
);
}
);
width = 2750;
}
);
note = uni178E;
unicode = 178E;
},
{
glyphname = uni178F;
lastChange = "2021-05-07 10:51:04 +0000";
layers = (
{
layerId = "5714BDDB-2CB7-459F-823B-ADD058C725FB";
paths = (
{
closed = 1;
nodes = (
"304 1142 OFFCURVE",
"257 1188 OFFCURVE",
"257 1223 CURVE SMOOTH",
"257 1266 OFFCURVE",
"287 1298 OFFCURVE",
"347 1298 CURVE SMOOTH",
"377 1298 OFFCURVE",
"419 1278 OFFCURVE",
"472 1239 CURVE SMOOTH",
"525 1199 OFFCURVE",
"584 1179 OFFCURVE",
"648 1179 CURVE SMOOTH",
"685 1179 OFFCURVE",
"721 1199 OFFCURVE",
"756 1239 CURVE SMOOTH",
"790 1278 OFFCURVE",
"819 1298 OFFCURVE",
"842 1298 CURVE SMOOTH",
"865 1298 OFFCURVE",
"901 1278 OFFCURVE",
"948 1239 CURVE SMOOTH",
"995 1199 OFFCURVE",
"1053 1179 OFFCURVE",
"1122 1179 CURVE SMOOTH",
"1191 1179 OFFCURVE",
"1251 1227 OFFCURVE",
"1300 1323 CURVE",
"1287 1318 OFFCURVE",
"1274 1316 OFFCURVE",
"1259 1316 CURVE SMOOTH",
"1195 1316 OFFCURVE",
"1115 1360 OFFCURVE",
"1018 1447 CURVE SMOOTH",
"979 1482 OFFCURVE",
"947 1500 OFFCURVE",
"922 1500 CURVE SMOOTH",
"897 1500 OFFCURVE",
"857 1477 OFFCURVE",
"802 1431 CURVE SMOOTH",
"747 1384 OFFCURVE",
"711 1361 OFFCURVE",
"694 1361 CURVE SMOOTH",
"675 1361 OFFCURVE",
"628 1384 OFFCURVE",
"553 1431 CURVE SMOOTH",
"479 1477 OFFCURVE",
"430 1500 OFFCURVE",
"407 1500 CURVE SMOOTH",
"384 1500 OFFCURVE",
"328 1464 OFFCURVE",
"237 1393 CURVE SMOOTH",
"168 1341 LINE SMOOTH",
"123 1306 OFFCURVE",
"100 1274 OFFCURVE",
"100 1244 CURVE SMOOTH",
"100 1209 LINE SMOOTH",
"100 1136 OFFCURVE",
"160 1083 OFFCURVE",
"281 1049 CURVE",
"397 1086 LINE"
);
},
{
closed = 1;
nodes = (
"200 67 OFFCURVE",
"283 0 OFFCURVE",
"450 0 CURVE SMOOTH",
"517 0 OFFCURVE",
"567 25 OFFCURVE",
"600 75 CURVE SMOOTH",
"633 125 OFFCURVE",
"650 200 OFFCURVE",
"650 300 CURVE SMOOTH",
"650 367 OFFCURVE",
"635 417 OFFCURVE",
"606 450 CURVE SMOOTH",
"577 483 OFFCURVE",
"534 500 OFFCURVE",
"475 500 CURVE SMOOTH",
"450 500 LINE",
"450 857 LINE SMOOTH",
"450 964 OFFCURVE",
"567 1000 OFFCURVE",
"700 1000 CURVE SMOOTH",
"833 1000 OFFCURVE",
"950 964 OFFCURVE",
"950 857 CURVE SMOOTH",
"950 0 LINE",
"1200 0 LINE",
"1200 857 LINE SMOOTH",
"1200 1034 OFFCURVE",
"967 1100 OFFCURVE",
"700 1100 CURVE SMOOTH",
"433 1100 OFFCURVE",
"200 1034 OFFCURVE",
"200 857 CURVE SMOOTH",
"200 200 LINE SMOOTH"
);
},
{
closed = 1;
nodes = (
"544 358 OFFCURVE",
"550 333 OFFCURVE",
"550 300 CURVE SMOOTH",
"550 260 OFFCURVE",
"542 223 OFFCURVE",
"525 190 CURVE SMOOTH",
"508 157 OFFCURVE",
"492 140 OFFCURVE",
"475 140 CURVE SMOOTH",
"458 140 OFFCURVE",
"450 160 OFFCURVE",
"450 200 CURVE SMOOTH",
"450 400 LINE",
"475 400 LINE SMOOTH",
"500 400 OFFCURVE",
"519 392 OFFCURVE",
"531 375 CURVE SMOOTH"
);
}
);
width = 1400;
}
);
note = uni178F;
unicode = 178F;
},
{
glyphname = uni1790;
lastChange = "2021-05-07 10:51:04 +0000";
layers = (
{
layerId = "5714BDDB-2CB7-459F-823B-ADD058C725FB";
paths = (
{
closed = 1;
nodes = (
"300 1142 OFFCURVE",
"257 1188 OFFCURVE",
"257 1223 CURVE SMOOTH",
"257 1266 OFFCURVE",
"287 1298 OFFCURVE",
"347 1298 CURVE SMOOTH",
"377 1298 OFFCURVE",
"419 1278 OFFCURVE",
"472 1239 CURVE SMOOTH",
"525 1199 OFFCURVE",
"618 1173 OFFCURVE",
"751 1161 CURVE SMOOTH",
"775 1158 OFFCURVE",
"798 1157 OFFCURVE",
"820 1157 CURVE SMOOTH",
"921 1157 OFFCURVE",
"1006 1180 OFFCURVE",
"1075 1225 CURVE SMOOTH",
"1158 1280 OFFCURVE",
"1200 1364 OFFCURVE",
"1200 1476 CURVE SMOOTH",
"1200 1639 OFFCURVE",
"1110 1720 OFFCURVE",
"930 1720 CURVE SMOOTH",
"843 1720 OFFCURVE",
"800 1695 OFFCURVE",
"800 1645 CURVE",
"900 1635 OFFCURVE",
"950 1579 OFFCURVE",
"950 1476 CURVE SMOOTH",
"950 1335 OFFCURVE",
"913 1280 OFFCURVE",
"830 1280 CURVE SMOOTH",
"792 1280 OFFCURVE",
"700 1330 OFFCURVE",
"553 1431 CURVE",
"479 1477 OFFCURVE",
"430 1500 OFFCURVE",
"407 1500 CURVE SMOOTH",
"384 1500 OFFCURVE",
"328 1464 OFFCURVE",
"237 1393 CURVE SMOOTH",
"168 1341 LINE SMOOTH",
"123 1306 OFFCURVE",
"100 1274 OFFCURVE",
"100 1244 CURVE SMOOTH",
"100 1209 LINE SMOOTH",
"100 1155 OFFCURVE",
"133 1112 OFFCURVE",
"200 1079 CURVE",
"200 243 LINE SMOOTH",
"200 66 OFFCURVE",
"433 0 OFFCURVE",
"700 0 CURVE SMOOTH",
"967 0 OFFCURVE",
"1200 66 OFFCURVE",
"1200 243 CURVE SMOOTH",
"1200 900 LINE SMOOTH",
"1200 1027 OFFCURVE",
"1133 1090 OFFCURVE",
"1000 1090 CURVE SMOOTH",
"867 1090 OFFCURVE",
"800 1023 OFFCURVE",
"800 890 CURVE SMOOTH",
"800 777 OFFCURVE",
"850 720 OFFCURVE",
"950 720 CURVE",
"950 243 LINE SMOOTH",
"950 136 OFFCURVE",
"833 100 OFFCURVE",
"700 100 CURVE SMOOTH",
"567 100 OFFCURVE",
"450 136 OFFCURVE",
"450 243 CURVE SMOOTH",
"450 1050 LINE",
"387 1086 LINE"
);
},
{
closed = 1;
nodes = (
"917 820 OFFCURVE",
"900 843 OFFCURVE",
"900 890 CURVE SMOOTH",
"900 937 OFFCURVE",
"917 960 OFFCURVE",
"950 960 CURVE SMOOTH",
"983 960 OFFCURVE",
"1000 940 OFFCURVE",
"1000 900 CURVE SMOOTH",
"1000 847 OFFCURVE",
"983 820 OFFCURVE",
"950 820 CURVE SMOOTH"
);
}
);
width = 1400;
}
);
note = uni1790;
unicode = 1790;
},
{
glyphname = uni1791;
lastChange = "2021-05-07 10:51:04 +0000";
layers = (
{
layerId = "5714BDDB-2CB7-459F-823B-ADD058C725FB";
paths = (
{
closed = 1;
nodes = (
"915 0 OFFCURVE",
"1030 87 OFFCURVE",
"1030 400 CURVE SMOOTH",
"1030 604 LINE",
"1143 617 OFFCURVE",
"1200 657 OFFCURVE",
"1200 725 CURVE SMOOTH",
"1200 808 OFFCURVE",
"1157 850 OFFCURVE",
"1070 850 CURVE SMOOTH",
"895 850 OFFCURVE",
"799 800 OFFCURVE",
"784 701 CURVE",
"561 713 OFFCURVE",
"450 776 OFFCURVE",
"450 1100 CURVE SMOOTH",
"450 1349 OFFCURVE",
"500 1400 OFFCURVE",
"700 1400 CURVE SMOOTH",
"900 1400 OFFCURVE",
"950 1323 OFFCURVE",
"950 1180 CURVE SMOOTH",
"950 1113 OFFCURVE",
"930 1080 OFFCURVE",
"890 1080 CURVE",
"890 1113 OFFCURVE",
"867 1134 OFFCURVE",
"821 1141 CURVE SMOOTH",
"815 1142 OFFCURVE",
"809 1142 OFFCURVE",
"803 1142 CURVE SMOOTH",
"767 1142 OFFCURVE",
"741 1122 OFFCURVE",
"726 1082 CURVE SMOOTH",
"721 1068 OFFCURVE",
"718 1055 OFFCURVE",
"718 1043 CURVE SMOOTH",
"718 1016 OFFCURVE",
"732 994 OFFCURVE",
"760 977 CURVE SMOOTH",
"800 952 OFFCURVE",
"843 940 OFFCURVE",
"890 940 CURVE SMOOTH",
"1097 940 OFFCURVE",
"1200 1020 OFFCURVE",
"1200 1180 CURVE SMOOTH",
"1200 1393 OFFCURVE",
"1033 1500 OFFCURVE",
"700 1500 CURVE SMOOTH",
"367 1500 OFFCURVE",
"200 1367 OFFCURVE",
"200 1100 CURVE SMOOTH",
"200 709 OFFCURVE",
"460 613 OFFCURVE",
"780 601 CURVE",
"780 400 LINE SMOOTH",
"780 200 OFFCURVE",
"743 100 OFFCURVE",
"670 100 CURVE SMOOTH",
"590 100 OFFCURVE",
"550 167 OFFCURVE",
"550 300 CURVE SMOOTH",
"550 500 LINE",
"300 500 LINE",
"300 300 LINE SMOOTH",
"300 100 OFFCURVE",
"423 0 OFFCURVE",
"670 0 CURVE SMOOTH"
);
},
{
closed = 1;
nodes = (
"1100 714 OFFCURVE",
"1078 706 OFFCURVE",
"1035 702 CURVE",
"1042 734 OFFCURVE",
"1054 750 OFFCURVE",
"1070 750 CURVE SMOOTH",
"1090 750 OFFCURVE",
"1100 742 OFFCURVE",
"1100 725 CURVE SMOOTH"
);
}
);
width = 1400;
}
);
note = uni1791;
unicode = 1791;
},
{
glyphname = uni1792;
lastChange = "2021-05-07 10:51:04 +0000";
layers = (
{
layerId = "5714BDDB-2CB7-459F-823B-ADD058C725FB";
paths = (
{
closed = 1;
nodes = (
"200 33 OFFCURVE",
"242 0 OFFCURVE",
"325 0 CURVE SMOOTH",
"375 0 OFFCURVE",
"425 25 OFFCURVE",
"475 75 CURVE SMOOTH",
"700 300 LINE",
"925 75 LINE SMOOTH",
"975 25 OFFCURVE",
"1025 0 OFFCURVE",
"1075 0 CURVE SMOOTH",
"1158 0 OFFCURVE",
"1200 33 OFFCURVE",
"1200 100 CURVE SMOOTH",
"1200 900 LINE SMOOTH",
"1200 1027 OFFCURVE",
"1133 1090 OFFCURVE",
"1000 1090 CURVE SMOOTH",
"867 1090 OFFCURVE",
"800 1023 OFFCURVE",
"800 890 CURVE SMOOTH",
"800 777 OFFCURVE",
"850 720 OFFCURVE",
"950 720 CURVE",
"950 192 LINE",
"771 371 LINE SMOOTH",
"748 394 OFFCURVE",
"724 406 OFFCURVE",
"700 406 CURVE SMOOTH",
"677 406 OFFCURVE",
"653 394 OFFCURVE",
"630 371 CURVE SMOOTH",
"450 191 LINE",
"450 1050 LINE",
"387 1086 LINE",
"300 1142 OFFCURVE",
"257 1188 OFFCURVE",
"257 1223 CURVE SMOOTH",
"257 1266 OFFCURVE",
"287 1298 OFFCURVE",
"347 1298 CURVE SMOOTH",
"377 1298 OFFCURVE",
"419 1278 OFFCURVE",
"472 1239 CURVE SMOOTH",
"525 1199 OFFCURVE",
"584 1179 OFFCURVE",
"648 1179 CURVE SMOOTH",
"685 1179 OFFCURVE",
"721 1199 OFFCURVE",
"756 1239 CURVE SMOOTH",
"790 1278 OFFCURVE",
"819 1298 OFFCURVE",
"842 1298 CURVE SMOOTH",
"865 1298 OFFCURVE",
"901 1278 OFFCURVE",
"948 1239 CURVE SMOOTH",
"995 1199 OFFCURVE",
"1053 1179 OFFCURVE",
"1122 1179 CURVE SMOOTH",
"1191 1179 OFFCURVE",
"1251 1227 OFFCURVE",
"1300 1323 CURVE",
"1287 1318 OFFCURVE",
"1274 1316 OFFCURVE",
"1259 1316 CURVE SMOOTH",
"1195 1316 OFFCURVE",
"1115 1360 OFFCURVE",
"1018 1447 CURVE SMOOTH",
"979 1482 OFFCURVE",
"947 1500 OFFCURVE",
"922 1500 CURVE SMOOTH",
"897 1500 OFFCURVE",
"857 1477 OFFCURVE",
"802 1431 CURVE SMOOTH",
"747 1384 OFFCURVE",
"711 1361 OFFCURVE",
"694 1361 CURVE SMOOTH",
"675 1361 OFFCURVE",
"628 1384 OFFCURVE",
"553 1431 CURVE SMOOTH",
"479 1477 OFFCURVE",
"430 1500 OFFCURVE",
"407 1500 CURVE SMOOTH",
"384 1500 OFFCURVE",
"328 1464 OFFCURVE",
"237 1393 CURVE SMOOTH",
"168 1341 LINE SMOOTH",
"123 1306 OFFCURVE",
"100 1274 OFFCURVE",
"100 1244 CURVE SMOOTH",
"100 1209 LINE SMOOTH",
"100 1155 OFFCURVE",
"133 1112 OFFCURVE",
"200 1079 CURVE",
"200 100 LINE SMOOTH"
);
},
{
closed = 1;
nodes = (
"917 820 OFFCURVE",
"900 843 OFFCURVE",
"900 890 CURVE SMOOTH",
"900 937 OFFCURVE",
"917 960 OFFCURVE",
"950 960 CURVE SMOOTH",
"983 960 OFFCURVE",
"1000 940 OFFCURVE",
"1000 900 CURVE SMOOTH",
"1000 847 OFFCURVE",
"983 820 OFFCURVE",
"950 820 CURVE SMOOTH"
);
}
);
width = 1400;
}
);
note = uni1792;
unicode = 1792;
},
{
glyphname = uni1793;
lastChange = "2021-05-07 10:51:04 +0000";
layers = (
{
layerId = "5714BDDB-2CB7-459F-823B-ADD058C725FB";
paths = (
{
closed = 1;
nodes = (
"200 33 OFFCURVE",
"242 0 OFFCURVE",
"325 0 CURVE SMOOTH",
"375 0 OFFCURVE",
"425 25 OFFCURVE",
"475 75 CURVE SMOOTH",
"700 300 LINE",
"925 75 LINE SMOOTH",
"975 25 OFFCURVE",
"1025 0 OFFCURVE",
"1075 0 CURVE SMOOTH",
"1158 0 OFFCURVE",
"1200 33 OFFCURVE",
"1200 100 CURVE SMOOTH",
"1200 603 LINE SMOOTH",
"1200 734 OFFCURVE",
"1083 800 OFFCURVE",
"850 800 CURVE SMOOTH",
"575 800 OFFCURVE",
"450 905 OFFCURVE",
"450 1100 CURVE SMOOTH",
"450 1349 OFFCURVE",
"500 1400 OFFCURVE",
"700 1400 CURVE SMOOTH",
"900 1400 OFFCURVE",
"950 1326 OFFCURVE",
"950 1170 CURVE SMOOTH",
"950 1103 OFFCURVE",
"930 1070 OFFCURVE",
"890 1070 CURVE",
"890 1103 OFFCURVE",
"867 1124 OFFCURVE",
"821 1131 CURVE SMOOTH",
"815 1132 OFFCURVE",
"809 1132 OFFCURVE",
"803 1132 CURVE SMOOTH",
"767 1132 OFFCURVE",
"741 1112 OFFCURVE",
"726 1072 CURVE SMOOTH",
"721 1058 OFFCURVE",
"718 1045 OFFCURVE",
"718 1033 CURVE SMOOTH",
"718 1006 OFFCURVE",
"732 984 OFFCURVE",
"760 967 CURVE SMOOTH",
"800 942 OFFCURVE",
"843 930 OFFCURVE",
"890 930 CURVE SMOOTH",
"1097 930 OFFCURVE",
"1200 1010 OFFCURVE",
"1200 1170 CURVE SMOOTH",
"1200 1390 OFFCURVE",
"1033 1500 OFFCURVE",
"700 1500 CURVE SMOOTH",
"367 1500 OFFCURVE",
"200 1367 OFFCURVE",
"200 1100 CURVE SMOOTH",
"200 839 OFFCURVE",
"475 700 OFFCURVE",
"850 700 CURVE SMOOTH",
"917 700 OFFCURVE",
"950 667 OFFCURVE",
"950 600 CURVE SMOOTH",
"950 192 LINE",
"771 371 LINE SMOOTH",
"748 394 OFFCURVE",
"724 406 OFFCURVE",
"700 406 CURVE SMOOTH",
"677 406 OFFCURVE",
"653 394 OFFCURVE",
"630 371 CURVE SMOOTH",
"450 191 LINE",
"450 600 LINE",
"200 600 LINE",
"200 100 LINE SMOOTH"
);
}
);
width = 1400;
}
);
note = uni1793;
unicode = 1793;
},
{
glyphname = uni1794;
lastChange = "2021-05-07 10:51:04 +0000";
layers = (
{
layerId = "5714BDDB-2CB7-459F-823B-ADD058C725FB";
paths = (
{
closed = 1;
nodes = (
"1000 136 OFFCURVE",
"883 100 OFFCURVE",
"750 100 CURVE SMOOTH",
"617 100 OFFCURVE",
"500 136 OFFCURVE",
"500 243 CURVE SMOOTH",
"500 980 LINE SMOOTH",
"500 1021 OFFCURVE",
"452 1063 OFFCURVE",
"355 1106 CURVE SMOOTH",
"209 1170 LINE",
"264 1253 LINE",
"351 1206 OFFCURVE",
"416 1182 OFFCURVE",
"458 1182 CURVE SMOOTH",
"462 1182 OFFCURVE",
"466 1182 OFFCURVE",
"470 1183 CURVE SMOOTH",
"511 1188 OFFCURVE",
"554 1256 OFFCURVE",
"600 1386 CURVE",
"595 1383 OFFCURVE",
"588 1382 OFFCURVE",
"579 1382 CURVE SMOOTH",
"531 1382 OFFCURVE",
"427 1421 OFFCURVE",
"267 1500 CURVE",
"83 1206 LINE",
"83 1073 LINE",
"194 1038 OFFCURVE",
"250 1001 OFFCURVE",
"250 963 CURVE SMOOTH",
"250 243 LINE SMOOTH",
"250 66 OFFCURVE",
"483 0 OFFCURVE",
"750 0 CURVE SMOOTH",
"1017 0 OFFCURVE",
"1250 66 OFFCURVE",
"1250 243 CURVE SMOOTH",
"1250 980 LINE SMOOTH",
"1250 1021 OFFCURVE",
"1202 1063 OFFCURVE",
"1105 1106 CURVE SMOOTH",
"959 1170 LINE",
"1014 1253 LINE",
"1101 1206 OFFCURVE",
"1166 1182 OFFCURVE",
"1208 1182 CURVE SMOOTH",
"1212 1182 OFFCURVE",
"1216 1182 OFFCURVE",
"1220 1183 CURVE SMOOTH",
"1261 1188 OFFCURVE",
"1304 1256 OFFCURVE",
"1350 1386 CURVE",
"1345 1383 OFFCURVE",
"1338 1382 OFFCURVE",
"1329 1382 CURVE SMOOTH",
"1281 1382 OFFCURVE",
"1177 1421 OFFCURVE",
"1017 1500 CURVE",
"833 1206 LINE",
"833 1073 LINE",
"944 1038 OFFCURVE",
"1000 1001 OFFCURVE",
"1000 963 CURVE SMOOTH",
"1000 243 LINE SMOOTH"
);
}
);
width = 1450;
}
);
note = uni1794;
unicode = 1794;
},
{
glyphname = uni1795;
lastChange = "2021-05-07 10:51:04 +0000";
layers = (
{
layerId = "5714BDDB-2CB7-459F-823B-ADD058C725FB";
paths = (
{
closed = 1;
nodes = (
"1200 1027 OFFCURVE",
"1133 1090 OFFCURVE",
"1000 1090 CURVE SMOOTH",
"867 1090 OFFCURVE",
"800 1023 OFFCURVE",
"800 890 CURVE SMOOTH",
"800 777 OFFCURVE",
"850 720 OFFCURVE",
"950 720 CURVE",
"950 192 LINE",
"771 371 LINE SMOOTH",
"748 394 OFFCURVE",
"724 406 OFFCURVE",
"700 406 CURVE SMOOTH",
"677 406 OFFCURVE",
"653 394 OFFCURVE",
"630 371 CURVE SMOOTH",
"450 191 LINE",
"450 1050 LINE",
"387 1086 LINE",
"300 1142 OFFCURVE",
"257 1188 OFFCURVE",
"257 1223 CURVE SMOOTH",
"257 1266 OFFCURVE",
"287 1298 OFFCURVE",
"347 1298 CURVE SMOOTH",
"377 1298 OFFCURVE",
"419 1278 OFFCURVE",
"472 1239 CURVE SMOOTH",
"525 1199 OFFCURVE",
"618 1173 OFFCURVE",
"751 1161 CURVE SMOOTH",
"775 1158 OFFCURVE",
"798 1157 OFFCURVE",
"820 1157 CURVE SMOOTH",
"921 1157 OFFCURVE",
"1006 1180 OFFCURVE",
"1075 1225 CURVE SMOOTH",
"1158 1280 OFFCURVE",
"1200 1364 OFFCURVE",
"1200 1476 CURVE SMOOTH",
"1200 1639 OFFCURVE",
"1110 1720 OFFCURVE",
"930 1720 CURVE SMOOTH",
"843 1720 OFFCURVE",
"800 1695 OFFCURVE",
"800 1645 CURVE",
"900 1635 OFFCURVE",
"950 1579 OFFCURVE",
"950 1476 CURVE SMOOTH",
"950 1335 OFFCURVE",
"913 1280 OFFCURVE",
"830 1280 CURVE SMOOTH",
"792 1280 OFFCURVE",
"700 1330 OFFCURVE",
"553 1431 CURVE",
"479 1477 OFFCURVE",
"430 1500 OFFCURVE",
"407 1500 CURVE SMOOTH",
"384 1500 OFFCURVE",
"328 1464 OFFCURVE",
"237 1393 CURVE SMOOTH",
"168 1341 LINE SMOOTH",
"123 1306 OFFCURVE",
"100 1274 OFFCURVE",
"100 1244 CURVE SMOOTH",
"100 1209 LINE SMOOTH",
"100 1155 OFFCURVE",
"133 1112 OFFCURVE",
"200 1079 CURVE",
"200 100 LINE SMOOTH",
"200 33 OFFCURVE",
"242 0 OFFCURVE",
"325 0 CURVE SMOOTH",
"375 0 OFFCURVE",
"425 25 OFFCURVE",
"475 75 CURVE SMOOTH",
"700 300 LINE",
"925 75 LINE SMOOTH",
"975 25 OFFCURVE",
"1025 0 OFFCURVE",
"1075 0 CURVE SMOOTH",
"1158 0 OFFCURVE",
"1200 33 OFFCURVE",
"1200 100 CURVE SMOOTH",
"1200 900 LINE SMOOTH"
);
},
{
closed = 1;
nodes = (
"917 820 OFFCURVE",
"900 843 OFFCURVE",
"900 890 CURVE SMOOTH",
"900 937 OFFCURVE",
"917 960 OFFCURVE",
"950 960 CURVE SMOOTH",
"983 960 OFFCURVE",
"1000 940 OFFCURVE",
"1000 900 CURVE SMOOTH",
"1000 847 OFFCURVE",
"983 820 OFFCURVE",
"950 820 CURVE SMOOTH"
);
}
);
width = 1400;
}
);
note = uni1795;
unicode = 1795;
},
{
glyphname = uni1796;
lastChange = "2021-05-07 10:51:04 +0000";
layers = (
{
layerId = "5714BDDB-2CB7-459F-823B-ADD058C725FB";
paths = (
{
closed = 1;
nodes = (
"1200 1363 OFFCURVE",
"964 1500 OFFCURVE",
"881 1500 CURVE SMOOTH",
"846 1500 OFFCURVE",
"785 1455 OFFCURVE",
"700 1366 CURVE",
"615 1455 OFFCURVE",
"555 1500 OFFCURVE",
"520 1500 CURVE SMOOTH",
"437 1500 OFFCURVE",
"200 1363 OFFCURVE",
"200 1200 CURVE SMOOTH",
"200 200 LINE SMOOTH",
"200 67 OFFCURVE",
"283 0 OFFCURVE",
"450 0 CURVE SMOOTH",
"517 0 OFFCURVE",
"567 25 OFFCURVE",
"600 75 CURVE SMOOTH",
"633 125 OFFCURVE",
"650 200 OFFCURVE",
"650 300 CURVE SMOOTH",
"650 367 OFFCURVE",
"635 417 OFFCURVE",
"606 450 CURVE SMOOTH",
"577 483 OFFCURVE",
"534 500 OFFCURVE",
"475 500 CURVE SMOOTH",
"450 500 LINE",
"450 1200 LINE SMOOTH",
"450 1269 OFFCURVE",
"469 1317 OFFCURVE",
"507 1342 CURVE SMOOTH",
"513 1346 OFFCURVE",
"520 1348 OFFCURVE",
"528 1348 CURVE SMOOTH",
"567 1348 OFFCURVE",
"625 1299 OFFCURVE",
"700 1200 CURVE",
"776 1299 OFFCURVE",
"833 1348 OFFCURVE",
"872 1348 CURVE SMOOTH",
"880 1348 OFFCURVE",
"887 1346 OFFCURVE",
"894 1342 CURVE SMOOTH",
"931 1317 OFFCURVE",
"950 1269 OFFCURVE",
"950 1200 CURVE SMOOTH",
"950 0 LINE",
"1200 0 LINE",
"1200 1200 LINE SMOOTH"
);
},
{
closed = 1;
nodes = (
"544 358 OFFCURVE",
"550 333 OFFCURVE",
"550 300 CURVE SMOOTH",
"550 260 OFFCURVE",
"542 223 OFFCURVE",
"525 190 CURVE SMOOTH",
"508 157 OFFCURVE",
"492 140 OFFCURVE",
"475 140 CURVE SMOOTH",
"458 140 OFFCURVE",
"450 160 OFFCURVE",
"450 200 CURVE SMOOTH",
"450 400 LINE",
"475 400 LINE SMOOTH",
"500 400 OFFCURVE",
"519 392 OFFCURVE",
"531 375 CURVE SMOOTH"
);
}
);
width = 1400;
}
);
note = uni1796;
unicode = 1796;
},
{
glyphname = uni1797;
lastChange = "2021-05-07 10:51:04 +0000";
layers = (
{
layerId = "5714BDDB-2CB7-459F-823B-ADD058C725FB";
paths = (
{
closed = 1;
nodes = (
"354 1142 OFFCURVE",
"307 1188 OFFCURVE",
"307 1223 CURVE SMOOTH",
"307 1266 OFFCURVE",
"337 1298 OFFCURVE",
"397 1298 CURVE SMOOTH",
"427 1298 OFFCURVE",
"469 1278 OFFCURVE",
"522 1239 CURVE SMOOTH",
"575 1199 OFFCURVE",
"634 1179 OFFCURVE",
"698 1179 CURVE SMOOTH",
"735 1179 OFFCURVE",
"771 1199 OFFCURVE",
"806 1239 CURVE SMOOTH",
"840 1278 OFFCURVE",
"869 1298 OFFCURVE",
"892 1298 CURVE SMOOTH",
"915 1298 OFFCURVE",
"951 1278 OFFCURVE",
"998 1239 CURVE SMOOTH",
"1045 1199 OFFCURVE",
"1103 1179 OFFCURVE",
"1172 1179 CURVE SMOOTH",
"1241 1179 OFFCURVE",
"1301 1227 OFFCURVE",
"1350 1323 CURVE",
"1337 1318 OFFCURVE",
"1324 1316 OFFCURVE",
"1309 1316 CURVE SMOOTH",
"1245 1316 OFFCURVE",
"1165 1360 OFFCURVE",
"1068 1447 CURVE SMOOTH",
"1029 1482 OFFCURVE",
"997 1500 OFFCURVE",
"972 1500 CURVE SMOOTH",
"947 1500 OFFCURVE",
"907 1477 OFFCURVE",
"852 1431 CURVE SMOOTH",
"797 1384 OFFCURVE",
"761 1361 OFFCURVE",
"744 1361 CURVE SMOOTH",
"725 1361 OFFCURVE",
"678 1384 OFFCURVE",
"603 1431 CURVE SMOOTH",
"529 1477 OFFCURVE",
"480 1500 OFFCURVE",
"457 1500 CURVE SMOOTH",
"434 1500 OFFCURVE",
"378 1464 OFFCURVE",
"287 1393 CURVE SMOOTH",
"218 1341 LINE SMOOTH",
"173 1306 OFFCURVE",
"150 1274 OFFCURVE",
"150 1244 CURVE SMOOTH",
"150 1209 LINE SMOOTH",
"150 1136 OFFCURVE",
"210 1083 OFFCURVE",
"331 1049 CURVE",
"447 1086 LINE"
);
},
{
closed = 1;
nodes = (
"150 500 OFFCURVE",
"100 417 OFFCURVE",
"100 250 CURVE SMOOTH",
"100 83 OFFCURVE",
"167 0 OFFCURVE",
"300 0 CURVE SMOOTH",
"433 0 OFFCURVE",
"500 67 OFFCURVE",
"500 200 CURVE SMOOTH",
"500 857 LINE SMOOTH",
"500 964 OFFCURVE",
"617 1000 OFFCURVE",
"750 1000 CURVE SMOOTH",
"883 1000 OFFCURVE",
"1000 964 OFFCURVE",
"1000 857 CURVE SMOOTH",
"1000 0 LINE",
"1250 0 LINE",
"1250 857 LINE SMOOTH",
"1250 1034 OFFCURVE",
"1017 1100 OFFCURVE",
"750 1100 CURVE SMOOTH",
"483 1100 OFFCURVE",
"250 1034 OFFCURVE",
"250 857 CURVE SMOOTH",
"250 500 LINE"
);
},
{
closed = 1;
nodes = (
"217 150 OFFCURVE",
"200 183 OFFCURVE",
"200 250 CURVE SMOOTH",
"200 317 OFFCURVE",
"217 350 OFFCURVE",
"250 350 CURVE SMOOTH",
"283 350 OFFCURVE",
"300 317 OFFCURVE",
"300 250 CURVE SMOOTH",
"300 183 OFFCURVE",
"283 150 OFFCURVE",
"250 150 CURVE SMOOTH"
);
}
);
width = 1450;
}
);
note = uni1797;
unicode = 1797;
},
{
glyphname = uni1798;
lastChange = "2021-05-07 10:51:04 +0000";
layers = (
{
layerId = "5714BDDB-2CB7-459F-823B-ADD058C725FB";
paths = (
{
closed = 1;
nodes = (
"500 1021 OFFCURVE",
"452 1063 OFFCURVE",
"355 1106 CURVE SMOOTH",
"209 1170 LINE",
"264 1253 LINE",
"351 1206 OFFCURVE",
"416 1182 OFFCURVE",
"458 1182 CURVE SMOOTH",
"462 1182 OFFCURVE",
"466 1182 OFFCURVE",
"470 1183 CURVE SMOOTH",
"511 1188 OFFCURVE",
"554 1256 OFFCURVE",
"600 1386 CURVE",
"595 1383 OFFCURVE",
"588 1382 OFFCURVE",
"579 1382 CURVE SMOOTH",
"531 1382 OFFCURVE",
"427 1421 OFFCURVE",
"267 1500 CURVE",
"83 1206 LINE",
"83 1073 LINE",
"194 1038 OFFCURVE",
"250 1001 OFFCURVE",
"250 963 CURVE SMOOTH",
"250 243 LINE SMOOTH",
"250 66 OFFCURVE",
"483 0 OFFCURVE",
"750 0 CURVE SMOOTH",
"1017 0 OFFCURVE",
"1250 66 OFFCURVE",
"1250 243 CURVE SMOOTH",
"1250 980 LINE SMOOTH",
"1250 1021 OFFCURVE",
"1202 1063 OFFCURVE",
"1105 1106 CURVE SMOOTH",
"959 1170 LINE",
"1014 1253 LINE",
"1101 1206 OFFCURVE",
"1166 1182 OFFCURVE",
"1208 1182 CURVE SMOOTH",
"1212 1182 OFFCURVE",
"1216 1182 OFFCURVE",
"1220 1183 CURVE SMOOTH",
"1261 1188 OFFCURVE",
"1304 1256 OFFCURVE",
"1350 1386 CURVE",
"1345 1383 OFFCURVE",
"1338 1382 OFFCURVE",
"1329 1382 CURVE SMOOTH",
"1281 1382 OFFCURVE",
"1177 1421 OFFCURVE",
"1017 1500 CURVE",
"833 1206 LINE",
"833 1073 LINE",
"944 1038 OFFCURVE",
"1000 1001 OFFCURVE",
"1000 963 CURVE SMOOTH",
"1000 750 LINE",
"500 750 LINE",
"500 980 LINE SMOOTH"
);
},
{
closed = 1;
nodes = (
"1000 136 OFFCURVE",
"883 100 OFFCURVE",
"750 100 CURVE SMOOTH",
"617 100 OFFCURVE",
"500 136 OFFCURVE",
"500 243 CURVE SMOOTH",
"500 650 LINE",
"1000 650 LINE",
"1000 243 LINE SMOOTH"
);
}
);
width = 1450;
}
);
note = uni1798;
unicode = 1798;
},
{
glyphname = uni1799;
lastChange = "2021-05-07 10:51:04 +0000";
layers = (
{
layerId = "5714BDDB-2CB7-459F-823B-ADD058C725FB";
paths = (
{
closed = 1;
nodes = (
"950 148 OFFCURVE",
"867 100 OFFCURVE",
"700 100 CURVE SMOOTH",
"533 100 OFFCURVE",
"450 148 OFFCURVE",
"450 243 CURVE SMOOTH",
"450 1000 LINE",
"550 1000 OFFCURVE",
"600 1083 OFFCURVE",
"600 1250 CURVE SMOOTH",
"600 1417 OFFCURVE",
"533 1500 OFFCURVE",
"400 1500 CURVE SMOOTH",
"267 1500 OFFCURVE",
"200 1433 OFFCURVE",
"200 1300 CURVE SMOOTH",
"200 243 LINE SMOOTH",
"200 81 OFFCURVE",
"367 0 OFFCURVE",
"700 0 CURVE SMOOTH",
"871 0 OFFCURVE",
"996 19 OFFCURVE",
"1075 58 CURVE",
"1154 19 OFFCURVE",
"1271 0 OFFCURVE",
"1425 0 CURVE SMOOTH",
"1742 0 OFFCURVE",
"1900 81 OFFCURVE",
"1900 243 CURVE SMOOTH",
"1900 980 LINE SMOOTH",
"1900 1021 OFFCURVE",
"1852 1063 OFFCURVE",
"1755 1106 CURVE SMOOTH",
"1609 1170 LINE",
"1664 1253 LINE",
"1751 1206 OFFCURVE",
"1816 1182 OFFCURVE",
"1858 1182 CURVE SMOOTH",
"1862 1182 OFFCURVE",
"1866 1182 OFFCURVE",
"1870 1183 CURVE SMOOTH",
"1911 1188 OFFCURVE",
"1954 1256 OFFCURVE",
"2000 1386 CURVE",
"1995 1383 OFFCURVE",
"1988 1382 OFFCURVE",
"1979 1382 CURVE SMOOTH",
"1931 1382 OFFCURVE",
"1827 1421 OFFCURVE",
"1667 1500 CURVE",
"1483 1206 LINE",
"1483 1073 LINE",
"1594 1038 OFFCURVE",
"1650 1001 OFFCURVE",
"1650 963 CURVE SMOOTH",
"1650 243 LINE SMOOTH",
"1650 148 OFFCURVE",
"1575 100 OFFCURVE",
"1425 100 CURVE SMOOTH",
"1275 100 OFFCURVE",
"1200 148 OFFCURVE",
"1200 243 CURVE SMOOTH",
"1200 980 LINE SMOOTH",
"1200 1021 OFFCURVE",
"1152 1063 OFFCURVE",
"1055 1106 CURVE SMOOTH",
"909 1170 LINE",
"964 1253 LINE",
"1051 1206 OFFCURVE",
"1116 1182 OFFCURVE",
"1158 1182 CURVE SMOOTH",
"1162 1182 OFFCURVE",
"1166 1182 OFFCURVE",
"1170 1183 CURVE SMOOTH",
"1211 1188 OFFCURVE",
"1254 1256 OFFCURVE",
"1300 1386 CURVE",
"1295 1383 OFFCURVE",
"1288 1382 OFFCURVE",
"1279 1382 CURVE SMOOTH",
"1231 1382 OFFCURVE",
"1127 1421 OFFCURVE",
"967 1500 CURVE",
"783 1206 LINE",
"783 1073 LINE",
"894 1038 OFFCURVE",
"950 1001 OFFCURVE",
"950 963 CURVE SMOOTH",
"950 243 LINE SMOOTH"
);
},
{
closed = 1;
nodes = (
"483 1350 OFFCURVE",
"500 1317 OFFCURVE",
"500 1250 CURVE SMOOTH",
"500 1183 OFFCURVE",
"483 1150 OFFCURVE",
"450 1150 CURVE SMOOTH",
"417 1150 OFFCURVE",
"400 1183 OFFCURVE",
"400 1250 CURVE SMOOTH",
"400 1317 OFFCURVE",
"417 1350 OFFCURVE",
"450 1350 CURVE SMOOTH"
);
}
);
width = 2100;
}
);
note = uni1799;
unicode = 1799;
},
{
glyphname = uni179A;
lastChange = "2021-05-07 10:51:04 +0000";
layers = (
{
layerId = "5714BDDB-2CB7-459F-823B-ADD058C725FB";
paths = (
{
closed = 1;
nodes = (
"500 1021 OFFCURVE",
"452 1063 OFFCURVE",
"355 1106 CURVE SMOOTH",
"209 1170 LINE",
"264 1253 LINE",
"351 1206 OFFCURVE",
"416 1182 OFFCURVE",
"458 1182 CURVE SMOOTH",
"462 1182 OFFCURVE",
"466 1182 OFFCURVE",
"470 1183 CURVE SMOOTH",
"511 1188 OFFCURVE",
"554 1256 OFFCURVE",
"600 1386 CURVE",
"595 1383 OFFCURVE",
"588 1382 OFFCURVE",
"579 1382 CURVE SMOOTH",
"531 1382 OFFCURVE",
"427 1421 OFFCURVE",
"267 1500 CURVE",
"83 1206 LINE",
"83 1073 LINE",
"194 1038 OFFCURVE",
"250 1001 OFFCURVE",
"250 963 CURVE SMOOTH",
"250 500 LINE",
"150 500 OFFCURVE",
"100 417 OFFCURVE",
"100 250 CURVE SMOOTH",
"100 83 OFFCURVE",
"167 0 OFFCURVE",
"300 0 CURVE SMOOTH",
"433 0 OFFCURVE",
"500 67 OFFCURVE",
"500 200 CURVE SMOOTH",
"500 980 LINE SMOOTH"
);
},
{
closed = 1;
nodes = (
"217 150 OFFCURVE",
"200 183 OFFCURVE",
"200 250 CURVE SMOOTH",
"200 317 OFFCURVE",
"217 350 OFFCURVE",
"250 350 CURVE SMOOTH",
"283 350 OFFCURVE",
"300 317 OFFCURVE",
"300 250 CURVE SMOOTH",
"300 183 OFFCURVE",
"283 150 OFFCURVE",
"250 150 CURVE SMOOTH"
);
}
);
width = 700;
}
);
note = uni179A;
unicode = 179A;
},
{
glyphname = uni179B;
lastChange = "2021-05-07 10:51:04 +0000";
layers = (
{
layerId = "5714BDDB-2CB7-459F-823B-ADD058C725FB";
paths = (
{
closed = 1;
nodes = (
"1800 1021 OFFCURVE",
"1752 1063 OFFCURVE",
"1655 1106 CURVE SMOOTH",
"1509 1170 LINE",
"1564 1253 LINE",
"1651 1206 OFFCURVE",
"1716 1182 OFFCURVE",
"1758 1182 CURVE SMOOTH",
"1762 1182 OFFCURVE",
"1766 1182 OFFCURVE",
"1770 1183 CURVE SMOOTH",
"1811 1188 OFFCURVE",
"1854 1256 OFFCURVE",
"1900 1386 CURVE",
"1895 1383 OFFCURVE",
"1888 1382 OFFCURVE",
"1879 1382 CURVE SMOOTH",
"1831 1382 OFFCURVE",
"1727 1421 OFFCURVE",
"1567 1500 CURVE",
"1383 1206 LINE",
"1383 1073 LINE",
"1494 1038 OFFCURVE",
"1550 1001 OFFCURVE",
"1550 963 CURVE SMOOTH",
"1550 243 LINE SMOOTH",
"1550 148 OFFCURVE",
"1483 100 OFFCURVE",
"1350 100 CURVE SMOOTH",
"1217 100 OFFCURVE",
"1150 148 OFFCURVE",
"1150 243 CURVE SMOOTH",
"1150 1257 LINE SMOOTH",
"1150 1434 OFFCURVE",
"908 1500 OFFCURVE",
"675 1500 CURVE SMOOTH",
"442 1500 OFFCURVE",
"200 1434 OFFCURVE",
"200 1257 CURVE SMOOTH",
"200 200 LINE SMOOTH",
"200 67 OFFCURVE",
"283 0 OFFCURVE",
"450 0 CURVE SMOOTH",
"517 0 OFFCURVE",
"567 25 OFFCURVE",
"600 75 CURVE SMOOTH",
"633 125 OFFCURVE",
"650 200 OFFCURVE",
"650 300 CURVE SMOOTH",
"650 367 OFFCURVE",
"635 417 OFFCURVE",
"606 450 CURVE SMOOTH",
"577 483 OFFCURVE",
"534 500 OFFCURVE",
"475 500 CURVE SMOOTH",
"450 500 LINE",
"450 1257 LINE SMOOTH",
"450 1364 OFFCURVE",
"575 1400 OFFCURVE",
"675 1400 CURVE SMOOTH",
"775 1400 OFFCURVE",
"900 1364 OFFCURVE",
"900 1257 CURVE SMOOTH",
"900 243 LINE SMOOTH",
"900 81 OFFCURVE",
"1050 0 OFFCURVE",
"1350 0 CURVE SMOOTH",
"1650 0 OFFCURVE",
"1800 81 OFFCURVE",
"1800 243 CURVE SMOOTH",
"1800 980 LINE SMOOTH"
);
},
{
closed = 1;
nodes = (
"544 358 OFFCURVE",
"550 333 OFFCURVE",
"550 300 CURVE SMOOTH",
"550 260 OFFCURVE",
"542 223 OFFCURVE",
"525 190 CURVE SMOOTH",
"508 157 OFFCURVE",
"492 140 OFFCURVE",
"475 140 CURVE SMOOTH",
"458 140 OFFCURVE",
"450 160 OFFCURVE",
"450 200 CURVE SMOOTH",
"450 400 LINE",
"475 400 LINE SMOOTH",
"500 400 OFFCURVE",
"519 392 OFFCURVE",
"531 375 CURVE SMOOTH"
);
}
);
width = 2000;
}
);
note = uni179B;
unicode = 179B;
},
{
glyphname = uni179C;
lastChange = "2021-05-07 10:51:04 +0000";
layers = (
{
layerId = "5714BDDB-2CB7-459F-823B-ADD058C725FB";
paths = (
{
closed = 1;
nodes = (
"460 1427 OFFCURVE",
"457 1427 OFFCURVE",
"454 1427 CURVE SMOOTH",
"429 1427 OFFCURVE",
"395 1439 OFFCURVE",
"351 1462 CURVE SMOOTH",
"302 1487 OFFCURVE",
"274 1500 OFFCURVE",
"267 1500 CURVE SMOOTH",
"260 1500 OFFCURVE",
"199 1402 OFFCURVE",
"83 1206 CURVE",
"83 1073 LINE",
"194 1044 OFFCURVE",
"250 1011 OFFCURVE",
"250 973 CURVE SMOOTH",
"250 500 LINE",
"150 500 OFFCURVE",
"100 417 OFFCURVE",
"100 250 CURVE SMOOTH",
"100 83 OFFCURVE",
"167 0 OFFCURVE",
"300 0 CURVE SMOOTH",
"433 0 OFFCURVE",
"500 67 OFFCURVE",
"500 200 CURVE SMOOTH",
"500 1000 LINE SMOOTH",
"500 1041 OFFCURVE",
"452 1083 OFFCURVE",
"355 1126 CURVE SMOOTH",
"209 1190 LINE",
"264 1263 LINE",
"350 1222 OFFCURVE",
"414 1202 OFFCURVE",
"456 1202 CURVE SMOOTH",
"461 1202 OFFCURVE",
"465 1202 OFFCURVE",
"470 1203 CURVE SMOOTH",
"551 1214 OFFCURVE",
"600 1348 OFFCURVE",
"600 1500 CURVE SMOOTH",
"600 1700 OFFCURVE",
"533 1800 OFFCURVE",
"400 1800 CURVE SMOOTH",
"333 1800 OFFCURVE",
"300 1770 OFFCURVE",
"300 1710 CURVE SMOOTH",
"300 1650 OFFCURVE",
"333 1613 OFFCURVE",
"400 1600 CURVE SMOOTH",
"467 1587 OFFCURVE",
"500 1553 OFFCURVE",
"500 1500 CURVE SMOOTH",
"500 1455 OFFCURVE",
"488 1431 OFFCURVE",
"463 1428 CURVE"
);
},
{
closed = 1;
nodes = (
"217 150 OFFCURVE",
"200 183 OFFCURVE",
"200 250 CURVE SMOOTH",
"200 317 OFFCURVE",
"217 350 OFFCURVE",
"250 350 CURVE SMOOTH",
"283 350 OFFCURVE",
"300 317 OFFCURVE",
"300 250 CURVE SMOOTH",
"300 183 OFFCURVE",
"283 150 OFFCURVE",
"250 150 CURVE SMOOTH"
);
}
);
width = 700;
}
);
note = uni179C;
unicode = 179C;
},
{
glyphname = uni179D;
lastChange = "2021-05-07 10:51:04 +0000";
layers = (
{
layerId = "5714BDDB-2CB7-459F-823B-ADD058C725FB";
paths = (
{
closed = 1;
nodes = (
"304 1142 OFFCURVE",
"257 1188 OFFCURVE",
"257 1223 CURVE SMOOTH",
"257 1266 OFFCURVE",
"287 1298 OFFCURVE",
"347 1298 CURVE SMOOTH",
"377 1298 OFFCURVE",
"419 1278 OFFCURVE",
"472 1239 CURVE SMOOTH",
"525 1199 OFFCURVE",
"584 1179 OFFCURVE",
"648 1179 CURVE SMOOTH",
"685 1179 OFFCURVE",
"721 1199 OFFCURVE",
"756 1239 CURVE SMOOTH",
"790 1278 OFFCURVE",
"819 1298 OFFCURVE",
"842 1298 CURVE SMOOTH",
"865 1298 OFFCURVE",
"901 1278 OFFCURVE",
"948 1239 CURVE SMOOTH",
"995 1199 OFFCURVE",
"1053 1179 OFFCURVE",
"1122 1179 CURVE SMOOTH",
"1191 1179 OFFCURVE",
"1251 1227 OFFCURVE",
"1300 1323 CURVE",
"1287 1318 OFFCURVE",
"1274 1316 OFFCURVE",
"1259 1316 CURVE SMOOTH",
"1195 1316 OFFCURVE",
"1115 1360 OFFCURVE",
"1018 1447 CURVE SMOOTH",
"979 1482 OFFCURVE",
"947 1500 OFFCURVE",
"922 1500 CURVE SMOOTH",
"897 1500 OFFCURVE",
"857 1477 OFFCURVE",
"802 1431 CURVE SMOOTH",
"747 1384 OFFCURVE",
"711 1361 OFFCURVE",
"694 1361 CURVE SMOOTH",
"675 1361 OFFCURVE",
"628 1384 OFFCURVE",
"553 1431 CURVE SMOOTH",
"479 1477 OFFCURVE",
"430 1500 OFFCURVE",
"407 1500 CURVE SMOOTH",
"384 1500 OFFCURVE",
"328 1464 OFFCURVE",
"237 1393 CURVE SMOOTH",
"168 1341 LINE SMOOTH",
"123 1306 OFFCURVE",
"100 1274 OFFCURVE",
"100 1244 CURVE SMOOTH",
"100 1209 LINE SMOOTH",
"100 1136 OFFCURVE",
"160 1083 OFFCURVE",
"281 1049 CURVE",
"397 1086 LINE"
);
},
{
closed = 1;
nodes = (
"1200 1034 OFFCURVE",
"967 1100 OFFCURVE",
"700 1100 CURVE SMOOTH",
"433 1100 OFFCURVE",
"200 1034 OFFCURVE",
"200 857 CURVE SMOOTH",
"200 0 LINE",
"450 0 LINE",
"450 67 OFFCURVE",
"467 142 OFFCURVE",
"500 225 CURVE SMOOTH",
"533 308 OFFCURVE",
"573 350 OFFCURVE",
"620 350 CURVE SMOOTH",
"667 350 OFFCURVE",
"690 317 OFFCURVE",
"690 250 CURVE",
"763 250 OFFCURVE",
"800 292 OFFCURVE",
"800 375 CURVE SMOOTH",
"800 458 OFFCURVE",
"757 500 OFFCURVE",
"670 500 CURVE SMOOTH",
"587 500 OFFCURVE",
"514 459 OFFCURVE",
"450 378 CURVE",
"450 857 LINE SMOOTH",
"450 964 OFFCURVE",
"567 1000 OFFCURVE",
"700 1000 CURVE SMOOTH",
"833 1000 OFFCURVE",
"950 964 OFFCURVE",
"950 857 CURVE SMOOTH",
"950 500 LINE",
"850 500 LINE",
"850 400 LINE",
"950 400 LINE",
"950 0 LINE",
"1200 0 LINE",
"1200 400 LINE",
"1300 400 LINE",
"1300 500 LINE",
"1200 500 LINE",
"1200 857 LINE SMOOTH"
);
}
);
width = 1400;
}
);
note = uni179D;
unicode = 179D;
},
{
glyphname = uni179E;
lastChange = "2021-05-07 10:51:04 +0000";
layers = (
{
layerId = "5714BDDB-2CB7-459F-823B-ADD058C725FB";
paths = (
{
closed = 1;
nodes = (
"250 66 OFFCURVE",
"483 0 OFFCURVE",
"750 0 CURVE SMOOTH",
"1017 0 OFFCURVE",
"1250 66 OFFCURVE",
"1250 243 CURVE SMOOTH",
"1250 700 LINE",
"1350 700 LINE",
"1350 800 LINE",
"1250 800 LINE",
"1250 980 LINE SMOOTH",
"1250 1021 OFFCURVE",
"1202 1063 OFFCURVE",
"1105 1106 CURVE SMOOTH",
"959 1170 LINE",
"1014 1253 LINE",
"1101 1206 OFFCURVE",
"1166 1182 OFFCURVE",
"1208 1182 CURVE SMOOTH",
"1212 1182 OFFCURVE",
"1216 1182 OFFCURVE",
"1220 1183 CURVE SMOOTH",
"1261 1188 OFFCURVE",
"1304 1256 OFFCURVE",
"1350 1386 CURVE",
"1345 1383 OFFCURVE",
"1338 1382 OFFCURVE",
"1329 1382 CURVE SMOOTH",
"1281 1382 OFFCURVE",
"1177 1421 OFFCURVE",
"1017 1500 CURVE",
"833 1206 LINE",
"833 1073 LINE",
"944 1038 OFFCURVE",
"1000 1001 OFFCURVE",
"1000 963 CURVE SMOOTH",
"1000 800 LINE",
"900 800 LINE",
"900 700 LINE",
"1000 700 LINE",
"1000 243 LINE SMOOTH",
"1000 136 OFFCURVE",
"883 100 OFFCURVE",
"750 100 CURVE SMOOTH",
"617 100 OFFCURVE",
"500 136 OFFCURVE",
"500 243 CURVE SMOOTH",
"500 980 LINE SMOOTH",
"500 1021 OFFCURVE",
"452 1063 OFFCURVE",
"355 1106 CURVE SMOOTH",
"209 1170 LINE",
"264 1253 LINE",
"351 1206 OFFCURVE",
"416 1182 OFFCURVE",
"458 1182 CURVE SMOOTH",
"462 1182 OFFCURVE",
"466 1182 OFFCURVE",
"470 1183 CURVE SMOOTH",
"511 1188 OFFCURVE",
"554 1256 OFFCURVE",
"600 1386 CURVE",
"595 1383 OFFCURVE",
"588 1382 OFFCURVE",
"579 1382 CURVE SMOOTH",
"531 1382 OFFCURVE",
"427 1421 OFFCURVE",
"267 1500 CURVE",
"83 1206 LINE",
"83 1073 LINE",
"194 1038 OFFCURVE",
"250 1001 OFFCURVE",
"250 963 CURVE SMOOTH",
"250 243 LINE SMOOTH"
);
}
);
width = 1450;
}
);
note = uni179E;
unicode = 179E;
},
{
glyphname = uni179F;
lastChange = "2021-05-07 10:51:04 +0000";
layers = (
{
layerId = "5714BDDB-2CB7-459F-823B-ADD058C725FB";
paths = (
{
closed = 1;
nodes = (
"1800 1021 OFFCURVE",
"1752 1063 OFFCURVE",
"1655 1106 CURVE SMOOTH",
"1509 1170 LINE",
"1564 1253 LINE",
"1651 1206 OFFCURVE",
"1716 1182 OFFCURVE",
"1758 1182 CURVE SMOOTH",
"1762 1182 OFFCURVE",
"1766 1182 OFFCURVE",
"1770 1183 CURVE SMOOTH",
"1811 1188 OFFCURVE",
"1854 1256 OFFCURVE",
"1900 1386 CURVE",
"1895 1383 OFFCURVE",
"1888 1382 OFFCURVE",
"1879 1382 CURVE SMOOTH",
"1831 1382 OFFCURVE",
"1727 1421 OFFCURVE",
"1567 1500 CURVE",
"1383 1206 LINE",
"1383 1073 LINE",
"1494 1038 OFFCURVE",
"1550 1001 OFFCURVE",
"1550 963 CURVE SMOOTH",
"1550 243 LINE SMOOTH",
"1550 148 OFFCURVE",
"1483 100 OFFCURVE",
"1350 100 CURVE SMOOTH",
"1217 100 OFFCURVE",
"1150 148 OFFCURVE",
"1150 243 CURVE SMOOTH",
"1150 857 LINE SMOOTH",
"1150 946 OFFCURVE",
"1100 1008 OFFCURVE",
"1000 1045 CURVE SMOOTH",
"916 1076 OFFCURVE",
"826 1094 OFFCURVE",
"730 1099 CURVE",
"708 1108 OFFCURVE",
"683 1117 OFFCURVE",
"655 1126 CURVE SMOOTH",
"455 1190 LINE",
"494 1253 LINE",
"633 1212 OFFCURVE",
"732 1192 OFFCURVE",
"792 1192 CURVE SMOOTH",
"799 1192 OFFCURVE",
"806 1192 OFFCURVE",
"812 1193 CURVE SMOOTH",
"868 1198 OFFCURVE",
"917 1276 OFFCURVE",
"960 1426 CURVE",
"945 1420 OFFCURVE",
"925 1417 OFFCURVE",
"900 1417 CURVE SMOOTH",
"853 1417 OFFCURVE",
"788 1428 OFFCURVE",
"707 1450 CURVE SMOOTH",
"582 1483 OFFCURVE",
"516 1500 OFFCURVE",
"507 1500 CURVE SMOOTH",
"498 1500 OFFCURVE",
"423 1402 OFFCURVE",
"283 1206 CURVE",
"283 1113 LINE",
"392 1059 LINE",
"378 1055 OFFCURVE",
"364 1050 OFFCURVE",
"350 1045 CURVE SMOOTH",
"250 1008 OFFCURVE",
"200 946 OFFCURVE",
"200 857 CURVE SMOOTH",
"200 200 LINE SMOOTH",
"200 67 OFFCURVE",
"283 0 OFFCURVE",
"450 0 CURVE SMOOTH",
"517 0 OFFCURVE",
"567 25 OFFCURVE",
"600 75 CURVE SMOOTH",
"633 125 OFFCURVE",
"650 200 OFFCURVE",
"650 300 CURVE SMOOTH",
"650 367 OFFCURVE",
"635 417 OFFCURVE",
"606 450 CURVE SMOOTH",
"577 483 OFFCURVE",
"534 500 OFFCURVE",
"475 500 CURVE SMOOTH",
"450 500 LINE",
"450 857 LINE SMOOTH",
"450 964 OFFCURVE",
"575 1000 OFFCURVE",
"675 1000 CURVE SMOOTH",
"775 1000 OFFCURVE",
"900 964 OFFCURVE",
"900 857 CURVE SMOOTH",
"900 243 LINE SMOOTH",
"900 81 OFFCURVE",
"1050 0 OFFCURVE",
"1350 0 CURVE SMOOTH",
"1650 0 OFFCURVE",
"1800 81 OFFCURVE",
"1800 243 CURVE SMOOTH",
"1800 980 LINE SMOOTH"
);
},
{
closed = 1;
nodes = (
"544 358 OFFCURVE",
"550 333 OFFCURVE",
"550 300 CURVE SMOOTH",
"550 260 OFFCURVE",
"542 223 OFFCURVE",
"525 190 CURVE SMOOTH",
"508 157 OFFCURVE",
"492 140 OFFCURVE",
"475 140 CURVE SMOOTH",
"458 140 OFFCURVE",
"450 160 OFFCURVE",
"450 200 CURVE SMOOTH",
"450 400 LINE",
"475 400 LINE SMOOTH",
"500 400 OFFCURVE",
"519 392 OFFCURVE",
"531 375 CURVE SMOOTH"
);
}
);
width = 2000;
}
);
note = uni179F;
unicode = 179F;
},
{
glyphname = uni17A0;
lastChange = "2021-05-07 10:51:04 +0000";
layers = (
{
layerId = "5714BDDB-2CB7-459F-823B-ADD058C725FB";
paths = (
{
closed = 1;
nodes = (
"500 1021 OFFCURVE",
"452 1063 OFFCURVE",
"355 1106 CURVE SMOOTH",
"209 1170 LINE",
"264 1253 LINE",
"351 1206 OFFCURVE",
"416 1182 OFFCURVE",
"458 1182 CURVE SMOOTH",
"462 1182 OFFCURVE",
"466 1182 OFFCURVE",
"470 1183 CURVE SMOOTH",
"511 1188 OFFCURVE",
"554 1256 OFFCURVE",
"600 1386 CURVE",
"595 1383 OFFCURVE",
"588 1382 OFFCURVE",
"579 1382 CURVE SMOOTH",
"531 1382 OFFCURVE",
"427 1421 OFFCURVE",
"267 1500 CURVE",
"83 1206 LINE",
"83 1073 LINE",
"194 1038 OFFCURVE",
"250 1001 OFFCURVE",
"250 963 CURVE SMOOTH",
"250 243 LINE SMOOTH",
"250 154 OFFCURVE",
"300 92 OFFCURVE",
"400 55 CURVE SMOOTH",
"500 18 OFFCURVE",
"608 0 OFFCURVE",
"725 0 CURVE SMOOTH",
"842 0 OFFCURVE",
"950 18 OFFCURVE",
"1050 55 CURVE SMOOTH",
"1150 92 OFFCURVE",
"1200 154 OFFCURVE",
"1200 243 CURVE SMOOTH",
"1200 1257 LINE SMOOTH",
"1200 1310 OFFCURVE",
"1225 1348 OFFCURVE",
"1275 1369 CURVE SMOOTH",
"1325 1390 OFFCURVE",
"1375 1400 OFFCURVE",
"1425 1400 CURVE SMOOTH",
"1475 1400 OFFCURVE",
"1525 1390 OFFCURVE",
"1575 1369 CURVE SMOOTH",
"1625 1348 OFFCURVE",
"1650 1310 OFFCURVE",
"1650 1257 CURVE SMOOTH",
"1650 0 LINE",
"1900 0 LINE",
"1900 1257 LINE SMOOTH",
"1900 1434 OFFCURVE",
"1658 1500 OFFCURVE",
"1425 1500 CURVE SMOOTH",
"1192 1500 OFFCURVE",
"950 1434 OFFCURVE",
"950 1257 CURVE SMOOTH",
"950 243 LINE SMOOTH",
"950 190 OFFCURVE",
"925 153 OFFCURVE",
"875 132 CURVE SMOOTH",
"825 111 OFFCURVE",
"775 100 OFFCURVE",
"725 100 CURVE SMOOTH",
"675 100 OFFCURVE",
"625 111 OFFCURVE",
"575 132 CURVE SMOOTH",
"525 153 OFFCURVE",
"500 190 OFFCURVE",
"500 243 CURVE SMOOTH",
"500 980 LINE SMOOTH"
);
}
);
width = 2100;
}
);
note = uni17A0;
unicode = 17A0;
},
{
glyphname = uni17A1;
lastChange = "2021-05-07 10:51:04 +0000";
layers = (
{
layerId = "5714BDDB-2CB7-459F-823B-ADD058C725FB";
paths = (
{
closed = 1;
nodes = (
"300 100 OFFCURVE",
"423 0 OFFCURVE",
"670 0 CURVE SMOOTH",
"915 0 OFFCURVE",
"1030 87 OFFCURVE",
"1030 400 CURVE SMOOTH",
"1030 604 LINE",
"1143 617 OFFCURVE",
"1200 657 OFFCURVE",
"1200 725 CURVE SMOOTH",
"1200 808 OFFCURVE",
"1157 850 OFFCURVE",
"1070 850 CURVE SMOOTH",
"895 850 OFFCURVE",
"799 800 OFFCURVE",
"784 701 CURVE",
"561 713 OFFCURVE",
"450 776 OFFCURVE",
"450 1100 CURVE SMOOTH",
"450 1349 OFFCURVE",
"500 1400 OFFCURVE",
"700 1400 CURVE SMOOTH",
"900 1400 OFFCURVE",
"950 1323 OFFCURVE",
"950 1180 CURVE SMOOTH",
"950 1113 OFFCURVE",
"930 1080 OFFCURVE",
"890 1080 CURVE",
"890 1113 OFFCURVE",
"867 1134 OFFCURVE",
"821 1141 CURVE SMOOTH",
"815 1142 OFFCURVE",
"809 1142 OFFCURVE",
"803 1142 CURVE SMOOTH",
"767 1142 OFFCURVE",
"741 1122 OFFCURVE",
"726 1082 CURVE SMOOTH",
"721 1068 OFFCURVE",
"718 1055 OFFCURVE",
"718 1043 CURVE SMOOTH",
"718 1016 OFFCURVE",
"732 994 OFFCURVE",
"760 977 CURVE SMOOTH",
"800 952 OFFCURVE",
"843 940 OFFCURVE",
"890 940 CURVE SMOOTH",
"1097 940 OFFCURVE",
"1200 1020 OFFCURVE",
"1200 1180 CURVE SMOOTH",
"1200 1393 OFFCURVE",
"1033 1500 OFFCURVE",
"700 1500 CURVE SMOOTH",
"367 1500 OFFCURVE",
"200 1367 OFFCURVE",
"200 1100 CURVE SMOOTH",
"200 709 OFFCURVE",
"460 613 OFFCURVE",
"780 601 CURVE",
"780 400 LINE SMOOTH",
"780 200 OFFCURVE",
"743 100 OFFCURVE",
"670 100 CURVE SMOOTH",
"590 100 OFFCURVE",
"550 167 OFFCURVE",
"550 300 CURVE SMOOTH",
"550 500 LINE",
"300 500 LINE",
"300 300 LINE SMOOTH"
);
},
{
closed = 1;
nodes = (
"1900 1021 OFFCURVE",
"1852 1063 OFFCURVE",
"1755 1106 CURVE SMOOTH",
"1609 1170 LINE",
"1664 1253 LINE",
"1751 1206 OFFCURVE",
"1816 1182 OFFCURVE",
"1858 1182 CURVE SMOOTH",
"1862 1182 OFFCURVE",
"1866 1182 OFFCURVE",
"1870 1183 CURVE SMOOTH",
"1911 1188 OFFCURVE",
"1954 1256 OFFCURVE",
"2000 1386 CURVE",
"1995 1383 OFFCURVE",
"1988 1382 OFFCURVE",
"1979 1382 CURVE SMOOTH",
"1931 1382 OFFCURVE",
"1827 1421 OFFCURVE",
"1667 1500 CURVE",
"1483 1206 LINE",
"1483 1073 LINE",
"1594 1038 OFFCURVE",
"1650 1001 OFFCURVE",
"1650 963 CURVE SMOOTH",
"1650 -458 LINE",
"1492 -300 LINE SMOOTH",
"1470 -278 OFFCURVE",
"1448 -267 OFFCURVE",
"1425 -267 CURVE SMOOTH",
"1403 -267 OFFCURVE",
"1381 -278 OFFCURVE",
"1359 -300 CURVE SMOOTH",
"1200 -459 LINE",
"1200 -200 LINE SMOOTH",
"1200 -133 OFFCURVE",
"1133 -100 OFFCURVE",
"1000 -100 CURVE SMOOTH",
"900 -100 OFFCURVE",
"850 -150 OFFCURVE",
"850 -250 CURVE SMOOTH",
"850 -350 OFFCURVE",
"900 -400 OFFCURVE",
"1000 -400 CURVE",
"1000 -550 LINE SMOOTH",
"1000 -617 OFFCURVE",
"1025 -650 OFFCURVE",
"1075 -650 CURVE SMOOTH",
"1125 -650 OFFCURVE",
"1175 -625 OFFCURVE",
"1225 -575 CURVE SMOOTH",
"1425 -375 LINE",
"1625 -575 LINE SMOOTH",
"1675 -625 OFFCURVE",
"1725 -650 OFFCURVE",
"1775 -650 CURVE SMOOTH",
"1858 -650 OFFCURVE",
"1900 -617 OFFCURVE",
"1900 -550 CURVE SMOOTH",
"1900 980 LINE SMOOTH"
);
},
{
closed = 1;
nodes = (
"1100 714 OFFCURVE",
"1078 706 OFFCURVE",
"1035 702 CURVE",
"1042 734 OFFCURVE",
"1054 750 OFFCURVE",
"1070 750 CURVE SMOOTH",
"1090 750 OFFCURVE",
"1100 742 OFFCURVE",
"1100 725 CURVE SMOOTH"
);
},
{
closed = 1;
nodes = (
"967 -300 OFFCURVE",
"950 -283 OFFCURVE",
"950 -250 CURVE SMOOTH",
"950 -217 OFFCURVE",
"967 -200 OFFCURVE",
"1000 -200 CURVE",
"1000 -300 LINE"
);
}
);
width = 2100;
}
);
note = uni17A1;
unicode = 17A1;
},
{
glyphname = uni17A2;
lastChange = "2021-05-07 10:51:04 +0000";
layers = (
{
layerId = "5714BDDB-2CB7-459F-823B-ADD058C725FB";
paths = (
{
closed = 1;
nodes = (
"150 500 OFFCURVE",
"100 417 OFFCURVE",
"100 250 CURVE SMOOTH",
"100 83 OFFCURVE",
"167 0 OFFCURVE",
"300 0 CURVE SMOOTH",
"433 0 OFFCURVE",
"500 67 OFFCURVE",
"500 200 CURVE SMOOTH",
"500 700 LINE",
"1000 700 LINE",
"1000 500 LINE",
"900 500 OFFCURVE",
"850 417 OFFCURVE",
"850 250 CURVE SMOOTH",
"850 83 OFFCURVE",
"917 0 OFFCURVE",
"1050 0 CURVE SMOOTH",
"1183 0 OFFCURVE",
"1250 67 OFFCURVE",
"1250 200 CURVE SMOOTH",
"1250 980 LINE SMOOTH",
"1250 1021 OFFCURVE",
"1202 1063 OFFCURVE",
"1105 1106 CURVE SMOOTH",
"959 1170 LINE",
"1014 1253 LINE",
"1101 1206 OFFCURVE",
"1166 1182 OFFCURVE",
"1208 1182 CURVE SMOOTH",
"1212 1182 OFFCURVE",
"1216 1182 OFFCURVE",
"1220 1183 CURVE SMOOTH",
"1261 1188 OFFCURVE",
"1304 1256 OFFCURVE",
"1350 1386 CURVE",
"1345 1383 OFFCURVE",
"1338 1382 OFFCURVE",
"1329 1382 CURVE SMOOTH",
"1281 1382 OFFCURVE",
"1177 1421 OFFCURVE",
"1017 1500 CURVE",
"833 1206 LINE",
"833 1073 LINE",
"944 1038 OFFCURVE",
"1000 1001 OFFCURVE",
"1000 963 CURVE SMOOTH",
"1000 800 LINE",
"500 800 LINE",
"500 980 LINE SMOOTH",
"500 1021 OFFCURVE",
"452 1063 OFFCURVE",
"355 1106 CURVE SMOOTH",
"209 1170 LINE",
"264 1253 LINE",
"351 1206 OFFCURVE",
"416 1182 OFFCURVE",
"458 1182 CURVE SMOOTH",
"462 1182 OFFCURVE",
"466 1182 OFFCURVE",
"470 1183 CURVE SMOOTH",
"511 1188 OFFCURVE",
"554 1256 OFFCURVE",
"600 1386 CURVE",
"595 1383 OFFCURVE",
"588 1382 OFFCURVE",
"579 1382 CURVE SMOOTH",
"531 1382 OFFCURVE",
"427 1421 OFFCURVE",
"267 1500 CURVE",
"83 1206 LINE",
"83 1073 LINE",
"194 1038 OFFCURVE",
"250 1001 OFFCURVE",
"250 963 CURVE SMOOTH",
"250 500 LINE"
);
},
{
closed = 1;
nodes = (
"217 150 OFFCURVE",
"200 183 OFFCURVE",
"200 250 CURVE SMOOTH",
"200 317 OFFCURVE",
"217 350 OFFCURVE",
"250 350 CURVE SMOOTH",
"283 350 OFFCURVE",
"300 317 OFFCURVE",
"300 250 CURVE SMOOTH",
"300 183 OFFCURVE",
"283 150 OFFCURVE",
"250 150 CURVE SMOOTH"
);
},
{
closed = 1;
nodes = (
"967 150 OFFCURVE",
"950 183 OFFCURVE",
"950 250 CURVE SMOOTH",
"950 317 OFFCURVE",
"967 350 OFFCURVE",
"1000 350 CURVE SMOOTH",
"1033 350 OFFCURVE",
"1050 317 OFFCURVE",
"1050 250 CURVE SMOOTH",
"1050 183 OFFCURVE",
"1033 150 OFFCURVE",
"1000 150 CURVE SMOOTH"
);
}
);
width = 1450;
}
);
note = uni17A2;
unicode = 17A2;
},
{
glyphname = uni17A5;
lastChange = "2021-05-07 10:51:04 +0000";
layers = (
{
layerId = "5714BDDB-2CB7-459F-823B-ADD058C725FB";
paths = (
{
closed = 1;
nodes = (
"300 1142 OFFCURVE",
"257 1188 OFFCURVE",
"257 1223 CURVE SMOOTH",
"257 1266 OFFCURVE",
"287 1298 OFFCURVE",
"347 1298 CURVE SMOOTH",
"377 1298 OFFCURVE",
"419 1278 OFFCURVE",
"472 1239 CURVE SMOOTH",
"525 1199 OFFCURVE",
"618 1173 OFFCURVE",
"751 1161 CURVE SMOOTH",
"775 1158 OFFCURVE",
"798 1157 OFFCURVE",
"820 1157 CURVE SMOOTH",
"921 1157 OFFCURVE",
"1006 1180 OFFCURVE",
"1075 1225 CURVE SMOOTH",
"1158 1280 OFFCURVE",
"1200 1364 OFFCURVE",
"1200 1476 CURVE SMOOTH",
"1200 1639 OFFCURVE",
"1110 1720 OFFCURVE",
"930 1720 CURVE SMOOTH",
"843 1720 OFFCURVE",
"800 1695 OFFCURVE",
"800 1645 CURVE",
"900 1635 OFFCURVE",
"950 1579 OFFCURVE",
"950 1476 CURVE SMOOTH",
"950 1335 OFFCURVE",
"913 1280 OFFCURVE",
"830 1280 CURVE SMOOTH",
"792 1280 OFFCURVE",
"700 1330 OFFCURVE",
"553 1431 CURVE",
"479 1477 OFFCURVE",
"430 1500 OFFCURVE",
"407 1500 CURVE SMOOTH",
"384 1500 OFFCURVE",
"328 1464 OFFCURVE",
"237 1393 CURVE SMOOTH",
"168 1341 LINE SMOOTH",
"123 1306 OFFCURVE",
"100 1274 OFFCURVE",
"100 1244 CURVE SMOOTH",
"100 1209 LINE SMOOTH",
"100 1155 OFFCURVE",
"133 1112 OFFCURVE",
"200 1079 CURVE",
"387 1086 LINE"
);
},
{
closed = 1;
nodes = (
"200 67 OFFCURVE",
"283 0 OFFCURVE",
"450 0 CURVE SMOOTH",
"517 0 OFFCURVE",
"567 25 OFFCURVE",
"600 75 CURVE SMOOTH",
"633 125 OFFCURVE",
"650 200 OFFCURVE",
"650 300 CURVE SMOOTH",
"650 367 OFFCURVE",
"635 417 OFFCURVE",
"606 450 CURVE SMOOTH",
"577 483 OFFCURVE",
"534 500 OFFCURVE",
"475 500 CURVE SMOOTH",
"450 500 LINE",
"450 857 LINE SMOOTH",
"450 964 OFFCURVE",
"567 1000 OFFCURVE",
"700 1000 CURVE SMOOTH",
"833 1000 OFFCURVE",
"950 964 OFFCURVE",
"950 857 CURVE SMOOTH",
"950 0 LINE",
"1200 0 LINE",
"1200 857 LINE SMOOTH",
"1200 1034 OFFCURVE",
"967 1100 OFFCURVE",
"700 1100 CURVE SMOOTH",
"433 1100 OFFCURVE",
"200 1034 OFFCURVE",
"200 857 CURVE SMOOTH",
"200 200 LINE SMOOTH"
);
},
{
closed = 1;
nodes = (
"544 358 OFFCURVE",
"550 333 OFFCURVE",
"550 300 CURVE SMOOTH",
"550 260 OFFCURVE",
"542 223 OFFCURVE",
"525 190 CURVE SMOOTH",
"508 157 OFFCURVE",
"492 140 OFFCURVE",
"475 140 CURVE SMOOTH",
"458 140 OFFCURVE",
"450 160 OFFCURVE",
"450 200 CURVE SMOOTH",
"450 400 LINE",
"475 400 LINE SMOOTH",
"500 400 OFFCURVE",
"519 392 OFFCURVE",
"531 375 CURVE SMOOTH"
);
}
);
width = 1400;
}
);
note = uni17A5;
unicode = 17A5;
},
{
glyphname = uni17A6;
lastChange = "2021-05-07 10:51:05 +0000";
layers = (
{
layerId = "5714BDDB-2CB7-459F-823B-ADD058C725FB";
paths = (
{
closed = 1;
nodes = (
"1900 1041 OFFCURVE",
"1852 1083 OFFCURVE",
"1755 1126 CURVE SMOOTH",
"1609 1190 LINE",
"1674 1273 LINE",
"1755 1226 OFFCURVE",
"1817 1202 OFFCURVE",
"1858 1202 CURVE SMOOTH",
"1862 1202 OFFCURVE",
"1866 1202 OFFCURVE",
"1870 1203 CURVE SMOOTH",
"1951 1214 OFFCURVE",
"2000 1348 OFFCURVE",
"2000 1500 CURVE SMOOTH",
"2000 1700 OFFCURVE",
"1933 1800 OFFCURVE",
"1800 1800 CURVE SMOOTH",
"1733 1800 OFFCURVE",
"1700 1770 OFFCURVE",
"1700 1710 CURVE SMOOTH",
"1700 1650 OFFCURVE",
"1733 1613 OFFCURVE",
"1800 1600 CURVE SMOOTH",
"1867 1587 OFFCURVE",
"1900 1553 OFFCURVE",
"1900 1500 CURVE SMOOTH",
"1900 1455 OFFCURVE",
"1893 1431 OFFCURVE",
"1878 1428 CURVE",
"1876 1427 OFFCURVE",
"1874 1427 OFFCURVE",
"1873 1427 CURVE SMOOTH",
"1857 1427 OFFCURVE",
"1830 1439 OFFCURVE",
"1793 1463 CURVE SMOOTH",
"1756 1488 OFFCURVE",
"1734 1500 OFFCURVE",
"1727 1500 CURVE SMOOTH",
"1720 1500 OFFCURVE",
"1639 1402 OFFCURVE",
"1483 1206 CURVE",
"1483 1113 LINE",
"1594 1038 OFFCURVE",
"1650 981 OFFCURVE",
"1650 943 CURVE SMOOTH",
"1650 -450 LINE SMOOTH",
"1650 -517 OFFCURVE",
"1558 -550 OFFCURVE",
"1375 -550 CURVE SMOOTH",
"1192 -550 OFFCURVE",
"1100 -517 OFFCURVE",
"1100 -450 CURVE SMOOTH",
"1100 -283 LINE SMOOTH",
"1100 -161 OFFCURVE",
"967 -100 OFFCURVE",
"700 -100 CURVE SMOOTH",
"433 -100 OFFCURVE",
"300 -161 OFFCURVE",
"300 -283 CURVE SMOOTH",
"300 -518 LINE SMOOTH",
"300 -606 OFFCURVE",
"333 -650 OFFCURVE",
"400 -650 CURVE SMOOTH",
"467 -650 OFFCURVE",
"525 -627 OFFCURVE",
"575 -581 CURVE SMOOTH",
"625 -535 OFFCURVE",
"650 -491 OFFCURVE",
"650 -448 CURVE SMOOTH",
"650 -369 OFFCURVE",
"600 -329 OFFCURVE",
"500 -329 CURVE",
"500 -283 LINE SMOOTH",
"500 -222 OFFCURVE",
"567 -191 OFFCURVE",
"700 -191 CURVE SMOOTH",
"833 -191 OFFCURVE",
"900 -222 OFFCURVE",
"900 -283 CURVE SMOOTH",
"900 -450 LINE SMOOTH",
"900 -583 OFFCURVE",
"1058 -650 OFFCURVE",
"1375 -650 CURVE SMOOTH",
"1725 -650 OFFCURVE",
"1900 -583 OFFCURVE",
"1900 -450 CURVE SMOOTH",
"1900 1000 LINE SMOOTH"
);
},
{
closed = 1;
nodes = (
"450 1364 OFFCURVE",
"567 1400 OFFCURVE",
"700 1400 CURVE SMOOTH",
"833 1400 OFFCURVE",
"950 1364 OFFCURVE",
"950 1257 CURVE SMOOTH",
"950 0 LINE",
"1200 0 LINE",
"1200 1257 LINE SMOOTH",
"1200 1434 OFFCURVE",
"967 1500 OFFCURVE",
"700 1500 CURVE SMOOTH",
"433 1500 OFFCURVE",
"200 1434 OFFCURVE",
"200 1257 CURVE SMOOTH",
"200 200 LINE SMOOTH",
"200 67 OFFCURVE",
"283 0 OFFCURVE",
"450 0 CURVE SMOOTH",
"517 0 OFFCURVE",
"567 25 OFFCURVE",
"600 75 CURVE SMOOTH",
"633 125 OFFCURVE",
"650 200 OFFCURVE",
"650 300 CURVE SMOOTH",
"650 367 OFFCURVE",
"635 417 OFFCURVE",
"606 450 CURVE SMOOTH",
"577 483 OFFCURVE",
"534 500 OFFCURVE",
"475 500 CURVE SMOOTH",
"450 500 LINE",
"450 1257 LINE SMOOTH"
);
},
{
closed = 1;
nodes = (
"544 358 OFFCURVE",
"550 333 OFFCURVE",
"550 300 CURVE SMOOTH",
"550 260 OFFCURVE",
"542 223 OFFCURVE",
"525 190 CURVE SMOOTH",
"508 157 OFFCURVE",
"492 140 OFFCURVE",
"475 140 CURVE SMOOTH",
"458 140 OFFCURVE",
"450 160 OFFCURVE",
"450 200 CURVE SMOOTH",
"450 400 LINE",
"475 400 LINE SMOOTH",
"500 400 OFFCURVE",
"519 392 OFFCURVE",
"531 375 CURVE SMOOTH"
);
},
{
closed = 1;
nodes = (
"533 -420 OFFCURVE",
"550 -430 OFFCURVE",
"550 -449 CURVE SMOOTH",
"550 -466 OFFCURVE",
"533 -489 OFFCURVE",
"500 -518 CURVE",
"500 -420 LINE"
);
}
);
width = 2100;
}
);
note = uni17A6;
unicode = 17A6;
},
{
glyphname = uni17A7;
lastChange = "2021-05-07 10:51:05 +0000";
layers = (
{
layerId = "5714BDDB-2CB7-459F-823B-ADD058C725FB";
paths = (
{
closed = 1;
nodes = (
"450 1317 OFFCURVE",
"533 1400 OFFCURVE",
"700 1400 CURVE SMOOTH",
"867 1400 OFFCURVE",
"950 1317 OFFCURVE",
"950 1150 CURVE SMOOTH",
"950 972 OFFCURVE",
"871 842 OFFCURVE",
"714 760 CURVE SMOOTH",
"427 616 LINE SMOOTH",
"276 541 OFFCURVE",
"200 453 OFFCURVE",
"200 350 CURVE SMOOTH",
"200 239 OFFCURVE",
"447 0 OFFCURVE",
"650 0 CURVE SMOOTH",
"723 0 OFFCURVE",
"817 33 OFFCURVE",
"933 98 CURVE SMOOTH",
"939 101 OFFCURVE",
"945 105 OFFCURVE",
"950 108 CURVE",
"950 -100 LINE",
"1200 -100 LINE",
"1200 685 LINE",
"950 531 LINE",
"950 242 OFFCURVE",
"773 130 OFFCURVE",
"680 130 CURVE SMOOTH",
"548 130 OFFCURVE",
"450 251 OFFCURVE",
"450 350 CURVE SMOOTH",
"450 418 OFFCURVE",
"468 462 OFFCURVE",
"503 483 CURVE",
"786 627 LINE SMOOTH",
"1062 764 OFFCURVE",
"1200 939 OFFCURVE",
"1200 1150 CURVE SMOOTH",
"1200 1383 OFFCURVE",
"1033 1500 OFFCURVE",
"700 1500 CURVE SMOOTH",
"367 1500 OFFCURVE",
"200 1383 OFFCURVE",
"200 1150 CURVE SMOOTH",
"200 977 OFFCURVE",
"307 890 OFFCURVE",
"520 890 CURVE SMOOTH",
"587 890 OFFCURVE",
"639 908 OFFCURVE",
"676 944 CURVE SMOOTH",
"702 969 OFFCURVE",
"715 998 OFFCURVE",
"715 1031 CURVE SMOOTH",
"715 1044 OFFCURVE",
"713 1058 OFFCURVE",
"708 1073 CURVE SMOOTH",
"695 1116 OFFCURVE",
"667 1137 OFFCURVE",
"624 1137 CURVE SMOOTH",
"617 1137 OFFCURVE",
"609 1136 OFFCURVE",
"600 1135 CURVE SMOOTH",
"547 1126 OFFCURVE",
"520 1095 OFFCURVE",
"520 1042 CURVE SMOOTH",
"520 1030 LINE",
"473 1030 OFFCURVE",
"450 1070 OFFCURVE",
"450 1150 CURVE SMOOTH"
);
}
);
width = 1400;
}
);
note = uni17A7;
unicode = 17A7;
},
{
glyphname = uni17A8;
lastChange = "2021-05-07 10:51:05 +0000";
layers = (
{
layerId = "5714BDDB-2CB7-459F-823B-ADD058C725FB";
paths = (
{
closed = 1;
nodes = (
"304 1542 OFFCURVE",
"257 1588 OFFCURVE",
"257 1623 CURVE SMOOTH",
"257 1666 OFFCURVE",
"287 1698 OFFCURVE",
"347 1698 CURVE SMOOTH",
"377 1698 OFFCURVE",
"419 1678 OFFCURVE",
"472 1639 CURVE SMOOTH",
"525 1599 OFFCURVE",
"584 1579 OFFCURVE",
"648 1579 CURVE SMOOTH",
"685 1579 OFFCURVE",
"721 1599 OFFCURVE",
"756 1639 CURVE SMOOTH",
"790 1678 OFFCURVE",
"819 1698 OFFCURVE",
"842 1698 CURVE SMOOTH",
"865 1698 OFFCURVE",
"901 1678 OFFCURVE",
"948 1639 CURVE SMOOTH",
"995 1599 OFFCURVE",
"1053 1579 OFFCURVE",
"1122 1579 CURVE SMOOTH",
"1191 1579 OFFCURVE",
"1251 1627 OFFCURVE",
"1300 1723 CURVE",
"1287 1718 OFFCURVE",
"1274 1716 OFFCURVE",
"1259 1716 CURVE SMOOTH",
"1195 1716 OFFCURVE",
"1115 1760 OFFCURVE",
"1018 1847 CURVE SMOOTH",
"979 1882 OFFCURVE",
"947 1900 OFFCURVE",
"922 1900 CURVE SMOOTH",
"897 1900 OFFCURVE",
"857 1877 OFFCURVE",
"802 1831 CURVE SMOOTH",
"747 1784 OFFCURVE",
"711 1761 OFFCURVE",
"694 1761 CURVE SMOOTH",
"675 1761 OFFCURVE",
"628 1784 OFFCURVE",
"553 1831 CURVE SMOOTH",
"479 1877 OFFCURVE",
"430 1900 OFFCURVE",
"407 1900 CURVE SMOOTH",
"384 1900 OFFCURVE",
"328 1864 OFFCURVE",
"237 1793 CURVE SMOOTH",
"168 1741 LINE SMOOTH",
"123 1706 OFFCURVE",
"100 1674 OFFCURVE",
"100 1644 CURVE SMOOTH",
"100 1609 LINE SMOOTH",
"100 1536 OFFCURVE",
"160 1483 OFFCURVE",
"281 1449 CURVE",
"397 1486 LINE"
);
},
{
closed = 1;
nodes = (
"450 1317 OFFCURVE",
"533 1400 OFFCURVE",
"700 1400 CURVE SMOOTH",
"867 1400 OFFCURVE",
"950 1317 OFFCURVE",
"950 1150 CURVE SMOOTH",
"950 972 OFFCURVE",
"871 842 OFFCURVE",
"714 760 CURVE SMOOTH",
"427 616 LINE SMOOTH",
"276 541 OFFCURVE",
"200 453 OFFCURVE",
"200 350 CURVE SMOOTH",
"200 239 OFFCURVE",
"447 0 OFFCURVE",
"650 0 CURVE SMOOTH",
"723 0 OFFCURVE",
"817 33 OFFCURVE",
"933 98 CURVE SMOOTH",
"939 101 OFFCURVE",
"945 105 OFFCURVE",
"950 108 CURVE",
"950 -100 LINE",
"1200 -100 LINE",
"1200 685 LINE",
"950 531 LINE",
"950 242 OFFCURVE",
"773 130 OFFCURVE",
"680 130 CURVE SMOOTH",
"548 130 OFFCURVE",
"450 251 OFFCURVE",
"450 350 CURVE SMOOTH",
"450 418 OFFCURVE",
"468 462 OFFCURVE",
"503 483 CURVE",
"786 627 LINE SMOOTH",
"1062 764 OFFCURVE",
"1200 939 OFFCURVE",
"1200 1150 CURVE SMOOTH",
"1200 1383 OFFCURVE",
"1033 1500 OFFCURVE",
"700 1500 CURVE SMOOTH",
"367 1500 OFFCURVE",
"200 1383 OFFCURVE",
"200 1150 CURVE SMOOTH",
"200 977 OFFCURVE",
"307 890 OFFCURVE",
"520 890 CURVE SMOOTH",
"587 890 OFFCURVE",
"639 908 OFFCURVE",
"676 944 CURVE SMOOTH",
"702 969 OFFCURVE",
"715 998 OFFCURVE",
"715 1031 CURVE SMOOTH",
"715 1044 OFFCURVE",
"713 1058 OFFCURVE",
"708 1073 CURVE SMOOTH",
"695 1116 OFFCURVE",
"667 1137 OFFCURVE",
"624 1137 CURVE SMOOTH",
"617 1137 OFFCURVE",
"609 1136 OFFCURVE",
"600 1135 CURVE SMOOTH",
"547 1126 OFFCURVE",
"520 1095 OFFCURVE",
"520 1042 CURVE SMOOTH",
"520 1030 LINE",
"473 1030 OFFCURVE",
"450 1070 OFFCURVE",
"450 1150 CURVE SMOOTH"
);
}
);
width = 1400;
}
);
note = uni17A8;
unicode = 17A8;
},
{
glyphname = uni17A9;
lastChange = "2021-05-07 10:51:05 +0000";
layers = (
{
layerId = "5714BDDB-2CB7-459F-823B-ADD058C725FB";
paths = (
{
closed = 1;
nodes = (
"450 1317 OFFCURVE",
"533 1400 OFFCURVE",
"700 1400 CURVE SMOOTH",
"867 1400 OFFCURVE",
"950 1317 OFFCURVE",
"950 1150 CURVE SMOOTH",
"950 972 OFFCURVE",
"871 842 OFFCURVE",
"714 760 CURVE SMOOTH",
"427 616 LINE SMOOTH",
"276 541 OFFCURVE",
"200 453 OFFCURVE",
"200 350 CURVE SMOOTH",
"200 239 OFFCURVE",
"447 0 OFFCURVE",
"650 0 CURVE SMOOTH",
"723 0 OFFCURVE",
"817 33 OFFCURVE",
"933 98 CURVE SMOOTH",
"939 101 OFFCURVE",
"945 105 OFFCURVE",
"950 108 CURVE",
"950 -100 LINE",
"1150 -100 LINE",
"1150 645 LINE",
"950 531 LINE",
"950 242 OFFCURVE",
"773 130 OFFCURVE",
"680 130 CURVE SMOOTH",
"548 130 OFFCURVE",
"450 251 OFFCURVE",
"450 350 CURVE SMOOTH",
"450 418 OFFCURVE",
"468 462 OFFCURVE",
"503 483 CURVE",
"786 627 LINE SMOOTH",
"1062 764 OFFCURVE",
"1200 939 OFFCURVE",
"1200 1150 CURVE SMOOTH",
"1200 1383 OFFCURVE",
"1033 1500 OFFCURVE",
"700 1500 CURVE SMOOTH",
"367 1500 OFFCURVE",
"200 1383 OFFCURVE",
"200 1150 CURVE SMOOTH",
"200 977 OFFCURVE",
"307 890 OFFCURVE",
"520 890 CURVE SMOOTH",
"587 890 OFFCURVE",
"639 908 OFFCURVE",
"676 944 CURVE SMOOTH",
"702 969 OFFCURVE",
"715 998 OFFCURVE",
"715 1031 CURVE SMOOTH",
"715 1044 OFFCURVE",
"713 1058 OFFCURVE",
"708 1073 CURVE SMOOTH",
"695 1116 OFFCURVE",
"667 1137 OFFCURVE",
"624 1137 CURVE SMOOTH",
"617 1137 OFFCURVE",
"609 1136 OFFCURVE",
"600 1135 CURVE SMOOTH",
"547 1126 OFFCURVE",
"520 1095 OFFCURVE",
"520 1042 CURVE SMOOTH",
"520 1030 LINE",
"473 1030 OFFCURVE",
"450 1070 OFFCURVE",
"450 1150 CURVE SMOOTH"
);
},
{
closed = 1;
nodes = (
"1250 600 LINE",
"1250 -100 LINE",
"1450 -100 LINE",
"1450 600 LINE"
);
}
);
width = 1450;
}
);
note = uni17A9;
unicode = 17A9;
},
{
glyphname = uni17AA;
lastChange = "2021-05-07 10:51:05 +0000";
layers = (
{
layerId = "5714BDDB-2CB7-459F-823B-ADD058C725FB";
paths = (
{
closed = 1;
nodes = (
"300 1542 OFFCURVE",
"257 1588 OFFCURVE",
"257 1623 CURVE SMOOTH",
"257 1666 OFFCURVE",
"287 1698 OFFCURVE",
"347 1698 CURVE SMOOTH",
"377 1698 OFFCURVE",
"419 1678 OFFCURVE",
"472 1639 CURVE SMOOTH",
"525 1599 OFFCURVE",
"618 1573 OFFCURVE",
"751 1561 CURVE SMOOTH",
"775 1558 OFFCURVE",
"798 1557 OFFCURVE",
"820 1557 CURVE SMOOTH",
"921 1557 OFFCURVE",
"1006 1580 OFFCURVE",
"1075 1625 CURVE SMOOTH",
"1158 1680 OFFCURVE",
"1200 1764 OFFCURVE",
"1200 1876 CURVE SMOOTH",
"1200 2039 OFFCURVE",
"1110 2120 OFFCURVE",
"930 2120 CURVE SMOOTH",
"843 2120 OFFCURVE",
"800 2095 OFFCURVE",
"800 2045 CURVE",
"900 2035 OFFCURVE",
"950 1979 OFFCURVE",
"950 1876 CURVE SMOOTH",
"950 1735 OFFCURVE",
"913 1680 OFFCURVE",
"830 1680 CURVE SMOOTH",
"792 1680 OFFCURVE",
"700 1730 OFFCURVE",
"553 1831 CURVE",
"479 1877 OFFCURVE",
"430 1900 OFFCURVE",
"407 1900 CURVE SMOOTH",
"384 1900 OFFCURVE",
"328 1864 OFFCURVE",
"237 1793 CURVE SMOOTH",
"168 1741 LINE SMOOTH",
"123 1706 OFFCURVE",
"100 1674 OFFCURVE",
"100 1644 CURVE SMOOTH",
"100 1609 LINE SMOOTH",
"100 1555 OFFCURVE",
"133 1512 OFFCURVE",
"200 1479 CURVE",
"387 1486 LINE"
);
},
{
closed = 1;
nodes = (
"450 1317 OFFCURVE",
"533 1400 OFFCURVE",
"700 1400 CURVE SMOOTH",
"867 1400 OFFCURVE",
"950 1317 OFFCURVE",
"950 1150 CURVE SMOOTH",
"950 972 OFFCURVE",
"871 842 OFFCURVE",
"714 760 CURVE SMOOTH",
"427 616 LINE SMOOTH",
"276 541 OFFCURVE",
"200 453 OFFCURVE",
"200 350 CURVE SMOOTH",
"200 239 OFFCURVE",
"447 0 OFFCURVE",
"650 0 CURVE SMOOTH",
"723 0 OFFCURVE",
"817 33 OFFCURVE",
"933 98 CURVE SMOOTH",
"939 101 OFFCURVE",
"945 105 OFFCURVE",
"950 108 CURVE",
"950 -100 LINE",
"1200 -100 LINE",
"1200 685 LINE",
"950 531 LINE",
"950 242 OFFCURVE",
"773 130 OFFCURVE",
"680 130 CURVE SMOOTH",
"548 130 OFFCURVE",
"450 251 OFFCURVE",
"450 350 CURVE SMOOTH",
"450 418 OFFCURVE",
"468 462 OFFCURVE",
"503 483 CURVE",
"786 627 LINE SMOOTH",
"1062 764 OFFCURVE",
"1200 939 OFFCURVE",
"1200 1150 CURVE SMOOTH",
"1200 1383 OFFCURVE",
"1033 1500 OFFCURVE",
"700 1500 CURVE SMOOTH",
"367 1500 OFFCURVE",
"200 1383 OFFCURVE",
"200 1150 CURVE SMOOTH",
"200 977 OFFCURVE",
"307 890 OFFCURVE",
"520 890 CURVE SMOOTH",
"587 890 OFFCURVE",
"639 908 OFFCURVE",
"676 944 CURVE SMOOTH",
"702 969 OFFCURVE",
"715 998 OFFCURVE",
"715 1031 CURVE SMOOTH",
"715 1044 OFFCURVE",
"713 1058 OFFCURVE",
"708 1073 CURVE SMOOTH",
"695 1116 OFFCURVE",
"667 1137 OFFCURVE",
"624 1137 CURVE SMOOTH",
"617 1137 OFFCURVE",
"609 1136 OFFCURVE",
"600 1135 CURVE SMOOTH",
"547 1126 OFFCURVE",
"520 1095 OFFCURVE",
"520 1042 CURVE SMOOTH",
"520 1030 LINE",
"473 1030 OFFCURVE",
"450 1070 OFFCURVE",
"450 1150 CURVE SMOOTH"
);
}
);
width = 1400;
}
);
note = uni17AA;
unicode = 17AA;
},
{
glyphname = uni17AB;
lastChange = "2021-05-07 10:51:05 +0000";
layers = (
{
layerId = "5714BDDB-2CB7-459F-823B-ADD058C725FB";
paths = (
{
closed = 1;
nodes = (
"1000 136 OFFCURVE",
"883 100 OFFCURVE",
"750 100 CURVE SMOOTH",
"617 100 OFFCURVE",
"500 136 OFFCURVE",
"500 243 CURVE SMOOTH",
"500 1000 LINE SMOOTH",
"500 1041 OFFCURVE",
"452 1083 OFFCURVE",
"355 1126 CURVE SMOOTH",
"209 1190 LINE",
"274 1273 LINE",
"355 1226 OFFCURVE",
"417 1202 OFFCURVE",
"458 1202 CURVE SMOOTH",
"462 1202 OFFCURVE",
"466 1202 OFFCURVE",
"470 1203 CURVE SMOOTH",
"511 1208 OFFCURVE",
"554 1269 OFFCURVE",
"600 1386 CURVE",
"593 1383 OFFCURVE",
"585 1381 OFFCURVE",
"576 1381 CURVE SMOOTH",
"538 1381 OFFCURVE",
"477 1408 OFFCURVE",
"393 1463 CURVE SMOOTH",
"356 1488 OFFCURVE",
"334 1500 OFFCURVE",
"327 1500 CURVE SMOOTH",
"320 1500 OFFCURVE",
"239 1402 OFFCURVE",
"83 1206 CURVE",
"83 1113 LINE",
"194 1038 OFFCURVE",
"250 981 OFFCURVE",
"250 943 CURVE SMOOTH",
"250 243 LINE SMOOTH",
"250 66 OFFCURVE",
"483 0 OFFCURVE",
"750 0 CURVE SMOOTH",
"1017 0 OFFCURVE",
"1250 66 OFFCURVE",
"1250 243 CURVE SMOOTH",
"1250 1000 LINE SMOOTH",
"1250 1041 OFFCURVE",
"1202 1083 OFFCURVE",
"1105 1126 CURVE SMOOTH",
"959 1190 LINE",
"1024 1273 LINE",
"1105 1226 OFFCURVE",
"1167 1202 OFFCURVE",
"1208 1202 CURVE SMOOTH",
"1212 1202 OFFCURVE",
"1216 1202 OFFCURVE",
"1220 1203 CURVE SMOOTH",
"1261 1208 OFFCURVE",
"1304 1269 OFFCURVE",
"1350 1386 CURVE",
"1343 1383 OFFCURVE",
"1335 1381 OFFCURVE",
"1326 1381 CURVE SMOOTH",
"1288 1381 OFFCURVE",
"1227 1408 OFFCURVE",
"1143 1463 CURVE SMOOTH",
"1106 1488 OFFCURVE",
"1084 1500 OFFCURVE",
"1077 1500 CURVE SMOOTH",
"1070 1500 OFFCURVE",
"989 1402 OFFCURVE",
"833 1206 CURVE",
"833 1113 LINE",
"944 1038 OFFCURVE",
"1000 981 OFFCURVE",
"1000 943 CURVE SMOOTH",
"1000 243 LINE SMOOTH"
);
},
{
closed = 1;
nodes = (
"1150 -145 OFFCURVE",
"1110 -100 OFFCURVE",
"1041 -100 CURVE SMOOTH",
"1034 -100 OFFCURVE",
"1026 -100 OFFCURVE",
"1019 -101 CURVE SMOOTH",
"944 -110 OFFCURVE",
"906 -143 OFFCURVE",
"906 -198 CURVE SMOOTH",
"906 -203 OFFCURVE",
"906 -209 OFFCURVE",
"907 -215 CURVE",
"910 -214 OFFCURVE",
"914 -214 OFFCURVE",
"917 -214 CURVE SMOOTH",
"944 -214 OFFCURVE",
"959 -229 OFFCURVE",
"962 -259 CURVE SMOOTH",
"963 -269 OFFCURVE",
"964 -279 OFFCURVE",
"964 -288 CURVE SMOOTH",
"964 -403 OFFCURVE",
"872 -471 OFFCURVE",
"689 -493 CURVE SMOOTH",
"602 -503 OFFCURVE",
"521 -508 OFFCURVE",
"448 -508 CURVE SMOOTH",
"409 -508 OFFCURVE",
"373 -507 OFFCURVE",
"338 -504 CURVE",
"399 -567 OFFCURVE",
"488 -598 OFFCURVE",
"605 -598 CURVE SMOOTH",
"635 -598 OFFCURVE",
"667 -596 OFFCURVE",
"700 -592 CURVE SMOOTH",
"1009 -555 OFFCURVE",
"1163 -448 OFFCURVE",
"1163 -273 CURVE SMOOTH",
"1163 -260 OFFCURVE",
"1162 -248 OFFCURVE",
"1161 -235 CURVE SMOOTH"
);
}
);
width = 1450;
}
);
note = uni17AB;
unicode = 17AB;
},
{
glyphname = uni17AC;
lastChange = "2021-05-07 10:51:05 +0000";
layers = (
{
layerId = "5714BDDB-2CB7-459F-823B-ADD058C725FB";
paths = (
{
closed = 1;
nodes = (
"1000 136 OFFCURVE",
"883 100 OFFCURVE",
"750 100 CURVE SMOOTH",
"617 100 OFFCURVE",
"500 136 OFFCURVE",
"500 243 CURVE SMOOTH",
"500 1000 LINE SMOOTH",
"500 1041 OFFCURVE",
"452 1083 OFFCURVE",
"355 1126 CURVE SMOOTH",
"209 1190 LINE",
"274 1273 LINE",
"355 1226 OFFCURVE",
"417 1202 OFFCURVE",
"458 1202 CURVE SMOOTH",
"462 1202 OFFCURVE",
"466 1202 OFFCURVE",
"470 1203 CURVE SMOOTH",
"511 1208 OFFCURVE",
"554 1269 OFFCURVE",
"600 1386 CURVE",
"593 1383 OFFCURVE",
"585 1381 OFFCURVE",
"576 1381 CURVE SMOOTH",
"538 1381 OFFCURVE",
"477 1408 OFFCURVE",
"393 1463 CURVE SMOOTH",
"356 1488 OFFCURVE",
"334 1500 OFFCURVE",
"327 1500 CURVE SMOOTH",
"320 1500 OFFCURVE",
"239 1402 OFFCURVE",
"83 1206 CURVE",
"83 1113 LINE",
"194 1038 OFFCURVE",
"250 981 OFFCURVE",
"250 943 CURVE SMOOTH",
"250 243 LINE SMOOTH",
"250 66 OFFCURVE",
"483 0 OFFCURVE",
"750 0 CURVE SMOOTH",
"1017 0 OFFCURVE",
"1250 66 OFFCURVE",
"1250 243 CURVE SMOOTH",
"1250 1000 LINE SMOOTH",
"1250 1041 OFFCURVE",
"1202 1083 OFFCURVE",
"1105 1126 CURVE SMOOTH",
"959 1190 LINE",
"1024 1273 LINE",
"1105 1226 OFFCURVE",
"1167 1202 OFFCURVE",
"1208 1202 CURVE SMOOTH",
"1212 1202 OFFCURVE",
"1216 1202 OFFCURVE",
"1220 1203 CURVE SMOOTH",
"1261 1208 OFFCURVE",
"1304 1269 OFFCURVE",
"1350 1386 CURVE",
"1343 1383 OFFCURVE",
"1335 1381 OFFCURVE",
"1326 1381 CURVE SMOOTH",
"1288 1381 OFFCURVE",
"1227 1408 OFFCURVE",
"1143 1463 CURVE SMOOTH",
"1106 1488 OFFCURVE",
"1084 1500 OFFCURVE",
"1077 1500 CURVE SMOOTH",
"1070 1500 OFFCURVE",
"989 1402 OFFCURVE",
"833 1206 CURVE",
"833 1113 LINE",
"944 1038 OFFCURVE",
"1000 981 OFFCURVE",
"1000 943 CURVE SMOOTH",
"1000 243 LINE SMOOTH"
);
},
{
closed = 1;
nodes = (
"1072 -143 OFFCURVE",
"1031 -99 OFFCURVE",
"964 -99 CURVE SMOOTH",
"957 -99 OFFCURVE",
"949 -100 OFFCURVE",
"940 -101 CURVE SMOOTH",
"866 -112 OFFCURVE",
"829 -144 OFFCURVE",
"829 -199 CURVE SMOOTH",
"829 -205 OFFCURVE",
"829 -211 OFFCURVE",
"830 -218 CURVE",
"834 -217 OFFCURVE",
"838 -217 OFFCURVE",
"842 -217 CURVE SMOOTH",
"867 -217 OFFCURVE",
"882 -231 OFFCURVE",
"887 -260 CURVE SMOOTH",
"888 -271 OFFCURVE",
"889 -282 OFFCURVE",
"889 -293 CURVE SMOOTH",
"889 -406 OFFCURVE",
"799 -475 OFFCURVE",
"619 -501 CURVE SMOOTH",
"519 -515 OFFCURVE",
"428 -522 OFFCURVE",
"345 -522 CURVE SMOOTH",
"318 -522 OFFCURVE",
"293 -521 OFFCURVE",
"268 -520 CURVE",
"327 -579 OFFCURVE",
"412 -608 OFFCURVE",
"523 -608 CURVE SMOOTH",
"557 -608 OFFCURVE",
"593 -605 OFFCURVE",
"632 -600 CURVE SMOOTH",
"783 -578 OFFCURVE",
"897 -541 OFFCURVE",
"972 -488 CURVE",
"1000 -519 OFFCURVE",
"1038 -534 OFFCURVE",
"1085 -534 CURVE SMOOTH",
"1095 -534 OFFCURVE",
"1106 -533 OFFCURVE",
"1117 -532 CURVE SMOOTH",
"1194 -520 OFFCURVE",
"1233 -487 OFFCURVE",
"1233 -432 CURVE SMOOTH",
"1233 -426 OFFCURVE",
"1233 -420 OFFCURVE",
"1232 -414 CURVE",
"1215 -417 OFFCURVE",
"1199 -418 OFFCURVE",
"1184 -418 CURVE SMOOTH",
"1125 -418 OFFCURVE",
"1089 -398 OFFCURVE",
"1074 -359 CURVE",
"1083 -333 OFFCURVE",
"1088 -305 OFFCURVE",
"1088 -274 CURVE SMOOTH",
"1088 -261 OFFCURVE",
"1087 -247 OFFCURVE",
"1085 -232 CURVE SMOOTH"
);
}
);
width = 1450;
}
);
note = uni17AC;
unicode = 17AC;
},
{
glyphname = uni17AD;
lastChange = "2021-05-07 10:51:05 +0000";
layers = (
{
layerId = "5714BDDB-2CB7-459F-823B-ADD058C725FB";
paths = (
{
closed = 1;
nodes = (
"1200 1363 OFFCURVE",
"964 1500 OFFCURVE",
"881 1500 CURVE SMOOTH",
"846 1500 OFFCURVE",
"785 1455 OFFCURVE",
"700 1366 CURVE",
"615 1455 OFFCURVE",
"555 1500 OFFCURVE",
"520 1500 CURVE SMOOTH",
"437 1500 OFFCURVE",
"200 1363 OFFCURVE",
"200 1200 CURVE SMOOTH",
"200 200 LINE SMOOTH",
"200 67 OFFCURVE",
"283 0 OFFCURVE",
"450 0 CURVE SMOOTH",
"517 0 OFFCURVE",
"567 25 OFFCURVE",
"600 75 CURVE SMOOTH",
"633 125 OFFCURVE",
"650 200 OFFCURVE",
"650 300 CURVE SMOOTH",
"650 367 OFFCURVE",
"635 417 OFFCURVE",
"606 450 CURVE SMOOTH",
"577 483 OFFCURVE",
"534 500 OFFCURVE",
"475 500 CURVE SMOOTH",
"450 500 LINE",
"450 1200 LINE SMOOTH",
"450 1269 OFFCURVE",
"469 1317 OFFCURVE",
"507 1342 CURVE SMOOTH",
"513 1346 OFFCURVE",
"520 1348 OFFCURVE",
"528 1348 CURVE SMOOTH",
"567 1348 OFFCURVE",
"625 1299 OFFCURVE",
"700 1200 CURVE",
"776 1299 OFFCURVE",
"833 1348 OFFCURVE",
"872 1348 CURVE SMOOTH",
"880 1348 OFFCURVE",
"887 1346 OFFCURVE",
"894 1342 CURVE SMOOTH",
"931 1317 OFFCURVE",
"950 1269 OFFCURVE",
"950 1200 CURVE SMOOTH",
"950 0 LINE",
"1200 0 LINE",
"1200 1200 LINE SMOOTH"
);
},
{
closed = 1;
nodes = (
"544 358 OFFCURVE",
"550 333 OFFCURVE",
"550 300 CURVE SMOOTH",
"550 260 OFFCURVE",
"542 223 OFFCURVE",
"525 190 CURVE SMOOTH",
"508 157 OFFCURVE",
"492 140 OFFCURVE",
"475 140 CURVE SMOOTH",
"458 140 OFFCURVE",
"450 160 OFFCURVE",
"450 200 CURVE SMOOTH",
"450 400 LINE",
"475 400 LINE SMOOTH",
"500 400 OFFCURVE",
"519 392 OFFCURVE",
"531 375 CURVE SMOOTH"
);
},
{
closed = 1;
nodes = (
"1100 -145 OFFCURVE",
"1060 -100 OFFCURVE",
"991 -100 CURVE SMOOTH",
"984 -100 OFFCURVE",
"976 -100 OFFCURVE",
"969 -101 CURVE SMOOTH",
"894 -110 OFFCURVE",
"856 -143 OFFCURVE",
"856 -198 CURVE SMOOTH",
"856 -203 OFFCURVE",
"856 -209 OFFCURVE",
"857 -215 CURVE",
"860 -214 OFFCURVE",
"864 -214 OFFCURVE",
"867 -214 CURVE SMOOTH",
"894 -214 OFFCURVE",
"909 -229 OFFCURVE",
"912 -259 CURVE SMOOTH",
"913 -269 OFFCURVE",
"914 -279 OFFCURVE",
"914 -288 CURVE SMOOTH",
"914 -403 OFFCURVE",
"822 -471 OFFCURVE",
"639 -493 CURVE SMOOTH",
"552 -503 OFFCURVE",
"471 -508 OFFCURVE",
"398 -508 CURVE SMOOTH",
"359 -508 OFFCURVE",
"323 -507 OFFCURVE",
"288 -504 CURVE",
"349 -567 OFFCURVE",
"438 -598 OFFCURVE",
"555 -598 CURVE SMOOTH",
"585 -598 OFFCURVE",
"617 -596 OFFCURVE",
"650 -592 CURVE SMOOTH",
"959 -555 OFFCURVE",
"1113 -448 OFFCURVE",
"1113 -273 CURVE SMOOTH",
"1113 -260 OFFCURVE",
"1112 -248 OFFCURVE",
"1111 -235 CURVE SMOOTH"
);
}
);
width = 1400;
}
);
note = uni17AD;
unicode = 17AD;
},
{
glyphname = uni17AE;
lastChange = "2021-05-07 10:51:05 +0000";
layers = (
{
layerId = "5714BDDB-2CB7-459F-823B-ADD058C725FB";
paths = (
{
closed = 1;
nodes = (
"1200 1363 OFFCURVE",
"964 1500 OFFCURVE",
"881 1500 CURVE SMOOTH",
"846 1500 OFFCURVE",
"785 1455 OFFCURVE",
"700 1366 CURVE",
"615 1455 OFFCURVE",
"555 1500 OFFCURVE",
"520 1500 CURVE SMOOTH",
"437 1500 OFFCURVE",
"200 1363 OFFCURVE",
"200 1200 CURVE SMOOTH",
"200 200 LINE SMOOTH",
"200 67 OFFCURVE",
"283 0 OFFCURVE",
"450 0 CURVE SMOOTH",
"517 0 OFFCURVE",
"567 25 OFFCURVE",
"600 75 CURVE SMOOTH",
"633 125 OFFCURVE",
"650 200 OFFCURVE",
"650 300 CURVE SMOOTH",
"650 367 OFFCURVE",
"635 417 OFFCURVE",
"606 450 CURVE SMOOTH",
"577 483 OFFCURVE",
"534 500 OFFCURVE",
"475 500 CURVE SMOOTH",
"450 500 LINE",
"450 1200 LINE SMOOTH",
"450 1269 OFFCURVE",
"469 1317 OFFCURVE",
"507 1342 CURVE SMOOTH",
"513 1346 OFFCURVE",
"520 1348 OFFCURVE",
"528 1348 CURVE SMOOTH",
"567 1348 OFFCURVE",
"625 1299 OFFCURVE",
"700 1200 CURVE",
"776 1299 OFFCURVE",
"833 1348 OFFCURVE",
"872 1348 CURVE SMOOTH",
"880 1348 OFFCURVE",
"887 1346 OFFCURVE",
"894 1342 CURVE SMOOTH",
"931 1317 OFFCURVE",
"950 1269 OFFCURVE",
"950 1200 CURVE SMOOTH",
"950 0 LINE",
"1200 0 LINE",
"1200 1200 LINE SMOOTH"
);
},
{
closed = 1;
nodes = (
"544 358 OFFCURVE",
"550 333 OFFCURVE",
"550 300 CURVE SMOOTH",
"550 260 OFFCURVE",
"542 223 OFFCURVE",
"525 190 CURVE SMOOTH",
"508 157 OFFCURVE",
"492 140 OFFCURVE",
"475 140 CURVE SMOOTH",
"458 140 OFFCURVE",
"450 160 OFFCURVE",
"450 200 CURVE SMOOTH",
"450 400 LINE",
"475 400 LINE SMOOTH",
"500 400 OFFCURVE",
"519 392 OFFCURVE",
"531 375 CURVE SMOOTH"
);
},
{
closed = 1;
nodes = (
"1022 -143 OFFCURVE",
"981 -99 OFFCURVE",
"914 -99 CURVE SMOOTH",
"907 -99 OFFCURVE",
"899 -100 OFFCURVE",
"890 -101 CURVE SMOOTH",
"816 -112 OFFCURVE",
"779 -144 OFFCURVE",
"779 -199 CURVE SMOOTH",
"779 -205 OFFCURVE",
"779 -211 OFFCURVE",
"780 -218 CURVE",
"784 -217 OFFCURVE",
"788 -217 OFFCURVE",
"792 -217 CURVE SMOOTH",
"817 -217 OFFCURVE",
"832 -231 OFFCURVE",
"837 -260 CURVE SMOOTH",
"838 -271 OFFCURVE",
"839 -282 OFFCURVE",
"839 -293 CURVE SMOOTH",
"839 -406 OFFCURVE",
"749 -475 OFFCURVE",
"569 -501 CURVE SMOOTH",
"469 -515 OFFCURVE",
"378 -522 OFFCURVE",
"295 -522 CURVE SMOOTH",
"268 -522 OFFCURVE",
"243 -521 OFFCURVE",
"218 -520 CURVE",
"277 -579 OFFCURVE",
"362 -608 OFFCURVE",
"473 -608 CURVE SMOOTH",
"507 -608 OFFCURVE",
"543 -605 OFFCURVE",
"582 -600 CURVE SMOOTH",
"733 -578 OFFCURVE",
"847 -541 OFFCURVE",
"922 -488 CURVE",
"950 -519 OFFCURVE",
"988 -534 OFFCURVE",
"1035 -534 CURVE SMOOTH",
"1045 -534 OFFCURVE",
"1056 -533 OFFCURVE",
"1067 -532 CURVE SMOOTH",
"1144 -520 OFFCURVE",
"1183 -487 OFFCURVE",
"1183 -432 CURVE SMOOTH",
"1183 -426 OFFCURVE",
"1183 -420 OFFCURVE",
"1182 -414 CURVE",
"1165 -417 OFFCURVE",
"1149 -418 OFFCURVE",
"1134 -418 CURVE SMOOTH",
"1075 -418 OFFCURVE",
"1039 -398 OFFCURVE",
"1024 -359 CURVE",
"1033 -333 OFFCURVE",
"1038 -305 OFFCURVE",
"1038 -274 CURVE SMOOTH",
"1038 -261 OFFCURVE",
"1037 -247 OFFCURVE",
"1035 -232 CURVE SMOOTH"
);
}
);
width = 1400;
}
);
note = uni17AE;
unicode = 17AE;
},
{
glyphname = uni17AF;
lastChange = "2021-05-07 10:51:05 +0000";
layers = (
{
layerId = "5714BDDB-2CB7-459F-823B-ADD058C725FB";
paths = (
{
closed = 1;
nodes = (
"1167 1434 OFFCURVE",
"957 1500 OFFCURVE",
"730 1500 CURVE SMOOTH",
"637 1500 OFFCURVE",
"551 1472 OFFCURVE",
"473 1415 CURVE SMOOTH",
"470 1413 OFFCURVE",
"467 1411 OFFCURVE",
"464 1410 CURVE",
"467 1421 OFFCURVE",
"471 1432 OFFCURVE",
"475 1443 CURVE SMOOTH",
"492 1484 OFFCURVE",
"500 1537 OFFCURVE",
"500 1600 CURVE SMOOTH",
"500 1733 OFFCURVE",
"417 1800 OFFCURVE",
"250 1800 CURVE SMOOTH",
"183 1800 OFFCURVE",
"150 1767 OFFCURVE",
"150 1700 CURVE",
"217 1700 OFFCURVE",
"250 1667 OFFCURVE",
"250 1600 CURVE SMOOTH",
"250 1547 OFFCURVE",
"242 1496 OFFCURVE",
"225 1448 CURVE SMOOTH",
"208 1399 OFFCURVE",
"200 1317 OFFCURVE",
"200 1200 CURVE SMOOTH",
"200 1133 OFFCURVE",
"283 1100 OFFCURVE",
"450 1100 CURVE",
"450 1200 LINE SMOOTH",
"450 1289 OFFCURVE",
"637 1400 OFFCURVE",
"730 1400 CURVE SMOOTH",
"823 1400 OFFCURVE",
"930 1364 OFFCURVE",
"950 1257 CURVE",
"950 192 LINE",
"771 371 LINE SMOOTH",
"748 394 OFFCURVE",
"724 406 OFFCURVE",
"700 406 CURVE SMOOTH",
"677 406 OFFCURVE",
"653 394 OFFCURVE",
"630 371 CURVE SMOOTH",
"450 191 LINE",
"450 730 LINE SMOOTH",
"450 843 OFFCURVE",
"392 900 OFFCURVE",
"275 900 CURVE SMOOTH",
"158 900 OFFCURVE",
"100 850 OFFCURVE",
"100 750 CURVE SMOOTH",
"100 670 OFFCURVE",
"133 620 OFFCURVE",
"200 600 CURVE",
"200 100 LINE SMOOTH",
"200 33 OFFCURVE",
"242 0 OFFCURVE",
"325 0 CURVE SMOOTH",
"375 0 OFFCURVE",
"425 25 OFFCURVE",
"475 75 CURVE SMOOTH",
"700 300 LINE",
"925 75 LINE SMOOTH",
"975 25 OFFCURVE",
"1025 0 OFFCURVE",
"1075 0 CURVE SMOOTH",
"1158 0 OFFCURVE",
"1200 33 OFFCURVE",
"1200 100 CURVE SMOOTH",
"1200 1257 LINE"
);
},
{
closed = 1;
nodes = (
"211 767 OFFCURVE",
"221 780 OFFCURVE",
"242 780 CURVE SMOOTH",
"263 780 OFFCURVE",
"273 767 OFFCURVE",
"273 740 CURVE SMOOTH",
"273 713 OFFCURVE",
"263 700 OFFCURVE",
"242 700 CURVE SMOOTH",
"221 700 OFFCURVE",
"211 713 OFFCURVE",
"211 740 CURVE SMOOTH"
);
}
);
width = 1400;
}
);
note = uni17AF;
unicode = 17AF;
},
{
glyphname = uni17B0;
lastChange = "2021-05-07 10:51:05 +0000";
layers = (
{
layerId = "5714BDDB-2CB7-459F-823B-ADD058C725FB";
paths = (
{
closed = 1;
nodes = (
"1200 1363 OFFCURVE",
"964 1500 OFFCURVE",
"881 1500 CURVE SMOOTH",
"846 1500 OFFCURVE",
"785 1455 OFFCURVE",
"700 1366 CURVE",
"615 1455 OFFCURVE",
"555 1500 OFFCURVE",
"520 1500 CURVE SMOOTH",
"437 1500 OFFCURVE",
"200 1363 OFFCURVE",
"200 1200 CURVE SMOOTH",
"200 200 LINE SMOOTH",
"200 67 OFFCURVE",
"283 0 OFFCURVE",
"450 0 CURVE SMOOTH",
"517 0 OFFCURVE",
"567 25 OFFCURVE",
"600 75 CURVE SMOOTH",
"633 125 OFFCURVE",
"650 200 OFFCURVE",
"650 300 CURVE SMOOTH",
"650 367 OFFCURVE",
"635 417 OFFCURVE",
"606 450 CURVE SMOOTH",
"577 483 OFFCURVE",
"534 500 OFFCURVE",
"475 500 CURVE SMOOTH",
"450 500 LINE",
"450 1200 LINE SMOOTH",
"450 1269 OFFCURVE",
"469 1317 OFFCURVE",
"507 1342 CURVE SMOOTH",
"513 1346 OFFCURVE",
"520 1348 OFFCURVE",
"528 1348 CURVE SMOOTH",
"567 1348 OFFCURVE",
"625 1299 OFFCURVE",
"700 1200 CURVE",
"776 1299 OFFCURVE",
"833 1348 OFFCURVE",
"872 1348 CURVE SMOOTH",
"880 1348 OFFCURVE",
"887 1346 OFFCURVE",
"894 1342 CURVE SMOOTH",
"931 1317 OFFCURVE",
"950 1269 OFFCURVE",
"950 1200 CURVE SMOOTH",
"950 0 LINE",
"1200 0 LINE",
"1200 1200 LINE SMOOTH"
);
},
{
closed = 1;
nodes = (
"544 358 OFFCURVE",
"550 333 OFFCURVE",
"550 300 CURVE SMOOTH",
"550 260 OFFCURVE",
"542 223 OFFCURVE",
"525 190 CURVE SMOOTH",
"508 157 OFFCURVE",
"492 140 OFFCURVE",
"475 140 CURVE SMOOTH",
"458 140 OFFCURVE",
"450 160 OFFCURVE",
"450 200 CURVE SMOOTH",
"450 400 LINE",
"475 400 LINE SMOOTH",
"500 400 OFFCURVE",
"519 392 OFFCURVE",
"531 375 CURVE SMOOTH"
);
},
{
closed = 1;
nodes = (
"727 -320 OFFCURVE",
"587 -414 OFFCURVE",
"400 -483 CURVE",
"367 -498 OFFCURVE",
"350 -537 OFFCURVE",
"350 -600 CURVE SMOOTH",
"350 -700 OFFCURVE",
"437 -750 OFFCURVE",
"610 -750 CURVE SMOOTH",
"737 -750 OFFCURVE",
"800 -683 OFFCURVE",
"800 -549 CURVE",
"868 -567 LINE SMOOTH",
"899 -574 OFFCURVE",
"927 -578 OFFCURVE",
"952 -578 CURVE SMOOTH",
"1084 -578 OFFCURVE",
"1150 -481 OFFCURVE",
"1150 -286 CURVE SMOOTH",
"1150 -50 LINE",
"950 -50 LINE",
"821 -201 LINE"
);
},
{
closed = 1;
nodes = (
"950 -407 OFFCURVE",
"935 -468 OFFCURVE",
"905 -468 CURVE SMOOTH",
"901 -468 OFFCURVE",
"897 -467 OFFCURVE",
"892 -464 CURVE",
"749 -421 LINE",
"835 -358 OFFCURVE",
"902 -291 OFFCURVE",
"950 -220 CURVE",
"950 -286 LINE SMOOTH"
);
},
{
closed = 1;
nodes = (
"570 -650 OFFCURVE",
"550 -633 OFFCURVE",
"550 -600 CURVE SMOOTH",
"550 -547 LINE",
"575 -536 OFFCURVE",
"625 -506 OFFCURVE",
"700 -455 CURVE",
"700 -546 LINE SMOOTH",
"700 -615 OFFCURVE",
"670 -650 OFFCURVE",
"610 -650 CURVE SMOOTH"
);
}
);
width = 1400;
}
);
note = uni17B0;
unicode = 17B0;
},
{
glyphname = uni17B1;
lastChange = "2021-05-07 10:51:05 +0000";
layers = (
{
layerId = "5714BDDB-2CB7-459F-823B-ADD058C725FB";
paths = (
{
closed = 1;
nodes = (
"616 1876 OFFCURVE",
"587 1878 OFFCURVE",
"559 1878 CURVE SMOOTH",
"387 1878 OFFCURVE",
"160 1738 OFFCURVE",
"160 1689 CURVE SMOOTH",
"160 1636 LINE SMOOTH",
"160 1581 OFFCURVE",
"246 1529 OFFCURVE",
"417 1480 CURVE",
"522 1514 LINE",
"441 1590 OFFCURVE",
"400 1643 OFFCURVE",
"400 1672 CURVE SMOOTH",
"400 1689 OFFCURVE",
"407 1707 OFFCURVE",
"422 1724 CURVE SMOOTH",
"427 1729 OFFCURVE",
"440 1732 OFFCURVE",
"463 1732 CURVE SMOOTH",
"510 1732 OFFCURVE",
"594 1720 OFFCURVE",
"717 1696 CURVE SMOOTH",
"899 1660 OFFCURVE",
"1000 1615 OFFCURVE",
"1020 1562 CURVE SMOOTH",
"1040 1509 OFFCURVE",
"1075 1482 OFFCURVE",
"1125 1482 CURVE SMOOTH",
"1175 1482 OFFCURVE",
"1200 1515 OFFCURVE",
"1200 1582 CURVE SMOOTH",
"1200 1715 OFFCURVE",
"1016 1812 OFFCURVE",
"647 1871 CURVE SMOOTH"
);
},
{
closed = 1;
nodes = (
"450 1317 OFFCURVE",
"533 1400 OFFCURVE",
"700 1400 CURVE SMOOTH",
"867 1400 OFFCURVE",
"950 1317 OFFCURVE",
"950 1150 CURVE SMOOTH",
"950 972 OFFCURVE",
"871 842 OFFCURVE",
"714 760 CURVE SMOOTH",
"427 616 LINE SMOOTH",
"276 541 OFFCURVE",
"200 453 OFFCURVE",
"200 350 CURVE SMOOTH",
"200 239 OFFCURVE",
"447 0 OFFCURVE",
"650 0 CURVE SMOOTH",
"723 0 OFFCURVE",
"817 33 OFFCURVE",
"933 98 CURVE SMOOTH",
"939 101 OFFCURVE",
"945 105 OFFCURVE",
"950 108 CURVE",
"950 -100 LINE",
"1200 -100 LINE",
"1200 685 LINE",
"950 531 LINE",
"950 242 OFFCURVE",
"773 130 OFFCURVE",
"680 130 CURVE SMOOTH",
"548 130 OFFCURVE",
"450 251 OFFCURVE",
"450 350 CURVE SMOOTH",
"450 418 OFFCURVE",
"468 462 OFFCURVE",
"503 483 CURVE",
"786 627 LINE SMOOTH",
"1062 764 OFFCURVE",
"1200 939 OFFCURVE",
"1200 1150 CURVE SMOOTH",
"1200 1383 OFFCURVE",
"1033 1500 OFFCURVE",
"700 1500 CURVE SMOOTH",
"367 1500 OFFCURVE",
"200 1383 OFFCURVE",
"200 1150 CURVE SMOOTH",
"200 977 OFFCURVE",
"307 890 OFFCURVE",
"520 890 CURVE SMOOTH",
"587 890 OFFCURVE",
"639 908 OFFCURVE",
"676 944 CURVE SMOOTH",
"702 969 OFFCURVE",
"715 998 OFFCURVE",
"715 1031 CURVE SMOOTH",
"715 1044 OFFCURVE",
"713 1058 OFFCURVE",
"708 1073 CURVE SMOOTH",
"695 1116 OFFCURVE",
"667 1137 OFFCURVE",
"624 1137 CURVE SMOOTH",
"617 1137 OFFCURVE",
"609 1136 OFFCURVE",
"600 1135 CURVE SMOOTH",
"547 1126 OFFCURVE",
"520 1095 OFFCURVE",
"520 1042 CURVE SMOOTH",
"520 1030 LINE",
"473 1030 OFFCURVE",
"450 1070 OFFCURVE",
"450 1150 CURVE SMOOTH"
);
}
);
width = 1400;
}
);
note = uni17B1;
unicode = 17B1;
},
{
glyphname = uni17B2;
lastChange = "2021-05-07 10:51:05 +0000";
layers = (
{
layerId = "5714BDDB-2CB7-459F-823B-ADD058C725FB";
paths = (
{
closed = 1;
nodes = (
"805 992 OFFCURVE",
"835 1000 OFFCURVE",
"875 1000 CURVE SMOOTH",
"914 1000 OFFCURVE",
"944 993 OFFCURVE",
"965 978 CURVE SMOOTH",
"988 961 OFFCURVE",
"1000 935 OFFCURVE",
"1000 900 CURVE SMOOTH",
"1000 877 OFFCURVE",
"989 848 OFFCURVE",
"966 813 CURVE SMOOTH",
"929 759 OFFCURVE",
"864 692 OFFCURVE",
"770 611 CURVE SMOOTH",
"597 463 LINE SMOOTH",
"576 445 OFFCURVE",
"565 426 OFFCURVE",
"565 407 CURVE SMOOTH",
"565 391 OFFCURVE",
"573 374 OFFCURVE",
"588 357 CURVE SMOOTH",
"604 338 OFFCURVE",
"622 328 OFFCURVE",
"641 328 CURVE SMOOTH",
"660 328 OFFCURVE",
"679 337 OFFCURVE",
"700 355 CURVE SMOOTH",
"843 480 LINE",
"850 485 OFFCURVE",
"856 491 OFFCURVE",
"862 497 CURVE",
"887 492 OFFCURVE",
"906 480 OFFCURVE",
"921 461 CURVE SMOOTH",
"940 436 OFFCURVE",
"950 413 OFFCURVE",
"950 390 CURVE SMOOTH",
"950 243 LINE SMOOTH",
"950 148 OFFCURVE",
"867 100 OFFCURVE",
"700 100 CURVE SMOOTH",
"533 100 OFFCURVE",
"450 148 OFFCURVE",
"450 243 CURVE SMOOTH",
"450 1257 LINE SMOOTH",
"450 1364 OFFCURVE",
"567 1400 OFFCURVE",
"700 1400 CURVE SMOOTH",
"833 1400 OFFCURVE",
"930 1364 OFFCURVE",
"950 1257 CURVE",
"950 1219 OFFCURVE",
"992 1200 OFFCURVE",
"1075 1200 CURVE SMOOTH",
"1158 1200 OFFCURVE",
"1200 1219 OFFCURVE",
"1200 1257 CURVE",
"1183 1346 OFFCURVE",
"1121 1408 OFFCURVE",
"1013 1445 CURVE",
"938 1482 OFFCURVE",
"833 1500 OFFCURVE",
"700 1500 CURVE SMOOTH",
"433 1500 OFFCURVE",
"200 1434 OFFCURVE",
"200 1257 CURVE SMOOTH",
"200 243 LINE SMOOTH",
"200 81 OFFCURVE",
"367 0 OFFCURVE",
"700 0 CURVE SMOOTH",
"1033 0 OFFCURVE",
"1200 81 OFFCURVE",
"1200 243 CURVE SMOOTH",
"1200 390 LINE SMOOTH",
"1200 530 OFFCURVE",
"1088 595 OFFCURVE",
"1003 623 CURVE",
"1151 736 OFFCURVE",
"1200 787 OFFCURVE",
"1200 900 CURVE SMOOTH",
"1200 1037 OFFCURVE",
"1054 1100 OFFCURVE",
"875 1100 CURVE SMOOTH",
"785 1100 OFFCURVE",
"717 1084 OFFCURVE",
"672 1052 CURVE SMOOTH",
"624 1019 OFFCURVE",
"600 968 OFFCURVE",
"600 900 CURVE SMOOTH",
"600 850 OFFCURVE",
"613 813 OFFCURVE",
"639 788 CURVE SMOOTH",
"665 763 OFFCURVE",
"698 750 OFFCURVE",
"737 750 CURVE SMOOTH",
"779 750 OFFCURVE",
"820 780 OFFCURVE",
"860 840 CURVE",
"787 840 OFFCURVE",
"750 860 OFFCURVE",
"750 900 CURVE SMOOTH",
"750 935 OFFCURVE",
"761 960 OFFCURVE",
"784 977 CURVE SMOOTH"
);
}
);
width = 1400;
}
);
note = uni17B2;
unicode = 17B2;
},
{
glyphname = uni17B3;
lastChange = "2021-05-07 10:51:05 +0000";
layers = (
{
layerId = "5714BDDB-2CB7-459F-823B-ADD058C725FB";
paths = (
{
closed = 1;
nodes = (
"937 1871 OFFCURVE",
"1017 1900 OFFCURVE",
"1150 1900 CURVE SMOOTH",
"1183 1900 OFFCURVE",
"1200 1917 OFFCURVE",
"1200 1950 CURVE SMOOTH",
"1200 1983 OFFCURVE",
"1183 2000 OFFCURVE",
"1150 2000 CURVE SMOOTH",
"957 2000 OFFCURVE",
"844 1946 OFFCURVE",
"811 1839 CURVE",
"761 1851 OFFCURVE",
"706 1862 OFFCURVE",
"647 1871 CURVE SMOOTH",
"616 1876 OFFCURVE",
"587 1878 OFFCURVE",
"559 1878 CURVE SMOOTH",
"387 1878 OFFCURVE",
"150 1818 OFFCURVE",
"150 1689 CURVE SMOOTH",
"150 1636 LINE SMOOTH",
"150 1555 OFFCURVE",
"239 1503 OFFCURVE",
"417 1480 CURVE",
"522 1514 LINE",
"441 1590 OFFCURVE",
"400 1643 OFFCURVE",
"400 1672 CURVE SMOOTH",
"400 1689 OFFCURVE",
"407 1707 OFFCURVE",
"422 1724 CURVE SMOOTH",
"433 1737 OFFCURVE",
"474 1743 OFFCURVE",
"545 1743 CURVE SMOOTH",
"572 1743 OFFCURVE",
"604 1742 OFFCURVE",
"640 1740 CURVE SMOOTH",
"701 1737 OFFCURVE",
"755 1733 OFFCURVE",
"802 1726 CURVE",
"816 1589 OFFCURVE",
"900 1510 OFFCURVE",
"1053 1487 CURVE SMOOTH",
"1075 1484 OFFCURVE",
"1099 1482 OFFCURVE",
"1125 1482 CURVE SMOOTH",
"1175 1482 OFFCURVE",
"1200 1515 OFFCURVE",
"1200 1582 CURVE SMOOTH",
"1200 1679 OFFCURVE",
"1103 1756 OFFCURVE",
"910 1813 CURVE"
);
},
{
closed = 1;
nodes = (
"978 1632 OFFCURVE",
"935 1662 OFFCURVE",
"914 1703 CURVE",
"987 1682 OFFCURVE",
"1030 1652 OFFCURVE",
"1045 1613 CURVE"
);
},
{
closed = 1;
nodes = (
"450 1317 OFFCURVE",
"533 1400 OFFCURVE",
"700 1400 CURVE SMOOTH",
"867 1400 OFFCURVE",
"950 1317 OFFCURVE",
"950 1150 CURVE SMOOTH",
"950 972 OFFCURVE",
"871 842 OFFCURVE",
"714 760 CURVE SMOOTH",
"427 616 LINE SMOOTH",
"276 541 OFFCURVE",
"200 453 OFFCURVE",
"200 350 CURVE SMOOTH",
"200 239 OFFCURVE",
"447 0 OFFCURVE",
"650 0 CURVE SMOOTH",
"723 0 OFFCURVE",
"817 33 OFFCURVE",
"933 98 CURVE SMOOTH",
"939 101 OFFCURVE",
"945 105 OFFCURVE",
"950 108 CURVE",
"950 -100 LINE",
"1200 -100 LINE",
"1200 685 LINE",
"950 531 LINE",
"950 242 OFFCURVE",
"773 130 OFFCURVE",
"680 130 CURVE SMOOTH",
"548 130 OFFCURVE",
"450 251 OFFCURVE",
"450 350 CURVE SMOOTH",
"450 418 OFFCURVE",
"468 462 OFFCURVE",
"503 483 CURVE",
"786 627 LINE SMOOTH",
"1062 764 OFFCURVE",
"1200 939 OFFCURVE",
"1200 1150 CURVE SMOOTH",
"1200 1383 OFFCURVE",
"1033 1500 OFFCURVE",
"700 1500 CURVE SMOOTH",
"367 1500 OFFCURVE",
"200 1383 OFFCURVE",
"200 1150 CURVE SMOOTH",
"200 977 OFFCURVE",
"307 890 OFFCURVE",
"520 890 CURVE SMOOTH",
"587 890 OFFCURVE",
"639 908 OFFCURVE",
"676 944 CURVE SMOOTH",
"702 969 OFFCURVE",
"715 998 OFFCURVE",
"715 1031 CURVE SMOOTH",
"715 1044 OFFCURVE",
"713 1058 OFFCURVE",
"708 1073 CURVE SMOOTH",
"695 1116 OFFCURVE",
"667 1137 OFFCURVE",
"624 1137 CURVE SMOOTH",
"617 1137 OFFCURVE",
"609 1136 OFFCURVE",
"600 1135 CURVE SMOOTH",
"547 1126 OFFCURVE",
"520 1095 OFFCURVE",
"520 1042 CURVE SMOOTH",
"520 1030 LINE",
"473 1030 OFFCURVE",
"450 1070 OFFCURVE",
"450 1150 CURVE SMOOTH"
);
}
);
width = 1400;
}
);
note = uni17B3;
unicode = 17B3;
},
{
glyphname = uni17A3;
lastChange = "2021-05-07 10:51:04 +0000";
layers = (
{
layerId = "5714BDDB-2CB7-459F-823B-ADD058C725FB";
paths = (
{
closed = 1;
nodes = (
"150 500 OFFCURVE",
"100 417 OFFCURVE",
"100 250 CURVE SMOOTH",
"100 83 OFFCURVE",
"167 0 OFFCURVE",
"300 0 CURVE SMOOTH",
"433 0 OFFCURVE",
"500 67 OFFCURVE",
"500 200 CURVE SMOOTH",
"500 700 LINE",
"1000 700 LINE",
"1000 500 LINE",
"900 500 OFFCURVE",
"850 417 OFFCURVE",
"850 250 CURVE SMOOTH",
"850 83 OFFCURVE",
"917 0 OFFCURVE",
"1050 0 CURVE SMOOTH",
"1183 0 OFFCURVE",
"1250 67 OFFCURVE",
"1250 200 CURVE SMOOTH",
"1250 980 LINE SMOOTH",
"1250 1021 OFFCURVE",
"1202 1063 OFFCURVE",
"1105 1106 CURVE SMOOTH",
"959 1170 LINE",
"1014 1253 LINE",
"1101 1206 OFFCURVE",
"1166 1182 OFFCURVE",
"1208 1182 CURVE SMOOTH",
"1212 1182 OFFCURVE",
"1216 1182 OFFCURVE",
"1220 1183 CURVE SMOOTH",
"1261 1188 OFFCURVE",
"1304 1256 OFFCURVE",
"1350 1386 CURVE",
"1345 1383 OFFCURVE",
"1338 1382 OFFCURVE",
"1329 1382 CURVE SMOOTH",
"1281 1382 OFFCURVE",
"1177 1421 OFFCURVE",
"1017 1500 CURVE",
"833 1206 LINE",
"833 1073 LINE",
"944 1038 OFFCURVE",
"1000 1001 OFFCURVE",
"1000 963 CURVE SMOOTH",
"1000 800 LINE",
"500 800 LINE",
"500 980 LINE SMOOTH",
"500 1021 OFFCURVE",
"452 1063 OFFCURVE",
"355 1106 CURVE SMOOTH",
"209 1170 LINE",
"264 1253 LINE",
"351 1206 OFFCURVE",
"416 1182 OFFCURVE",
"458 1182 CURVE SMOOTH",
"462 1182 OFFCURVE",
"466 1182 OFFCURVE",
"470 1183 CURVE SMOOTH",
"511 1188 OFFCURVE",
"554 1256 OFFCURVE",
"600 1386 CURVE",
"595 1383 OFFCURVE",
"588 1382 OFFCURVE",
"579 1382 CURVE SMOOTH",
"531 1382 OFFCURVE",
"427 1421 OFFCURVE",
"267 1500 CURVE",
"83 1206 LINE",
"83 1073 LINE",
"194 1038 OFFCURVE",
"250 1001 OFFCURVE",
"250 963 CURVE SMOOTH",
"250 500 LINE"
);
},
{
closed = 1;
nodes = (
"217 150 OFFCURVE",
"200 183 OFFCURVE",
"200 250 CURVE SMOOTH",
"200 317 OFFCURVE",
"217 350 OFFCURVE",
"250 350 CURVE SMOOTH",
"283 350 OFFCURVE",
"300 317 OFFCURVE",
"300 250 CURVE SMOOTH",
"300 183 OFFCURVE",
"283 150 OFFCURVE",
"250 150 CURVE SMOOTH"
);
},
{
closed = 1;
nodes = (
"967 150 OFFCURVE",
"950 183 OFFCURVE",
"950 250 CURVE SMOOTH",
"950 317 OFFCURVE",
"967 350 OFFCURVE",
"1000 350 CURVE SMOOTH",
"1033 350 OFFCURVE",
"1050 317 OFFCURVE",
"1050 250 CURVE SMOOTH",
"1050 183 OFFCURVE",
"1033 150 OFFCURVE",
"1000 150 CURVE SMOOTH"
);
}
);
width = 1450;
}
);
note = uni17A3;
unicode = 17A3;
},
{
glyphname = uni17A4;
lastChange = "2021-05-07 10:51:04 +0000";
layers = (
{
layerId = "5714BDDB-2CB7-459F-823B-ADD058C725FB";
paths = (
{
closed = 1;
nodes = (
"500 1021 OFFCURVE",
"452 1063 OFFCURVE",
"355 1106 CURVE SMOOTH",
"209 1170 LINE",
"264 1253 LINE",
"351 1206 OFFCURVE",
"416 1182 OFFCURVE",
"458 1182 CURVE SMOOTH",
"462 1182 OFFCURVE",
"466 1182 OFFCURVE",
"470 1183 CURVE SMOOTH",
"511 1188 OFFCURVE",
"554 1256 OFFCURVE",
"600 1386 CURVE",
"595 1383 OFFCURVE",
"588 1382 OFFCURVE",
"579 1382 CURVE SMOOTH",
"531 1382 OFFCURVE",
"427 1421 OFFCURVE",
"267 1500 CURVE",
"83 1206 LINE",
"83 1073 LINE",
"194 1038 OFFCURVE",
"250 1001 OFFCURVE",
"250 963 CURVE SMOOTH",
"250 500 LINE",
"150 500 OFFCURVE",
"100 417 OFFCURVE",
"100 250 CURVE SMOOTH",
"100 83 OFFCURVE",
"167 0 OFFCURVE",
"300 0 CURVE SMOOTH",
"433 0 OFFCURVE",
"500 67 OFFCURVE",
"500 200 CURVE SMOOTH",
"500 700 LINE",
"1000 700 LINE",
"1000 500 LINE",
"900 500 OFFCURVE",
"850 417 OFFCURVE",
"850 250 CURVE SMOOTH",
"850 83 OFFCURVE",
"917 0 OFFCURVE",
"1050 0 CURVE SMOOTH",
"1183 0 OFFCURVE",
"1250 67 OFFCURVE",
"1250 200 CURVE SMOOTH",
"1250 1000 LINE SMOOTH",
"1250 1041 OFFCURVE",
"1202 1083 OFFCURVE",
"1105 1126 CURVE SMOOTH",
"1032 1158 LINE",
"1086 1226 OFFCURVE",
"1165 1260 OFFCURVE",
"1270 1260 CURVE SMOOTH",
"1345 1260 OFFCURVE",
"1427 1241 OFFCURVE",
"1516 1202 CURVE SMOOTH",
"1605 1163 OFFCURVE",
"1650 1129 OFFCURVE",
"1650 1100 CURVE SMOOTH",
"1650 0 LINE",
"1900 0 LINE",
"1900 1100 LINE SMOOTH",
"1900 1225 OFFCURVE",
"1820 1323 OFFCURVE",
"1660 1394 CURVE SMOOTH",
"1599 1421 LINE SMOOTH",
"1479 1474 OFFCURVE",
"1369 1500 OFFCURVE",
"1270 1500 CURVE SMOOTH",
"1163 1500 OFFCURVE",
"1017 1402 OFFCURVE",
"833 1206 CURVE",
"833 1073 LINE",
"944 1038 OFFCURVE",
"1000 1001 OFFCURVE",
"1000 963 CURVE SMOOTH",
"1000 800 LINE",
"500 800 LINE",
"500 980 LINE SMOOTH"
);
},
{
closed = 1;
nodes = (
"217 150 OFFCURVE",
"200 183 OFFCURVE",
"200 250 CURVE SMOOTH",
"200 317 OFFCURVE",
"217 350 OFFCURVE",
"250 350 CURVE SMOOTH",
"283 350 OFFCURVE",
"300 317 OFFCURVE",
"300 250 CURVE SMOOTH",
"300 183 OFFCURVE",
"283 150 OFFCURVE",
"250 150 CURVE SMOOTH"
);
},
{
closed = 1;
nodes = (
"967 150 OFFCURVE",
"950 183 OFFCURVE",
"950 250 CURVE SMOOTH",
"950 317 OFFCURVE",
"967 350 OFFCURVE",
"1000 350 CURVE SMOOTH",
"1033 350 OFFCURVE",
"1050 317 OFFCURVE",
"1050 250 CURVE SMOOTH",
"1050 183 OFFCURVE",
"1033 150 OFFCURVE",
"1000 150 CURVE SMOOTH"
);
}
);
width = 2100;
}
);
note = uni17A4;
unicode = 17A4;
},
{
glyphname = uni17B6;
lastChange = "2021-05-07 10:51:05 +0000";
layers = (
{
layerId = "5714BDDB-2CB7-459F-823B-ADD058C725FB";
paths = (
{
closed = 1;
nodes = (
"-157 1235 OFFCURVE",
"-98 1260 OFFCURVE",
"-47 1260 CURVE SMOOTH",
"62 1260 OFFCURVE",
"200 1157 OFFCURVE",
"200 1098 CURVE SMOOTH",
"200 0 LINE",
"450 0 LINE",
"450 1098 LINE SMOOTH",
"450 1285 OFFCURVE",
"138 1500 OFFCURVE",
"-7 1500 CURVE SMOOTH",
"-68 1500 OFFCURVE",
"-129 1478 OFFCURVE",
"-190 1435 CURVE SMOOTH",
"-227 1409 OFFCURVE",
"-245 1367 OFFCURVE",
"-245 1308 CURVE SMOOTH",
"-245 1249 OFFCURVE",
"-237 1208 OFFCURVE",
"-222 1186 CURVE"
);
}
);
width = 650;
}
);
note = uni17B6;
unicode = 17B6;
},
{
glyphname = uni17BF;
lastChange = "2021-05-07 10:51:05 +0000";
layers = (
{
layerId = "5714BDDB-2CB7-459F-823B-ADD058C725FB";
paths = (
{
closed = 1;
nodes = (
"138 2115 OFFCURVE",
"98 2142 OFFCURVE",
"60 2166 CURVE",
"60 2400 LINE",
"-60 2400 LINE",
"-60 2237 LINE",
"-138 2279 OFFCURVE",
"-198 2300 OFFCURVE",
"-240 2300 CURVE SMOOTH",
"-480 2300 OFFCURVE",
"-600 2200 OFFCURVE",
"-600 2000 CURVE SMOOTH",
"-600 1933 OFFCURVE",
"-520 1900 OFFCURVE",
"-360 1900 CURVE SMOOTH",
"150 1900 LINE SMOOTH",
"217 1900 OFFCURVE",
"250 1833 OFFCURVE",
"250 1700 CURVE SMOOTH",
"250 -400 LINE SMOOTH",
"250 -533 OFFCURVE",
"206 -550 OFFCURVE",
"25 -550 CURVE SMOOTH",
"-154 -550 OFFCURVE",
"-200 -536 OFFCURVE",
"-200 -400 CURVE SMOOTH",
"-200 -150 LINE",
"-400 -150 LINE",
"-400 -400 LINE SMOOTH",
"-400 -603 OFFCURVE",
"-254 -650 OFFCURVE",
"25 -650 CURVE SMOOTH",
"305 -650 OFFCURVE",
"500 -601 OFFCURVE",
"500 -400 CURVE SMOOTH",
"500 1700 LINE SMOOTH",
"500 1815 OFFCURVE",
"433 1915 OFFCURVE",
"300 2000 CURVE",
"300 2350 LINE",
"180 2350 LINE",
"180 2085 LINE"
);
},
{
closed = 1;
nodes = (
"-103 2100 OFFCURVE",
"13 2067 OFFCURVE",
"108 2000 CURVE",
"-400 2000 LINE",
"-400 2067 OFFCURVE",
"-347 2100 OFFCURVE",
"-240 2100 CURVE SMOOTH"
);
}
);
width = 700;
}
);
note = uni17BF;
unicode = 17BF;
},
{
glyphname = uni17C0;
lastChange = "2021-05-07 10:51:05 +0000";
layers = (
{
layerId = "5714BDDB-2CB7-459F-823B-ADD058C725FB";
paths = (
{
closed = 1;
nodes = (
"250 -533 OFFCURVE",
"206 -550 OFFCURVE",
"25 -550 CURVE SMOOTH",
"-154 -550 OFFCURVE",
"-200 -536 OFFCURVE",
"-200 -400 CURVE SMOOTH",
"-200 -150 LINE",
"-400 -150 LINE",
"-400 -400 LINE SMOOTH",
"-400 -603 OFFCURVE",
"-254 -650 OFFCURVE",
"25 -650 CURVE SMOOTH",
"305 -650 OFFCURVE",
"500 -601 OFFCURVE",
"500 -400 CURVE SMOOTH",
"500 1640 LINE SMOOTH",
"500 1880 OFFCURVE",
"355 2000 OFFCURVE",
"66 2000 CURVE SMOOTH",
"-21 2000 OFFCURVE",
"-103 1986 OFFCURVE",
"-180 1958 CURVE",
"-200 1966 OFFCURVE",
"-210 1987 OFFCURVE",
"-210 2021 CURVE SMOOTH",
"-210 2068 OFFCURVE",
"-202 2110 OFFCURVE",
"-185 2149 CURVE SMOOTH",
"-168 2187 OFFCURVE",
"-160 2234 OFFCURVE",
"-160 2291 CURVE SMOOTH",
"-160 2404 OFFCURVE",
"-225 2461 OFFCURVE",
"-354 2461 CURVE SMOOTH",
"-441 2461 OFFCURVE",
"-484 2428 OFFCURVE",
"-484 2361 CURVE",
"-435 2361 OFFCURVE",
"-410 2338 OFFCURVE",
"-410 2291 CURVE SMOOTH",
"-410 2244 OFFCURVE",
"-418 2199 OFFCURVE",
"-435 2154 CURVE SMOOTH",
"-452 2109 OFFCURVE",
"-460 2064 OFFCURVE",
"-460 2021 CURVE SMOOTH",
"-460 1920 OFFCURVE",
"-349 1850 OFFCURVE",
"-228 1850 CURVE SMOOTH",
"-187 1850 OFFCURVE",
"-146 1858 OFFCURVE",
"-105 1875 CURVE SMOOTH",
"-64 1892 OFFCURVE",
"-7 1900 OFFCURVE",
"66 1900 CURVE SMOOTH",
"189 1900 OFFCURVE",
"250 1813 OFFCURVE",
"250 1640 CURVE SMOOTH",
"250 -400 LINE SMOOTH"
);
}
);
width = 700;
}
);
note = uni17C0;
unicode = 17C0;
},
{
glyphname = uni17C1;
lastChange = "2021-05-07 10:51:05 +0000";
layers = (
{
layerId = "5714BDDB-2CB7-459F-823B-ADD058C725FB";
paths = (
{
closed = 1;
nodes = (
"500 1021 OFFCURVE",
"452 1063 OFFCURVE",
"355 1106 CURVE SMOOTH",
"209 1170 LINE",
"264 1253 LINE",
"351 1206 OFFCURVE",
"416 1182 OFFCURVE",
"458 1182 CURVE SMOOTH",
"462 1182 OFFCURVE",
"466 1182 OFFCURVE",
"470 1183 CURVE SMOOTH",
"511 1188 OFFCURVE",
"554 1256 OFFCURVE",
"600 1386 CURVE",
"595 1383 OFFCURVE",
"588 1382 OFFCURVE",
"579 1382 CURVE SMOOTH",
"531 1382 OFFCURVE",
"427 1421 OFFCURVE",
"267 1500 CURVE",
"83 1206 LINE",
"83 1073 LINE",
"194 1038 OFFCURVE",
"250 1001 OFFCURVE",
"250 963 CURVE SMOOTH",
"250 200 LINE SMOOTH",
"250 67 OFFCURVE",
"317 0 OFFCURVE",
"450 0 CURVE SMOOTH",
"583 0 OFFCURVE",
"650 83 OFFCURVE",
"650 250 CURVE SMOOTH",
"650 417 OFFCURVE",
"600 500 OFFCURVE",
"500 500 CURVE",
"500 980 LINE SMOOTH"
);
},
{
closed = 1;
nodes = (
"550 183 OFFCURVE",
"533 150 OFFCURVE",
"500 150 CURVE SMOOTH",
"467 150 OFFCURVE",
"450 183 OFFCURVE",
"450 250 CURVE SMOOTH",
"450 317 OFFCURVE",
"467 350 OFFCURVE",
"500 350 CURVE SMOOTH",
"533 350 OFFCURVE",
"550 317 OFFCURVE",
"550 250 CURVE SMOOTH"
);
}
);
width = 700;
}
);
note = uni17C1;
unicode = 17C1;
},
{
glyphname = uni17C2;
lastChange = "2021-05-07 10:51:05 +0000";
layers = (
{
layerId = "5714BDDB-2CB7-459F-823B-ADD058C725FB";
paths = (
{
closed = 1;
nodes = (
"270 1783 OFFCURVE",
"261 1808 OFFCURVE",
"242 1825 CURVE SMOOTH",
"224 1842 OFFCURVE",
"197 1850 OFFCURVE",
"160 1850 CURVE SMOOTH",
"123 1850 OFFCURVE",
"96 1840 OFFCURVE",
"78 1819 CURVE SMOOTH",
"59 1798 OFFCURVE",
"50 1767 OFFCURVE",
"50 1725 CURVE SMOOTH",
"50 1683 OFFCURVE",
"73 1652 OFFCURVE",
"119 1631 CURVE SMOOTH",
"165 1610 OFFCURVE",
"225 1600 OFFCURVE",
"300 1600 CURVE SMOOTH",
"403 1600 OFFCURVE",
"479 1628 OFFCURVE",
"528 1683 CURVE SMOOTH",
"576 1738 OFFCURVE",
"600 1800 OFFCURVE",
"600 1870 CURVE SMOOTH",
"600 1960 OFFCURVE",
"575 2029 OFFCURVE",
"526 2078 CURVE SMOOTH",
"477 2126 OFFCURVE",
"398 2150 OFFCURVE",
"290 2150 CURVE SMOOTH",
"230 2150 OFFCURVE",
"200 2125 OFFCURVE",
"200 2075 CURVE SMOOTH",
"200 2025 OFFCURVE",
"230 2000 OFFCURVE",
"290 2000 CURVE SMOOTH",
"383 2000 OFFCURVE",
"400 1943 OFFCURVE",
"400 1870 CURVE SMOOTH",
"400 1770 OFFCURVE",
"349 1700 OFFCURVE",
"300 1700 CURVE SMOOTH",
"243 1700 OFFCURVE",
"215 1708 OFFCURVE",
"215 1725 CURVE SMOOTH",
"215 1742 OFFCURVE",
"233 1750 OFFCURVE",
"270 1750 CURVE"
);
},
{
closed = 1;
nodes = (
"500 1021 OFFCURVE",
"452 1063 OFFCURVE",
"355 1106 CURVE SMOOTH",
"209 1170 LINE",
"264 1253 LINE",
"351 1206 OFFCURVE",
"416 1182 OFFCURVE",
"458 1182 CURVE SMOOTH",
"462 1182 OFFCURVE",
"466 1182 OFFCURVE",
"470 1183 CURVE SMOOTH",
"511 1188 OFFCURVE",
"554 1256 OFFCURVE",
"600 1386 CURVE",
"595 1383 OFFCURVE",
"588 1382 OFFCURVE",
"579 1382 CURVE SMOOTH",
"531 1382 OFFCURVE",
"427 1421 OFFCURVE",
"267 1500 CURVE",
"83 1206 LINE",
"83 1073 LINE",
"194 1038 OFFCURVE",
"250 1001 OFFCURVE",
"250 963 CURVE SMOOTH",
"250 200 LINE SMOOTH",
"250 67 OFFCURVE",
"317 0 OFFCURVE",
"450 0 CURVE SMOOTH",
"583 0 OFFCURVE",
"650 83 OFFCURVE",
"650 250 CURVE SMOOTH",
"650 417 OFFCURVE",
"600 500 OFFCURVE",
"500 500 CURVE",
"500 980 LINE SMOOTH"
);
},
{
closed = 1;
nodes = (
"550 183 OFFCURVE",
"533 150 OFFCURVE",
"500 150 CURVE SMOOTH",
"467 150 OFFCURVE",
"450 183 OFFCURVE",
"450 250 CURVE SMOOTH",
"450 317 OFFCURVE",
"467 350 OFFCURVE",
"500 350 CURVE SMOOTH",
"533 350 OFFCURVE",
"550 317 OFFCURVE",
"550 250 CURVE SMOOTH"
);
}
);
width = 700;
}
);
note = uni17C2;
unicode = 17C2;
},
{
glyphname = uni17C3;
lastChange = "2021-05-07 10:51:05 +0000";
layers = (
{
layerId = "5714BDDB-2CB7-459F-823B-ADD058C725FB";
paths = (
{
closed = 1;
nodes = (
"142 1820 OFFCURVE",
"110 1793 OFFCURVE",
"110 1740 CURVE SMOOTH",
"110 1647 OFFCURVE",
"183 1600 OFFCURVE",
"330 1600 CURVE SMOOTH",
"435 1600 OFFCURVE",
"507 1617 OFFCURVE",
"544 1650 CURVE SMOOTH",
"581 1683 OFFCURVE",
"600 1733 OFFCURVE",
"600 1800 CURVE SMOOTH",
"600 1880 OFFCURVE",
"581 1937 OFFCURVE",
"544 1970 CURVE SMOOTH",
"507 2003 OFFCURVE",
"442 2020 OFFCURVE",
"350 2020 CURVE SMOOTH",
"300 2020 LINE",
"300 2080 OFFCURVE",
"288 2125 OFFCURVE",
"264 2155 CURVE SMOOTH",
"240 2185 OFFCURVE",
"202 2200 OFFCURVE",
"150 2200 CURVE SMOOTH",
"83 2200 OFFCURVE",
"50 2167 OFFCURVE",
"50 2100 CURVE",
"90 2100 OFFCURVE",
"110 2073 OFFCURVE",
"110 2020 CURVE SMOOTH",
"110 1953 OFFCURVE",
"173 1920 OFFCURVE",
"300 1920 CURVE SMOOTH",
"330 1920 LINE SMOOTH",
"350 1920 OFFCURVE",
"367 1912 OFFCURVE",
"380 1895 CURVE SMOOTH",
"393 1878 OFFCURVE",
"400 1847 OFFCURVE",
"400 1800 CURVE SMOOTH",
"400 1733 OFFCURVE",
"370 1700 OFFCURVE",
"330 1700 CURVE SMOOTH",
"310 1700 OFFCURVE",
"300 1717 OFFCURVE",
"300 1750 CURVE SMOOTH",
"300 1797 OFFCURVE",
"268 1820 OFFCURVE",
"205 1820 CURVE SMOOTH"
);
},
{
closed = 1;
nodes = (
"500 1021 OFFCURVE",
"452 1063 OFFCURVE",
"355 1106 CURVE SMOOTH",
"209 1170 LINE",
"264 1253 LINE",
"351 1206 OFFCURVE",
"416 1182 OFFCURVE",
"458 1182 CURVE SMOOTH",
"462 1182 OFFCURVE",
"466 1182 OFFCURVE",
"470 1183 CURVE SMOOTH",
"511 1188 OFFCURVE",
"554 1256 OFFCURVE",
"600 1386 CURVE",
"595 1383 OFFCURVE",
"588 1382 OFFCURVE",
"579 1382 CURVE SMOOTH",
"531 1382 OFFCURVE",
"427 1421 OFFCURVE",
"267 1500 CURVE",
"83 1206 LINE",
"83 1073 LINE",
"194 1038 OFFCURVE",
"250 1001 OFFCURVE",
"250 963 CURVE SMOOTH",
"250 200 LINE SMOOTH",
"250 67 OFFCURVE",
"317 0 OFFCURVE",
"450 0 CURVE SMOOTH",
"583 0 OFFCURVE",
"650 83 OFFCURVE",
"650 250 CURVE SMOOTH",
"650 417 OFFCURVE",
"600 500 OFFCURVE",
"500 500 CURVE",
"500 980 LINE SMOOTH"
);
},
{
closed = 1;
nodes = (
"550 183 OFFCURVE",
"533 150 OFFCURVE",
"500 150 CURVE SMOOTH",
"467 150 OFFCURVE",
"450 183 OFFCURVE",
"450 250 CURVE SMOOTH",
"450 317 OFFCURVE",
"467 350 OFFCURVE",
"500 350 CURVE SMOOTH",
"533 350 OFFCURVE",
"550 317 OFFCURVE",
"550 250 CURVE SMOOTH"
);
}
);
width = 700;
}
);
note = uni17C3;
unicode = 17C3;
},
{
glyphname = uni17C4;
lastChange = "2021-05-07 10:51:05 +0000";
layers = (
{
layerId = "5714BDDB-2CB7-459F-823B-ADD058C725FB";
paths = (
{
closed = 1;
nodes = (
"-157 1235 OFFCURVE",
"-98 1260 OFFCURVE",
"-47 1260 CURVE SMOOTH",
"62 1260 OFFCURVE",
"200 1157 OFFCURVE",
"200 1098 CURVE SMOOTH",
"200 0 LINE",
"450 0 LINE",
"450 1098 LINE SMOOTH",
"450 1285 OFFCURVE",
"138 1500 OFFCURVE",
"-7 1500 CURVE SMOOTH",
"-68 1500 OFFCURVE",
"-129 1478 OFFCURVE",
"-190 1435 CURVE SMOOTH",
"-227 1409 OFFCURVE",
"-245 1367 OFFCURVE",
"-245 1308 CURVE SMOOTH",
"-245 1249 OFFCURVE",
"-237 1208 OFFCURVE",
"-222 1186 CURVE"
);
}
);
width = 650;
}
);
note = uni17C4;
unicode = 17C4;
},
{
glyphname = uni17C5;
lastChange = "2021-05-07 10:51:05 +0000";
layers = (
{
layerId = "5714BDDB-2CB7-459F-823B-ADD058C725FB";
paths = (
{
closed = 1;
nodes = (
"483 1171 OFFCURVE",
"500 1225 OFFCURVE",
"500 1260 CURVE SMOOTH",
"500 1687 LINE SMOOTH",
"500 1829 OFFCURVE",
"442 1900 OFFCURVE",
"325 1900 CURVE SMOOTH",
"242 1900 OFFCURVE",
"200 1864 OFFCURVE",
"200 1793 CURVE",
"233 1793 OFFCURVE",
"250 1758 OFFCURVE",
"250 1687 CURVE SMOOTH",
"250 1388 LINE",
"146 1463 OFFCURVE",
"60 1500 OFFCURVE",
"-7 1500 CURVE SMOOTH",
"-68 1500 OFFCURVE",
"-129 1478 OFFCURVE",
"-190 1435 CURVE SMOOTH",
"-227 1409 OFFCURVE",
"-245 1367 OFFCURVE",
"-245 1308 CURVE SMOOTH",
"-245 1249 OFFCURVE",
"-237 1208 OFFCURVE",
"-222 1186 CURVE",
"-157 1235 OFFCURVE",
"-98 1260 OFFCURVE",
"-47 1260 CURVE SMOOTH",
"62 1260 OFFCURVE",
"200 1157 OFFCURVE",
"200 1098 CURVE SMOOTH",
"200 0 LINE",
"450 0 LINE",
"450 1100 LINE"
);
}
);
width = 650;
}
);
note = uni17C5;
unicode = 17C5;
},
{
glyphname = uni17C7;
lastChange = "2021-05-07 10:51:05 +0000";
layers = (
{
layerId = "5714BDDB-2CB7-459F-823B-ADD058C725FB";
paths = (
{
closed = 1;
nodes = (
"670 1376 OFFCURVE",
"586 1450 OFFCURVE",
"435 1450 CURVE SMOOTH",
"284 1450 OFFCURVE",
"200 1376 OFFCURVE",
"200 1225 CURVE SMOOTH",
"200 1074 OFFCURVE",
"284 1000 OFFCURVE",
"435 1000 CURVE SMOOTH",
"586 1000 OFFCURVE",
"670 1074 OFFCURVE",
"670 1225 CURVE SMOOTH"
);
},
{
closed = 1;
nodes = (
"375 1292 OFFCURVE",
"395 1325 OFFCURVE",
"435 1325 CURVE SMOOTH",
"475 1325 OFFCURVE",
"495 1292 OFFCURVE",
"495 1225 CURVE SMOOTH",
"495 1158 OFFCURVE",
"475 1125 OFFCURVE",
"435 1125 CURVE SMOOTH",
"395 1125 OFFCURVE",
"375 1158 OFFCURVE",
"375 1225 CURVE SMOOTH"
);
},
{
closed = 1;
nodes = (
"670 426 OFFCURVE",
"586 500 OFFCURVE",
"435 500 CURVE SMOOTH",
"284 500 OFFCURVE",
"200 426 OFFCURVE",
"200 275 CURVE SMOOTH",
"200 124 OFFCURVE",
"284 50 OFFCURVE",
"435 50 CURVE SMOOTH",
"586 50 OFFCURVE",
"670 124 OFFCURVE",
"670 275 CURVE SMOOTH"
);
},
{
closed = 1;
nodes = (
"375 342 OFFCURVE",
"395 375 OFFCURVE",
"435 375 CURVE SMOOTH",
"475 375 OFFCURVE",
"495 342 OFFCURVE",
"495 275 CURVE SMOOTH",
"495 208 OFFCURVE",
"475 175 OFFCURVE",
"435 175 CURVE SMOOTH",
"395 175 OFFCURVE",
"375 208 OFFCURVE",
"375 275 CURVE SMOOTH"
);
}
);
width = 870;
}
);
note = uni17C7;
unicode = 17C7;
},
{
glyphname = uni17C8;
lastChange = "2021-05-07 10:51:05 +0000";
layers = (
{
layerId = "5714BDDB-2CB7-459F-823B-ADD058C725FB";
paths = (
{
closed = 1;
nodes = (
"433 1098 OFFCURVE",
"481 1108 OFFCURVE",
"519 1129 CURVE SMOOTH",
"556 1150 OFFCURVE",
"583 1181 OFFCURVE",
"600 1222 CURVE",
"567 1202 OFFCURVE",
"542 1192 OFFCURVE",
"525 1192 CURVE SMOOTH",
"508 1192 OFFCURVE",
"500 1202 OFFCURVE",
"500 1222 CURVE SMOOTH",
"500 1306 OFFCURVE",
"439 1378 OFFCURVE",
"355 1378 CURVE SMOOTH",
"271 1378 OFFCURVE",
"200 1307 OFFCURVE",
"200 1223 CURVE SMOOTH",
"200 1139 OFFCURVE",
"291 1098 OFFCURVE",
"375 1098 CURVE SMOOTH"
);
},
{
closed = 1;
nodes = (
"433 150 OFFCURVE",
"481 160 OFFCURVE",
"519 181 CURVE SMOOTH",
"556 202 OFFCURVE",
"583 233 OFFCURVE",
"600 274 CURVE",
"567 254 OFFCURVE",
"542 244 OFFCURVE",
"525 244 CURVE SMOOTH",
"508 244 OFFCURVE",
"500 254 OFFCURVE",
"500 274 CURVE SMOOTH",
"500 358 OFFCURVE",
"439 430 OFFCURVE",
"355 430 CURVE SMOOTH",
"271 430 OFFCURVE",
"200 359 OFFCURVE",
"200 275 CURVE SMOOTH",
"200 191 OFFCURVE",
"291 150 OFFCURVE",
"375 150 CURVE SMOOTH"
);
}
);
width = 800;
}
);
note = uni17C8;
unicode = 17C8;
},
{
glyphname = uni17DC;
lastChange = "2021-05-07 10:51:05 +0000";
layers = (
{
layerId = "5714BDDB-2CB7-459F-823B-ADD058C725FB";
paths = (
{
closed = 1;
nodes = (
"988 -10 OFFCURVE",
"1150 123 OFFCURVE",
"1150 359 CURVE SMOOTH",
"1150 564 OFFCURVE",
"994 658 OFFCURVE",
"675 658 CURVE SMOOTH",
"543 658 OFFCURVE",
"466 671 OFFCURVE",
"422 724 CURVE SMOOTH",
"399 751 OFFCURVE",
"388 790 OFFCURVE",
"388 842 CURVE SMOOTH",
"388 974 OFFCURVE",
"487 1055 OFFCURVE",
"675 1055 CURVE SMOOTH",
"864 1055 OFFCURVE",
"963 1002 OFFCURVE",
"963 910 CURVE SMOOTH",
"963 871 OFFCURVE",
"949 851 OFFCURVE",
"922 851 CURVE SMOOTH",
"882 851 OFFCURVE",
"862 832 OFFCURVE",
"862 793 CURVE SMOOTH",
"862 754 OFFCURVE",
"882 734 OFFCURVE",
"922 734 CURVE SMOOTH",
"1027 734 OFFCURVE",
"1091 750 OFFCURVE",
"1125 802 CURVE SMOOTH",
"1142 827 OFFCURVE",
"1150 863 OFFCURVE",
"1150 910 CURVE SMOOTH",
"1150 1106 OFFCURVE",
"990 1210 OFFCURVE",
"675 1210 CURVE SMOOTH",
"362 1210 OFFCURVE",
"200 1078 OFFCURVE",
"200 842 CURVE SMOOTH",
"200 637 OFFCURVE",
"356 543 OFFCURVE",
"675 543 CURVE SMOOTH",
"808 543 OFFCURVE",
"884 531 OFFCURVE",
"929 478 CURVE SMOOTH",
"952 451 OFFCURVE",
"963 412 OFFCURVE",
"963 360 CURVE SMOOTH",
"963 227 OFFCURVE",
"864 146 OFFCURVE",
"675 146 CURVE SMOOTH",
"486 146 OFFCURVE",
"388 199 OFFCURVE",
"388 292 CURVE SMOOTH",
"388 331 OFFCURVE",
"402 350 OFFCURVE",
"429 350 CURVE SMOOTH",
"468 350 OFFCURVE",
"489 371 OFFCURVE",
"489 408 CURVE SMOOTH",
"489 448 OFFCURVE",
"469 468 OFFCURVE",
"429 468 CURVE SMOOTH",
"324 468 OFFCURVE",
"260 452 OFFCURVE",
"226 401 CURVE SMOOTH",
"209 376 OFFCURVE",
"200 340 OFFCURVE",
"200 293 CURVE SMOOTH",
"200 96 OFFCURVE",
"359 -10 OFFCURVE",
"675 -10 CURVE SMOOTH"
);
}
);
userData = {
assembly = "NPUSHB[ ]	/* 86 values pushed */\0120 8 5 7 5 8 7 128 0 9 6 4 6 9 4 128 0 4 1 6 4 1 126 0 3 2 0 2 3 0 128 0 7 0 6 9 7 6 105 0 1 0 2 3 1 2 105 0 5 5 0 97 10 1 0 0 19 0 78 1 0 54 52 47 45 42 40 38 36 31 29 25 23 18 16 13 11 8 6 0 58 1 58 11 7 22 \012CALL[ ]	/* CallFunction */";
};
width = 1350;
}
);
note = uni17DC;
unicode = 17DC;
},
{
glyphname = uni1789.a;
lastChange = "2021-05-07 10:51:05 +0000";
layers = (
{
layerId = "5714BDDB-2CB7-459F-823B-ADD058C725FB";
paths = (
{
closed = 1;
nodes = (
"1150 1340 OFFCURVE",
"1217 1400 OFFCURVE",
"1350 1400 CURVE SMOOTH",
"1483 1400 OFFCURVE",
"1550 1340 OFFCURVE",
"1550 1207 CURVE SMOOTH",
"1550 0 LINE",
"1800 0 LINE",
"1800 1207 LINE SMOOTH",
"1800 1411 OFFCURVE",
"1617 1500 OFFCURVE",
"1350 1500 CURVE SMOOTH",
"1250 1500 OFFCURVE",
"1167 1477 OFFCURVE",
"1100 1430 CURVE SMOOTH",
"1083 1418 OFFCURVE",
"1069 1404 OFFCURVE",
"1056 1389 CURVE",
"1047 1396 OFFCURVE",
"1038 1404 OFFCURVE",
"1028 1411 CURVE SMOOTH",
"947 1470 OFFCURVE",
"886 1500 OFFCURVE",
"847 1500 CURVE SMOOTH",
"814 1500 OFFCURVE",
"756 1455 OFFCURVE",
"675 1366 CURVE",
"594 1455 OFFCURVE",
"537 1500 OFFCURVE",
"504 1500 CURVE SMOOTH",
"425 1500 OFFCURVE",
"200 1363 OFFCURVE",
"200 1200 CURVE SMOOTH",
"200 200 LINE SMOOTH",
"200 67 OFFCURVE",
"283 0 OFFCURVE",
"450 0 CURVE SMOOTH",
"517 0 OFFCURVE",
"567 25 OFFCURVE",
"600 75 CURVE SMOOTH",
"633 125 OFFCURVE",
"650 200 OFFCURVE",
"650 300 CURVE SMOOTH",
"650 367 OFFCURVE",
"635 417 OFFCURVE",
"606 450 CURVE SMOOTH",
"577 483 OFFCURVE",
"534 500 OFFCURVE",
"475 500 CURVE SMOOTH",
"450 500 LINE",
"450 1200 LINE SMOOTH",
"450 1269 OFFCURVE",
"466 1317 OFFCURVE",
"498 1342 CURVE SMOOTH",
"503 1346 OFFCURVE",
"510 1348 OFFCURVE",
"517 1348 CURVE SMOOTH",
"551 1348 OFFCURVE",
"604 1299 OFFCURVE",
"675 1200 CURVE",
"747 1299 OFFCURVE",
"800 1348 OFFCURVE",
"834 1348 CURVE SMOOTH",
"841 1348 OFFCURVE",
"848 1346 OFFCURVE",
"853 1342 CURVE SMOOTH",
"884 1317 OFFCURVE",
"900 1269 OFFCURVE",
"900 1200 CURVE SMOOTH",
"900 0 LINE",
"1150 0 LINE",
"1150 1207 LINE SMOOTH"
);
},
{
closed = 1;
nodes = (
"544 358 OFFCURVE",
"550 333 OFFCURVE",
"550 300 CURVE SMOOTH",
"550 260 OFFCURVE",
"542 223 OFFCURVE",
"525 190 CURVE SMOOTH",
"508 157 OFFCURVE",
"492 140 OFFCURVE",
"475 140 CURVE SMOOTH",
"458 140 OFFCURVE",
"450 160 OFFCURVE",
"450 200 CURVE SMOOTH",
"450 400 LINE",
"475 400 LINE SMOOTH",
"500 400 OFFCURVE",
"519 392 OFFCURVE",
"531 375 CURVE SMOOTH"
);
}
);
width = 2050;
}
);
note = uni1789.a;
},
{
glyphname = uni17BF.b;
lastChange = "2021-05-07 10:51:05 +0000";
layers = (
{
layerId = "5714BDDB-2CB7-459F-823B-ADD058C725FB";
paths = (
{
closed = 1;
nodes = (
"500 1815 OFFCURVE",
"433 1915 OFFCURVE",
"300 2000 CURVE",
"300 2350 LINE",
"180 2350 LINE",
"180 2085 LINE",
"138 2115 OFFCURVE",
"98 2142 OFFCURVE",
"60 2166 CURVE",
"60 2400 LINE",
"-60 2400 LINE",
"-60 2237 LINE",
"-138 2279 OFFCURVE",
"-198 2300 OFFCURVE",
"-240 2300 CURVE SMOOTH",
"-480 2300 OFFCURVE",
"-600 2200 OFFCURVE",
"-600 2000 CURVE SMOOTH",
"-600 1933 OFFCURVE",
"-520 1900 OFFCURVE",
"-360 1900 CURVE SMOOTH",
"150 1900 LINE SMOOTH",
"217 1900 OFFCURVE",
"250 1833 OFFCURVE",
"250 1700 CURVE SMOOTH",
"250 -950 LINE SMOOTH",
"250 -1083 OFFCURVE",
"206 -1100 OFFCURVE",
"25 -1100 CURVE SMOOTH",
"-154 -1100 OFFCURVE",
"-200 -1086 OFFCURVE",
"-200 -950 CURVE SMOOTH",
"-200 -700 LINE",
"-400 -700 LINE",
"-400 -950 LINE SMOOTH",
"-400 -1153 OFFCURVE",
"-254 -1200 OFFCURVE",
"25 -1200 CURVE SMOOTH",
"305 -1200 OFFCURVE",
"500 -1151 OFFCURVE",
"500 -950 CURVE SMOOTH",
"500 1700 LINE SMOOTH"
);
},
{
closed = 1;
nodes = (
"-103 2100 OFFCURVE",
"13 2067 OFFCURVE",
"108 2000 CURVE",
"-400 2000 LINE",
"-400 2067 OFFCURVE",
"-347 2100 OFFCURVE",
"-240 2100 CURVE SMOOTH"
);
}
);
width = 700;
}
);
note = uni17BF.b;
},
